<?xml version="1.0" encoding="UTF-8"?><svg version="1.1" id="Layer_1" xmlns:serif="http://www.serif.com/" xmlns="http://www.w3.org/2000/svg" xmlns:xlink="http://www.w3.org/1999/xlink" x="0px" y="0px" viewBox="0 0 800 768" style="enable-background:new 0 0 800 768;" xml:space="preserve" width="800px" height="768px">

<rect id="list-is-empty" x="16" serif:id="list is empty" width="767.1" height="767.1" style="fill:none;">
</rect>
<g>
	<path d="M660,358.2h26.6c12.2,0,22,9.9,22,22v39.4c0,20.8-16.9,37.6-37.6,37.6c-20.8,0-37.6-16.9-37.6-37.6v-52.3
		c0-2.1-1.7-3.8-3.8-3.8s-3.8,1.7-3.8,3.8v52.3c0,25,20.3,45.3,45.3,45.3s45.3-20.3,45.3-45.3v-39.4c0-16.4-13.3-29.7-29.7-29.7H660
		c-2.1,0-3.8,1.7-3.8,3.8C656.2,356.5,657.9,358.2,660,358.2z" style="fill-rule:evenodd;clip-rule:evenodd;fill:#FF2E93;"/>
	<path d="M714.6,400.1c-12.9-0.5-23.3-11.1-23.3-24.2v-22.2c0-9.1-7.4-16.5-16.5-16.5c-2.1,0-3.8-1.7-3.8-3.8
		c0-2.1,1.7-3.8,3.8-3.8c13.3,0,24.2,10.8,24.2,24.2v22.2c0,9.1,7.4,16.5,16.5,16.5v0c0.3,0,0.5,0,0.8,0l0,0l0,0
		c12.9,0.5,23.3,11.1,23.3,24.2V443c0,23.3-18.9,42.1-42.1,42.1c-23.3,0-42.1-18.9-42.1-42.1v-39.2c0-2.1,1.7-3.8,3.8-3.8
		c2.1,0,3.8,1.7,3.8,3.8V443c0,19,15.4,34.5,34.5,34.5s34.5-15.4,34.5-34.5v-26.4c0-9.1-7.4-16.5-16.5-16.5v0
		C715.1,400.1,714.9,400.1,714.6,400.1L714.6,400.1L714.6,400.1L714.6,400.1z M715.6,400.1h-0.1v0
		C715.5,400.1,715.6,400.1,715.6,400.1z M715.5,392.4h0.1C715.6,392.4,715.5,392.4,715.5,392.4L715.5,392.4z" style="fill-rule:evenodd;clip-rule:evenodd;fill:#142664;"/>
	<path d="M656.8,454.4c2.8,1.2,5.9,2,9,2.4c1.3,2.9,2.9,5.6,4.9,8c-3.5,0-6.8-0.4-10.1-1.2
		C659,460.8,657.7,457.7,656.8,454.4L656.8,454.4z" style="fill-rule:evenodd;clip-rule:evenodd;fill:#FF2E93;"/>
	<rect x="471.2" y="374.5" width="187.9" height="11.3" style="fill-rule:evenodd;clip-rule:evenodd;fill:#00E6B3;"/>
	<rect x="293.2" y="374.5" width="178" height="11.3" style="fill-rule:evenodd;clip-rule:evenodd;fill:#FF2E93;"/>
	<path d="M469.2,385.8C469.2,385.8,469.2,385.8,469.2,385.8v-9.6c0-1.1,0.9-1.9,1.9-1.9c1.1,0,1.9,0.9,1.9,1.9v7.6
		h198.3c6.1,0,11.1,5,11.1,11.1c0,3.8,0,8.2,0,12c0,6.1-5,11.1-11.1,11.1H278.2c-7,0-12.6-5.6-12.6-12.6c0-2.9,0-6,0-8.9
		c0-7,5.6-12.6,12.6-12.6h19c1.1,0,1.9,0.9,1.9,1.9c0,1.1-0.9,1.9-1.9,1.9h-19c-4.8,0-8.8,3.9-8.8,8.8c0,2.9,0,6,0,8.9
		c0,4.8,3.9,8.8,8.8,8.8c36.6,0,156.4,0,192.9,0l0.1,0c3.7,0,6.8-2.4,8.1-5.6c0-0.1,0-0.1,0.1-0.2c0.2-0.5,0.3-0.9,0.4-1.4l0-0.2
		c0.1-0.4,0.1-0.9,0.1-1.4c0-2.9,0-6,0-8.9c0-4.8-3.9-8.8-8.8-8.8C470.1,387.7,469.2,386.9,469.2,385.8z" style="fill-rule:evenodd;clip-rule:evenodd;fill:#142664;"/>
	<path d="M616.6,167.4c0-1.5-0.6-3-1.7-4c-1.1-1.1-2.5-1.7-4-1.7c-17.3,0-69.2,0-86.5,0c-1.5,0-3,0.6-4,1.7
		c-1.1,1.1-1.7,2.5-1.7,4c0,12.7,0,43.3,0,56c0,1.5,0.6,3,1.7,4c1.1,1.1,2.5,1.7,4,1.7c17.3,0,69.2,0,86.5,0c1.5,0,3-0.6,4-1.7
		c1.1-1.1,1.7-2.5,1.7-4C616.6,210.7,616.6,180.1,616.6,167.4z" style="fill-rule:evenodd;clip-rule:evenodd;fill:#FFFFFF;"/>
	<path d="M605.8,177c0-1.5-0.6-3-1.7-4c-1.1-1.1-2.5-1.7-4-1.7c-14.4,0-52.4,0-66.8,0c-1.5,0-3,0.6-4,1.7
		s-1.7,2.5-1.7,4c0,9.4,0,28,0,37.4c0,1.5,0.6,3,1.7,4s2.5,1.7,4,1.7c14.4,0,52.4,0,66.8,0c1.5,0,3-0.6,4-1.7c1.1-1.1,1.7-2.5,1.7-4
		C605.8,205,605.8,186.4,605.8,177z" style="fill-rule:evenodd;clip-rule:evenodd;fill:#FF2E93;"/>
	<path d="M523.8,160.2h103.8c4.2,0,7.6,3.4,7.6,7.6c0,12.7,0,43.1,0,55.8c0,4.2-3.4,7.6-7.6,7.6H523.8
		c-4.2,0-7.6-3.4-7.6-7.6c0-12.7,0-43.1,0-55.8C516.2,163.6,519.6,160.2,523.8,160.2z M609.5,164h-85.7c-2.1,0-3.8,1.7-3.8,3.8
		c0,12.7,0,43.1,0,55.8c0,2.1,1.7,3.8,3.8,3.8h85.7c0,0,0.1,0,0.1,0c1.6-0.1,2.9-1.1,3.4-2.5c0-0.1,0.1-0.2,0.1-0.3
		c0-0.1,0-0.1,0-0.2c0.1-0.3,0.1-0.5,0.1-0.8v-55.8c0,0,0,0,0,0C613.3,165.7,611.6,164,609.5,164L609.5,164z" style="fill-rule:evenodd;clip-rule:evenodd;fill:#142664;"/>
	<circle cx="620.9" cy="184.9" r="3.3" style="fill-rule:evenodd;clip-rule:evenodd;fill:#FF2E93;"/>
	<circle cx="620.9" cy="172.8" r="3.3" style="fill-rule:evenodd;clip-rule:evenodd;fill:#FF2E93;"/>
	<path d="M628.1,197.4v26.2c0,4.2-3.4,7.6-7.6,7.6c-1.1,0-1.9-0.9-1.9-1.9c0-1.1,0.9-1.9,1.9-1.9c2.1,0,3.8-1.7,3.8-3.8
		v-28.1c0-1.1,0.9-1.9,1.9-1.9h7.1c1.1,0,1.9,0.9,1.9,1.9c0,1.1-0.9,1.9-1.9,1.9H628.1z" style="fill-rule:evenodd;clip-rule:evenodd;fill:#FF2E93;"/>
	<rect x="568.7" y="229.3" width="14.1" height="23.6" style="fill-rule:evenodd;clip-rule:evenodd;fill:#142664;"/>
	<path d="M544.7,185c0,0.9,0.7,1.7,1.7,1.7c0,0,0,0,0,0c0.9,0,1.7,0.7,1.7,1.7c0,3.1,0,9.7,0,12.8
		c0,0.9-0.7,1.7-1.7,1.7c0,0,0,0,0,0c-0.9,0-1.7,0.7-1.7,1.7c0,0.1,0,0.2,0,0.3c0,0.9-0.8,1.7-1.7,1.7c-0.7,0-1.6,0-2.3,0
		c-0.9,0-1.7-0.8-1.7-1.7c0-0.1,0-0.2,0-0.3c0-0.9-0.7-1.7-1.7-1.7c0,0,0,0,0,0c-0.9,0-1.7-0.7-1.7-1.7c0-3.1,0-9.7,0-12.8
		c0-0.9,0.7-1.7,1.7-1.7c0,0,0,0,0,0c0.9,0,1.7-0.7,1.7-1.7c0-0.1,0-0.2,0-0.3c0-0.9,0.8-1.7,1.7-1.7c0.7,0,1.6,0,2.3,0
		c0.9,0,1.7,0.8,1.7,1.7C544.7,184.8,544.7,184.9,544.7,185z" style="fill-rule:evenodd;clip-rule:evenodd;fill:#142664;"/>
	<path d="M593.8,185c0,0.9,0.7,1.7,1.7,1.7c0,0,0,0,0,0c0.9,0,1.7,0.7,1.7,1.7c0,3.1,0,9.7,0,12.8
		c0,0.9-0.7,1.7-1.7,1.7c0,0,0,0,0,0c-0.9,0-1.7,0.7-1.7,1.7c0,0.1,0,0.2,0,0.3c0,0.9-0.8,1.7-1.7,1.7c-0.7,0-1.6,0-2.3,0
		c-0.9,0-1.7-0.8-1.7-1.7c0-0.1,0-0.2,0-0.3c0-0.9-0.7-1.7-1.7-1.7c0,0,0,0,0,0c-0.9,0-1.7-0.7-1.7-1.7c0-3.1,0-9.7,0-12.8
		c0-0.9,0.7-1.7,1.7-1.7c0,0,0,0,0,0c0.9,0,1.7-0.7,1.7-1.7c0-0.1,0-0.2,0-0.3c0-0.9,0.8-1.7,1.7-1.7c0.7,0,1.6,0,2.3,0
		c0.9,0,1.7,0.8,1.7,1.7C593.8,184.8,593.8,184.9,593.8,185z" style="fill-rule:evenodd;clip-rule:evenodd;fill:#142664;"/>
	<path d="M569.9,200.3c0,0.4,0.2,0.9,0.5,1.2c0.3,0.3,0.7,0.5,1.2,0.5c0.4,0,0.7,0,1.1,0c0.9,0,1.7,0.8,1.7,1.7
		c0,1.6,0,4,0,5.6c0,0.9-0.8,1.7-1.7,1.7c-0.4,0-0.7,0-1.1,0c-0.4,0-0.9,0.2-1.2,0.5c-0.3,0.3-0.5,0.7-0.5,1.2c0,0.2,0,0.4,0,0.5
		c0,0.4-0.2,0.9-0.5,1.2c-0.3,0.3-0.7,0.5-1.2,0.5c-2.2,0-5.9,0-8,0c-0.4,0-0.9-0.2-1.2-0.5c-0.3-0.3-0.5-0.7-0.5-1.2
		c0-1,0-2.2,0-3.1c0-0.4,0.2-0.8,0.5-1.1c0.3-0.3,0.7-0.5,1.1-0.5h0c0.9,0,1.6-0.7,1.6-1.6V206c0-0.9-0.7-1.6-1.6-1.6h0
		c-0.4,0-0.8-0.2-1.1-0.5c-0.3-0.3-0.5-0.7-0.5-1.1c0-0.9,0-2.2,0-3.1c0-0.4,0.2-0.9,0.5-1.2c0.3-0.3,0.7-0.5,1.2-0.5
		c2.2,0,5.9,0,8,0c0.4,0,0.9,0.2,1.2,0.5c0.3,0.3,0.5,0.7,0.5,1.2C569.9,199.9,569.9,200.1,569.9,200.3z" style="fill-rule:evenodd;clip-rule:evenodd;fill:#142664;"/>
	<path d="M639.1,164.6v-48.1c0-1.4,0.5-2.7,1.5-3.6c1-1,2.3-1.5,3.6-1.5c14.5,0,55.9,0,70.4,0c1.4,0,2.7,0.5,3.6,1.5
		c1,1,1.5,2.3,1.5,3.6c0,11.9,0,41.2,0,53.1c0,1.4-0.5,2.7-1.5,3.6c-1,1-2.3,1.5-3.6,1.5h-67.9l-14.2,8.9c-0.9,0.9-2.3,0.9-3.2,0
		c-0.9-0.9-0.9-2.3,0-3.2L639.1,164.6L639.1,164.6z" style="fill-rule:evenodd;clip-rule:evenodd;fill:#00E6B3;"/>
	<path d="M646.4,149.6h66.1c1.1,0,1.9-0.9,1.9-1.9c0-1.1-0.9-1.9-1.9-1.9h-66.1c-1.1,0-1.9,0.9-1.9,1.9
		C644.5,148.8,645.3,149.6,646.4,149.6z" style="fill-rule:evenodd;clip-rule:evenodd;fill:#142664;"/>
	<path d="M658.4,135.8c0-0.9-0.3-1.7-1-2.3c-0.6-0.6-1.4-1-2.3-1c-0.8,0-1.7,0-2.6,0c-0.9,0-1.7,0.3-2.3,1
		c-0.6,0.6-1,1.4-1,2.3c0,3.2,0,7.5,0,7.5h9.1V135.8z" style="fill-rule:evenodd;clip-rule:evenodd;fill:#FFFFFF;"/>
	<path d="M696.8,129.4c0-0.9-0.3-1.7-1-2.3c-0.6-0.6-1.4-1-2.3-1c-0.8,0-1.7,0-2.6,0c-0.9,0-1.7,0.3-2.3,1
		c-0.6,0.6-1,1.4-1,2.3c0,5,0,13.9,0,13.9h9.1L696.8,129.4L696.8,129.4z" style="fill-rule:evenodd;clip-rule:evenodd;fill:#FFFFFF;"/>
	<path d="M684,152.2h-9.1v5.4c0,0.9,0.3,1.7,1,2.3c0.6,0.6,1.4,1,2.3,1h2.6c0.9,0,1.7-0.3,2.3-1c0.6-0.6,1-1.4,1-2.3
		V152.2z" style="fill-rule:evenodd;clip-rule:evenodd;fill:#142664;"/>
	<path d="M709.6,152.2h-9.1v13.1c0,0.9,0.3,1.7,1,2.3c0.6,0.6,1.4,1,2.3,1c0.8,0,1.7,0,2.6,0c0.9,0,1.7-0.3,2.3-1
		c0.6-0.6,1-1.4,1-2.3C709.6,160.5,709.6,152.2,709.6,152.2z" style="fill-rule:evenodd;clip-rule:evenodd;fill:#142664;"/>
	<path d="M671.2,120.8c0-0.9-0.3-1.7-1-2.3c-0.6-0.6-1.4-1-2.3-1c-0.8,0-1.7,0-2.6,0c-0.9,0-1.7,0.3-2.3,1
		c-0.6,0.6-1,1.4-1,2.3c0,6.9,0,22.5,0,22.5h9.1C671.2,143.3,671.2,120.8,671.2,120.8z" style="fill-rule:evenodd;clip-rule:evenodd;fill:#FFFFFF;"/>
	<path d="M571.3,459.8L544.5,433c-0.4-0.4-0.6-0.8-0.6-1.4v-15.5c0-1.1,0.9-1.9,1.9-1.9s1.9,0.9,1.9,1.9v14.8l28.9,28.9
		h41c1.9,0,3.6,0.7,5,2.1c1.3,1.3,2.1,3.1,2.1,5c0,14.8,0,48.9,0,63.7c0,1.9-0.7,3.6-2.1,5c-1.3,1.3-3.1,2.1-5,2.1
		c-18.6,0-68.9,0-87.5,0c-1.9,0-3.6-0.7-5-2.1c-1.3-1.3-2.1-3.1-2.1-5c0-14.8,0-48.9,0-63.7c0-1.9,0.7-3.6,2.1-5
		c1.3-1.3,3.1-2.1,5-2.1H571.3L571.3,459.8z" style="fill-rule:evenodd;clip-rule:evenodd;fill:#FF2E93;"/>
	<path d="M635.1,200.5h34.1c12.5,0,22.7,10.2,22.7,22.7c0,12.5-10.2,22.7-22.7,22.7c-4,0-7.3,3.3-7.3,7.3v31.3
		c0,2.1-1.7,3.8-3.8,3.8c-2.1,0-3.8-1.7-3.8-3.8v-31.3c0-8.3,6.7-15,15-15c8.3,0,15-6.7,15-15c0-8.3-6.7-15-15-15h-34.1V200.5z" style="fill-rule:evenodd;clip-rule:evenodd;fill:#FF2E93;"/>
	<path d="M495.6,374.5H280.2c0,0-12.3-0.3-12.3-11.9c0-9.1,7-11.8,17.6-19.4c10.6-7.6,125.9-90.4,125.9-90.4h216.8
		L486.3,354.7L495.6,374.5z" style="fill-rule:evenodd;clip-rule:evenodd;fill:#FFFFFF;"/>
	<path d="M319.7,364.1c-0.5-5,1.2-10.1,4.5-13.1c0,0,0,0,0,0c0,0,5.9-1.5,5.8,0l-3.1,2.7c-2.7,2.4-4,6.5-3.4,10.5h7.6
		c-0.7-5.1,1.5-10.3,5.8-13.5c5-3.6,6.4-0.1,5.8,0.6c-0.4,0.3-1.4,1-3.6,2.6c-3.7,2.6-5.2,7.4-3.9,11.7c0.2,0.6,0.1,1.2-0.3,1.7
		c-0.4,0.5-0.9,0.8-1.6,0.8H322l0,0l0,0h-16c-1.1,0-1.9-0.9-1.9-1.9c0-1.1,0.9-1.9,1.9-1.9H319.7L319.7,364.1z M342.9,351.2
		C343.1,351,343.1,351,342.9,351.2c-0.1,0.1-0.2,0.2-0.3,0.3c-5,3.6-4.1,2.9-2.4,1.7l1.5-1.1C342.2,351.7,342.6,351.4,342.9,351.2
		L342.9,351.2L342.9,351.2L342.9,351.2z M501.1,332.3h19.2c1.1,0,1.9,0.9,1.9,1.9s-0.9,1.9-1.9,1.9h-25.2c-0.8,0-1.6-0.5-1.8-1.3
		c-0.3-0.8,0-1.7,0.7-2.1l34.3-24.6c0.3-0.2,0.7-0.4,1.1-0.4h16.2c1.1,0,1.9,0.9,1.9,1.9c0,1.1-0.9,1.9-1.9,1.9h-15.6L501.1,332.3
		L501.1,332.3z M394.8,298.8H380c-1.1,0-1.9-0.9-1.9-1.9s0.9-1.9,1.9-1.9h20.7c0.8,0,1.6,0.5,1.8,1.3c0.3,0.8,0,1.7-0.7,2.1
		l-46.6,33.4c-0.9,0.6-2.1,0.4-2.7-0.4c-0.6-0.9-0.4-2.1,0.4-2.7L394.8,298.8z M354.5,307.9c3.5-1.3,7.4-2.1,10.5-2.1
		c5.2,0,6.1,2.3,2,5.2c-4,2.9-11.5,5.2-16.6,5.2c-4.7,0-5.9-1.9-3-4.5h-14.5c-1.1,0-1.9-0.9-1.9-1.9s0.9-1.9,1.9-1.9H354.5
		L354.5,307.9z M471.5,280l-37.3,26.7c-0.9,0.6-2.1,0.4-2.7-0.4c-0.6-0.9-0.4-2.1,0.4-2.7l37.8-27.1c0.3-0.2,0.7-0.4,1.1-0.4H495
		c1.1,0,1.9,0.9,1.9,1.9c0,1.1-0.9,1.9-1.9,1.9H471.5z M560.3,299.2L547,285.9c-0.7-0.7-2-0.7-2.7,0c-0.7,0.7-0.7,2,0,2.7l13.3,13.3
		c0.7,0.7,2,0.7,2.7,0C561.1,301.1,561.1,299.9,560.3,299.2L560.3,299.2z M548.8,265.7l15.6-11.2c0.9-0.6,1.1-1.8,0.4-2.7
		c-0.6-0.9-1.8-1.1-2.7-0.4l-15.6,11.2c-0.9,0.6-1.1,1.8-0.4,2.7C546.7,266.1,547.9,266.3,548.8,265.7z M565,265.7l15.6-11.2
		c0.9-0.6,1.1-1.8,0.4-2.7c-0.6-0.9-1.8-1.1-2.7-0.4l-15.6,11.2c-0.9,0.6-1.1,1.8-0.4,2.7C563,266.1,564.2,266.3,565,265.7z" style="fill-rule:evenodd;clip-rule:evenodd;fill:#00E6B3;"/>
	<path d="M636.8,265.3c2.8,0,5.1,2.3,5.1,5.1v14c0,2.1,1.7,3.8,3.8,3.8c2.1,0,3.8-1.7,3.8-3.8v-14
		c0-7.1-5.7-12.8-12.8-12.8c-2.1,0-3.8,1.7-3.8,3.8C633,263.6,634.7,265.3,636.8,265.3z" style="fill-rule:evenodd;clip-rule:evenodd;fill:#FF2E93;"/>
	<path d="M650.6,274.3H641l-1,7.7h11.5L650.6,274.3z" style="fill-rule:evenodd;clip-rule:evenodd;fill:#142664;"/>
	<path d="M662.9,274.3h-9.6l-1,7.7h11.5L662.9,274.3z" style="fill-rule:evenodd;clip-rule:evenodd;fill:#142664;"/>
	<path d="M462.4,271.1h-38c-14.8,0-26.8-12-26.8-26.8c0-14.8,12-26.8,26.8-26.8h60.4c1.2,0,1.2,0,0,0
		c-14.8,0-26.8,12-26.8,26.8c0,9,4.5,17,11.3,21.8L462.4,271.1z" style="fill-rule:evenodd;clip-rule:evenodd;fill:#00E6B3;"/>
	<path d="M419.8,265.2L419.8,265.2c-0.9-0.6-2.1-0.3-2.7,0.6c-0.6,0.9-0.3,2.1,0.6,2.7l0,0c0.9,0.6,2.1,0.3,2.7-0.6
		C420.9,267,420.7,265.8,419.8,265.2L419.8,265.2z M414.4,260.5L414.4,260.5c-0.7-0.8-1.9-0.9-2.7-0.2c-0.8,0.7-0.9,1.9-0.2,2.7l0,0
		c0.7,0.8,1.9,0.9,2.7,0.2C415,262.5,415.1,261.3,414.4,260.5z M410.6,254.6L410.6,254.6c-0.4-1-1.6-1.4-2.5-1c-1,0.4-1.4,1.6-1,2.5
		l0,0c0.4,1,1.6,1.4,2.5,1C410.6,256.7,411,255.5,410.6,254.6z M408.6,247.7L408.6,247.7c-0.1-1-1.1-1.8-2.2-1.6
		c-1,0.1-1.8,1.1-1.6,2.2l0,0c0.1,1,1.1,1.8,2.2,1.6C408,249.8,408.8,248.8,408.6,247.7z M408.7,240.6L408.7,240.6
		c0.2-1-0.6-2-1.6-2.2c-1-0.2-2,0.6-2.2,1.6l0,0c-0.2,1,0.6,2,1.6,2.2C407.5,242.4,408.5,241.7,408.7,240.6z M410.7,233.8
		L410.7,233.8c0.4-1,0-2.1-0.9-2.5c-1-0.4-2.1,0-2.5,0.9l0,0c-0.4,1,0,2.1,0.9,2.5C409.1,235.2,410.3,234.8,410.7,233.8z
		 M414.6,227.9L414.6,227.9c0.7-0.8,0.6-2-0.2-2.7c-0.8-0.7-2-0.6-2.7,0.2l0,0c-0.7,0.8-0.6,2,0.2,2.7
		C412.7,228.8,413.9,228.7,414.6,227.9z M420,223.3L420,223.3c0.9-0.6,1.2-1.8,0.6-2.6c-0.6-0.9-1.8-1.2-2.6-0.6l0,0
		c-0.9,0.6-1.2,1.8-0.6,2.6C417.9,223.6,419.1,223.9,420,223.3z" style="fill-rule:evenodd;clip-rule:evenodd;fill:#142664;"/>
	<path d="M461.5,265.2L461.5,265.2c-0.9-0.6-2.1-0.3-2.7,0.6c-0.6,0.9-0.3,2.1,0.6,2.7l0,0c0.9,0.6,2.1,0.3,2.7-0.6
		C462.7,267,462.4,265.8,461.5,265.2L461.5,265.2z M456.2,260.5L456.2,260.5c-0.7-0.8-1.9-0.9-2.7-0.2c-0.8,0.7-0.9,1.9-0.2,2.7l0,0
		c0.7,0.8,1.9,0.9,2.7,0.2C456.8,262.5,456.9,261.3,456.2,260.5z M452.3,254.6L452.3,254.6c-0.4-1-1.6-1.4-2.5-1
		c-1,0.4-1.4,1.6-1,2.5l0,0c0.4,1,1.6,1.4,2.5,1C452.4,256.7,452.8,255.5,452.3,254.6z M450.4,247.7L450.4,247.7
		c-0.1-1-1.1-1.8-2.2-1.6c-1,0.1-1.8,1.1-1.6,2.2l0,0c0.1,1,1.1,1.8,2.2,1.6C449.8,249.8,450.5,248.8,450.4,247.7z M450.4,240.6
		L450.4,240.6c0.2-1-0.6-2-1.6-2.2c-1-0.2-2,0.6-2.2,1.6l0,0c-0.2,1,0.6,2,1.6,2.2C449.3,242.4,450.3,241.7,450.4,240.6z
		 M452.4,233.8L452.4,233.8c0.4-1,0-2.1-0.9-2.5c-1-0.4-2.1,0-2.5,0.9l0,0c-0.4,1,0,2.1,0.9,2.5C450.9,235.2,452,234.8,452.4,233.8z
		 M456.3,227.9L456.3,227.9c0.7-0.8,0.6-2-0.2-2.7c-0.8-0.7-2-0.6-2.7,0.2l0,0c-0.7,0.8-0.6,2,0.2,2.7
		C454.4,228.8,455.6,228.7,456.3,227.9z M461.7,223.3L461.7,223.3c0.9-0.6,1.2-1.8,0.6-2.6c-0.6-0.9-1.8-1.2-2.6-0.6l0,0
		c-0.9,0.6-1.2,1.8-0.6,2.6C459.6,223.6,460.8,223.9,461.7,223.3z" style="fill-rule:evenodd;clip-rule:evenodd;fill:#142664;"/>
	<path d="M469.3,266.1c-6.8-4.9-11.3-12.8-11.3-21.8c0-14.8,12-26.8,26.8-26.8c14.8,0,26.8,12,26.8,26.8
		c0,3-0.5,5.9-1.4,8.6h-22.4L469.3,266.1L469.3,266.1z" style="fill-rule:evenodd;clip-rule:evenodd;fill:#142664;"/>
	<path d="M393.1,251.8c-0.3-1.3-0.5-2.6-0.7-4c-0.1-1.3-0.2-2.7-0.1-4c0.1-4.1,1-8,2.5-11.6c1-2.5,2.3-4.8,3.9-6.9
		c3.9-5.4,9.4-9.5,15.9-11.6c0.8-0.2,1.2-1,1-1.8c-0.2-0.8-1-1.2-1.8-1c-7.3,2-13.6,6.2-18.1,12.1c-1.8,2.3-3.3,5-4.4,7.7
		c-1.6,4-2.4,8.4-2.3,13c0,1.5,0.2,3,0.4,4.4c0.2,1.5,0.6,2.9,1,4.3c0.2,0.8,1,1.2,1.7,1C392.8,253.3,393.3,252.5,393.1,251.8
		L393.1,251.8z" style="fill-rule:evenodd;clip-rule:evenodd;fill:#142664;"/>
	<path d="M387.5,257.7c-0.7-1.9-1.2-3.8-1.6-5.8c-0.3-1.5-0.5-2.9-0.7-4.4c-0.2-1.5-0.4-3-0.4-4.5c0-1-0.1-1.9,0-2.8
		c0-1,0.1-1.9,0.1-2.9c0.1-0.8-0.4-1.5-1.2-1.6c-0.8-0.1-1.5,0.4-1.6,1.2c-0.2,1-0.4,2-0.5,3c-0.1,1-0.2,2-0.3,3.1
		c-0.1,1.7,0,3.3,0.1,4.9c0.1,1.1,0.3,2.2,0.6,3.2c0.7,2.7,1.7,5.2,2.9,7.7c0.3,0.7,1.1,1.1,1.9,0.7
		C387.5,259.3,387.8,258.4,387.5,257.7L387.5,257.7z" style="fill-rule:evenodd;clip-rule:evenodd;fill:#142664;"/>
	<path d="M389.1,225c0.4-0.5,0.9-1,1.3-1.6c0.4-0.5,0.9-1,1.2-1.6c0.2-0.3,0.4-0.7,0.6-1c0.5-0.8,0.9-1.6,1.4-2.4
		c0.5-0.6,0.5-1.5-0.1-2c-0.6-0.5-1.5-0.5-2,0.1c-0.8,0.7-1.5,1.3-2.2,2.1c-0.3,0.3-0.6,0.7-0.8,1c-0.4,0.6-0.8,1.2-1.1,1.9
		c-0.3,0.7-0.6,1.3-0.8,2c-0.4,0.7-0.1,1.5,0.6,1.9C387.9,226,388.8,225.7,389.1,225L389.1,225z" style="fill-rule:evenodd;clip-rule:evenodd;fill:#142664;"/>
	<path d="M448.3,364c0,0,1,7.7,6.8,11.9c1.3,0.9,3.1,0.6,4-0.7c0.9-1.3,0.6-3.1-0.7-4c-3.9-2.8-4.5-7.9-4.5-7.9
		c-0.2-1.6-1.6-2.7-3.2-2.5C449.3,361,448.1,362.5,448.3,364L448.3,364z" style="fill-rule:evenodd;clip-rule:evenodd;fill:#142664;"/>
	<path d="M438.2,364c0,0,1,7.7,6.8,11.9c1.3,0.9,3.1,0.6,4-0.7c0.9-1.3,0.6-3.1-0.7-4c-3.9-2.8-4.5-7.9-4.5-7.9
		c-0.2-1.6-1.6-2.7-3.2-2.5C439.1,361,438,362.5,438.2,364L438.2,364z" style="fill-rule:evenodd;clip-rule:evenodd;fill:#142664;"/>
	<path d="M428,364c0,0,1,7.7,6.8,11.9c1.3,0.9,3.1,0.6,4-0.7c0.9-1.3,0.6-3.1-0.7-4c-3.9-2.8-4.5-7.9-4.5-7.9
		c-0.2-1.6-1.6-2.7-3.2-2.5C428.9,361,427.8,362.5,428,364z" style="fill-rule:evenodd;clip-rule:evenodd;fill:#142664;"/>
	<path d="M668.3,285.7c0-3.1-2.5-5.6-5.6-5.6c-10.3,0-31.2,0-31.2,0v36.8h36.8V285.7L668.3,285.7z" style="fill-rule:evenodd;clip-rule:evenodd;fill:#00E6B3;"/>
	<path d="M491.5,243.2c0-3.2-2.6-5.8-5.8-5.8c0,0,0,0,0,0c-3.2,0-5.8,2.6-5.8,5.8c0,7.1,0,18.2,0,18.2h11.6L491.5,243.2
		L491.5,243.2z" style="fill-rule:evenodd;clip-rule:evenodd;fill:#FFFFFF;"/>
	<path d="M280.2,372.6c-4.5,0-8.5-2.9-9.9-7.2c-1.4-4.3,0.2-9,3.8-11.7l120-86c0.9-0.6,1.1-1.8,0.4-2.7
		c-0.6-0.9-1.8-1.1-2.7-0.4l-120,86c-5,3.6-7.2,10.1-5.3,16c1.9,5.9,7.4,9.9,13.6,9.9c1.1,0,1.9-0.9,1.9-1.9
		C282.1,373.5,281.2,372.6,280.2,372.6L280.2,372.6z" style="fill-rule:evenodd;clip-rule:evenodd;fill:#142664;"/>
	<path d="M411,357.1h-57.2c-2.1,0-3.8,1.7-3.8,3.8c0,2.1,1.7,3.8,3.8,3.8H411c2.1,0,3.8-1.7,3.8-3.8
		C414.8,358.8,413.1,357.1,411,357.1z" style="fill-rule:evenodd;clip-rule:evenodd;fill:#142664;"/>
	<path d="M396.3,450.5c-21.3,0-38.6-17.3-38.6-38.6v-50.9h48.9v50.9c0,21.3,17.3,38.6,38.6,38.6h26.2
		c11.4,0,21.4,7.8,24.2,18.8c0.7,3,1.1,6.1,1.1,9.2v37.6c0,21.3-17.3,38.6-38.6,38.6h-53.7c21.3,0,38.6-17.3,38.6-38.6v-37.6
		c0-22.6-12.1-28.1-12.1-28.1H396.3L396.3,450.5z" style="fill-rule:evenodd;clip-rule:evenodd;fill:#00E6B3;"/>
	<g>
		<defs>
			<path id="SVGID_1_" d="M396.3,450.5c-21.3,0-38.6-17.3-38.6-38.6v-50.9h48.9v50.9c0,21.3,17.3,38.6,38.6,38.6h26.2
				c11.4,0,21.4,7.8,24.2,18.8c0.7,3,1.1,6.1,1.1,9.2v37.6c0,21.3-17.3,38.6-38.6,38.6h-53.7c21.3,0,38.6-17.3,38.6-38.6v-37.6
				c0-22.6-12.1-28.1-12.1-28.1H396.3L396.3,450.5z"/>
		</defs>
		<clipPath id="SVGID_2_">
			<use xlink:href="#SVGID_1_" style="overflow:visible;"/>
		</clipPath>
		<g style="clip-path:url(#SVGID_2_);">
			<path d="M382.7,442.2L382.7,442.2c-0.9-0.6-2.1-0.4-2.7,0.5c-0.6,0.9-0.4,2.1,0.5,2.7l0,0c0.9,0.6,2.1,0.4,2.7-0.5
				C383.8,444,383.6,442.8,382.7,442.2L382.7,442.2z M377.1,437.5L377.1,437.5c-0.7-0.8-2-0.8-2.7,0c-0.8,0.7-0.8,2,0,2.7l0,0
				c0.7,0.8,2,0.8,2.7,0C377.8,439.5,377.8,438.3,377.1,437.5z M372.5,431.9L372.5,431.9c-0.6-0.9-1.8-1.1-2.7-0.6
				c-0.9,0.6-1.1,1.8-0.6,2.7l0,0c0.6,0.9,1.8,1.1,2.7,0.6C372.9,433.9,373.1,432.8,372.5,431.9z M369.2,425.4L369.2,425.4
				c-0.4-1-1.5-1.5-2.5-1.1c-1,0.4-1.5,1.5-1.1,2.5l0,0c0.4,1,1.5,1.5,2.5,1.1C369.1,427.5,369.6,426.4,369.2,425.4z M367.2,418.4
				L367.2,418.4c-0.2-1-1.2-1.7-2.2-1.5c-1,0.2-1.7,1.2-1.5,2.2l0,0c0.2,1,1.2,1.7,2.2,1.5C366.7,420.5,367.4,419.5,367.2,418.4z
				 M366.6,411.1L366.6,411.1c0-1.1-0.9-1.9-1.9-1.9c-1.1,0-1.9,0.9-1.9,1.9l0,0c0,1.1,0.9,1.9,1.9,1.9
				C365.7,413,366.6,412.2,366.6,411.1z M366.6,403.5L366.6,403.5c0-1.1-0.9-1.9-1.9-1.9c-1.1,0-1.9,0.9-1.9,1.9l0,0
				c0,1.1,0.9,1.9,1.9,1.9C365.7,405.4,366.6,404.5,366.6,403.5z M366.6,395.8L366.6,395.8c0-1.1-0.9-1.9-1.9-1.9
				c-1.1,0-1.9,0.9-1.9,1.9l0,0c0,1.1,0.9,1.9,1.9,1.9C365.7,397.7,366.6,396.8,366.6,395.8z M366.6,388.1L366.6,388.1
				c0-1.1-0.9-1.9-1.9-1.9c-1.1,0-1.9,0.9-1.9,1.9l0,0c0,1.1,0.9,1.9,1.9,1.9C365.7,390,366.6,389.2,366.6,388.1z M366.6,380.4
				L366.6,380.4c0-1.1-0.9-1.9-1.9-1.9c-1.1,0-1.9,0.9-1.9,1.9l0,0c0,1.1,0.9,1.9,1.9,1.9C365.7,382.4,366.6,381.5,366.6,380.4z
				 M366.6,372.8L366.6,372.8c0-1.1-0.9-1.9-1.9-1.9c-1.1,0-1.9,0.9-1.9,1.9l0,0c0,1.1,0.9,1.9,1.9,1.9
				C365.7,374.7,366.6,373.8,366.6,372.8z M366.6,365.1L366.6,365.1c0-1.1-0.9-1.9-1.9-1.9c-1.1,0-1.9,0.9-1.9,1.9l0,0
				c0,1.1,0.9,1.9,1.9,1.9C365.7,367,366.6,366.2,366.6,365.1z" style="fill-rule:evenodd;clip-rule:evenodd;fill:#142664;"/>
			<path d="M423.5,445.7L423.5,445.7c-1-0.4-2.1,0-2.5,1c-0.4,1,0,2.1,1,2.5l0,0c1,0.4,2.1,0,2.5-1
				C424.9,447.2,424.5,446.1,423.5,445.7z M417.1,442.2L417.1,442.2c-0.9-0.6-2.1-0.4-2.7,0.5c-0.6,0.9-0.4,2.1,0.5,2.7l0,0
				c0.9,0.6,2.1,0.4,2.7-0.5C418.2,444,418,442.8,417.1,442.2L417.1,442.2z M411.5,437.5L411.5,437.5c-0.7-0.8-2-0.8-2.7,0
				c-0.8,0.7-0.8,2,0,2.7l0,0c0.7,0.8,2,0.8,2.7,0C412.3,439.5,412.3,438.3,411.5,437.5z M407,431.9L407,431.9
				c-0.6-0.9-1.8-1.1-2.7-0.6c-0.9,0.6-1.1,1.8-0.6,2.7l0,0c0.6,0.9,1.8,1.1,2.7,0.6C407.3,433.9,407.5,432.8,407,431.9z
				 M403.6,425.4L403.6,425.4c-0.4-1-1.5-1.5-2.5-1.1s-1.5,1.5-1.1,2.5l0,0c0.4,1,1.5,1.5,2.5,1.1
				C403.5,427.5,404,426.4,403.6,425.4z M401.6,418.4L401.6,418.4c-0.2-1-1.2-1.7-2.2-1.5c-1,0.2-1.7,1.2-1.5,2.2l0,0
				c0.2,1,1.2,1.7,2.2,1.5C401.1,420.5,401.8,419.5,401.6,418.4z M401,411.1L401,411.1c0-1.1-0.9-1.9-1.9-1.9
				c-1.1,0-1.9,0.9-1.9,1.9l0,0c0,1.1,0.9,1.9,1.9,1.9C400.2,413,401,412.2,401,411.1z M401,403.5L401,403.5c0-1.1-0.9-1.9-1.9-1.9
				c-1.1,0-1.9,0.9-1.9,1.9l0,0c0,1.1,0.9,1.9,1.9,1.9C400.2,405.4,401,404.5,401,403.5z M401,395.8L401,395.8
				c0-1.1-0.9-1.9-1.9-1.9c-1.1,0-1.9,0.9-1.9,1.9l0,0c0,1.1,0.9,1.9,1.9,1.9C400.2,397.7,401,396.8,401,395.8z M401,388.1
				L401,388.1c0-1.1-0.9-1.9-1.9-1.9c-1.1,0-1.9,0.9-1.9,1.9l0,0c0,1.1,0.9,1.9,1.9,1.9C400.2,390,401,389.2,401,388.1z M401,380.4
				L401,380.4c0-1.1-0.9-1.9-1.9-1.9c-1.1,0-1.9,0.9-1.9,1.9l0,0c0,1.1,0.9,1.9,1.9,1.9C400.2,382.4,401,381.5,401,380.4z
				 M401,372.8L401,372.8c0-1.1-0.9-1.9-1.9-1.9c-1.1,0-1.9,0.9-1.9,1.9l0,0c0,1.1,0.9,1.9,1.9,1.9C400.2,374.7,401,373.8,401,372.8
				z M401,365.1L401,365.1c0-1.1-0.9-1.9-1.9-1.9c-1.1,0-1.9,0.9-1.9,1.9l0,0c0,1.1,0.9,1.9,1.9,1.9C400.2,367,401,366.2,401,365.1z
				" style="fill-rule:evenodd;clip-rule:evenodd;fill:#142664;"/>
			<path d="M466,553.5L466,553.5c1-0.4,1.4-1.5,1-2.5c-0.4-1-1.5-1.4-2.5-1l0,0c-1,0.4-1.4,1.5-1,2.5
				C463.9,553.4,465,553.9,466,553.5z M473,549.6L473,549.6c0.9-0.6,1.1-1.8,0.5-2.7c-0.6-0.9-1.8-1.1-2.7-0.5l0,0
				c-0.9,0.6-1.1,1.8-0.5,2.7C470.9,550,472.1,550.2,473,549.6z M479.2,544.5L479.2,544.5c0.7-0.8,0.7-2,0-2.7c-0.8-0.7-2-0.7-2.7,0
				l0,0c-0.7,0.8-0.7,2,0,2.7C477.2,545.2,478.4,545.2,479.2,544.5z M484.2,538.2L484.2,538.2c0.6-0.9,0.3-2.1-0.6-2.7
				c-0.9-0.6-2.1-0.3-2.7,0.6l0,0c-0.6,0.9-0.3,2.1,0.6,2.7C482.5,539.3,483.6,539.1,484.2,538.2z M487.9,531.1L487.9,531.1
				c0.4-1-0.1-2.1-1.1-2.5c-1-0.4-2.1,0.1-2.5,1.1l0,0c-0.4,1,0.1,2.1,1.1,2.5C486.4,532.5,487.5,532.1,487.9,531.1z M490.1,523.3
				L490.1,523.3c0.2-1-0.5-2-1.5-2.2c-1-0.2-2,0.5-2.2,1.5l0,0c-0.2,1,0.5,2,1.5,2.2C489,525.1,490,524.4,490.1,523.3L490.1,523.3z
				 M490.8,515.4L490.8,515.4c0-1.1-0.9-1.9-1.9-1.9s-1.9,0.9-1.9,1.9l0,0c0,1.1,0.9,1.9,1.9,1.9S490.8,516.4,490.8,515.4z
				 M490.8,507.7L490.8,507.7c0-1.1-0.9-1.9-1.9-1.9s-1.9,0.9-1.9,1.9l0,0c0,1.1,0.9,1.9,1.9,1.9S490.8,508.8,490.8,507.7z
				 M490.8,500L490.8,500c0-1.1-0.9-1.9-1.9-1.9S487,499,487,500l0,0c0,1.1,0.9,1.9,1.9,1.9S490.8,501.1,490.8,500z M490.8,492.4
				L490.8,492.4c0-1.1-0.9-1.9-1.9-1.9s-1.9,0.9-1.9,1.9l0,0c0,1.1,0.9,1.9,1.9,1.9S490.8,493.4,490.8,492.4z M490.8,484.7
				L490.8,484.7c0-1.1-0.9-1.9-1.9-1.9s-1.9,0.9-1.9,1.9l0,0c0,1.1,0.9,1.9,1.9,1.9S490.8,485.8,490.8,484.7z M490.8,477L490.8,477
				c0-1.1-0.9-1.9-2-1.9c-1.1,0-1.9,0.9-1.9,2l0,0c0,1.1,0.9,1.9,2,1.9C490,478.9,490.8,478,490.8,477z M490,469.1L490,469.1
				c-0.2-1-1.2-1.7-2.2-1.6c-1,0.2-1.7,1.2-1.6,2.2l0,0c0.2,1,1.2,1.7,2.2,1.6C489.5,471.1,490.2,470.1,490,469.1z M487.9,461.3
				L487.9,461.3c-0.4-1-1.5-1.5-2.5-1.1c-1,0.4-1.5,1.5-1.1,2.5l0,0c0.4,1,1.5,1.5,2.5,1.1C487.8,463.4,488.2,462.3,487.9,461.3z
				 M483.8,454.2L483.8,454.2c-0.6-0.8-1.9-1-2.7-0.3c-0.8,0.6-1,1.9-0.3,2.7l0,0c0.6,0.8,1.9,1,2.7,0.3
				C484.3,456.2,484.5,455,483.8,454.2z" style="fill-rule:evenodd;clip-rule:evenodd;fill:#142664;"/>
			<path d="M441.1,544.5L441.1,544.5c0.7-0.8,0.7-2,0-2.7c-0.8-0.7-2-0.7-2.7,0c0,0,0,0,0,0c-0.7,0.8-0.7,2,0,2.7
				C439.2,545.2,440.4,545.2,441.1,544.5z M446.2,538.2L446.2,538.2c0.6-0.9,0.3-2.1-0.6-2.7c-0.9-0.6-2.1-0.3-2.7,0.6l0,0
				c-0.6,0.9-0.3,2.1,0.6,2.7C444.4,539.3,445.6,539.1,446.2,538.2z M449.9,531.1L449.9,531.1c0.4-1-0.1-2.1-1.1-2.5
				c-1-0.4-2.1,0.1-2.5,1.1l0,0c-0.4,1,0.1,2.1,1.1,2.5C448.4,532.5,449.5,532.1,449.9,531.1z M452.1,523.3L452.1,523.3
				c0.2-1-0.5-2-1.5-2.2c-1-0.2-2,0.5-2.2,1.5l0,0c-0.2,1,0.5,2,1.5,2.2C450.9,525.1,451.9,524.4,452.1,523.3L452.1,523.3z
				 M452.7,515.4L452.7,515.4c0-1.1-0.9-1.9-1.9-1.9c-1.1,0-1.9,0.9-1.9,1.9l0,0c0,1.1,0.9,1.9,1.9,1.9
				C451.9,517.3,452.7,516.4,452.7,515.4z M452.7,507.7L452.7,507.7c0-1.1-0.9-1.9-1.9-1.9c-1.1,0-1.9,0.9-1.9,1.9l0,0
				c0,1.1,0.9,1.9,1.9,1.9C451.9,509.6,452.7,508.8,452.7,507.7z M452.7,500L452.7,500c0-1.1-0.9-1.9-1.9-1.9
				c-1.1,0-1.9,0.9-1.9,1.9l0,0c0,1.1,0.9,1.9,1.9,1.9C451.9,502,452.7,501.1,452.7,500z M452.7,492.4L452.7,492.4
				c0-1.1-0.9-1.9-1.9-1.9c-1.1,0-1.9,0.9-1.9,1.9l0,0c0,1.1,0.9,1.9,1.9,1.9C451.9,494.3,452.7,493.4,452.7,492.4z M452.7,484.7
				L452.7,484.7c0-1.1-0.9-1.9-1.9-1.9c-1.1,0-1.9,0.9-1.9,1.9l0,0c0,1.1,0.9,1.9,1.9,1.9C451.9,486.6,452.7,485.8,452.7,484.7z
				 M452.7,477L452.7,477c0-1.1-0.9-1.9-2-1.9c-1.1,0-1.9,0.9-1.9,2l0,0c0,1.1,0.9,1.9,2,1.9C451.9,478.9,452.7,478,452.7,477z
				 M452,469.1L452,469.1c-0.2-1-1.2-1.7-2.2-1.6c-1,0.2-1.7,1.2-1.6,2.2l0,0c0.2,1,1.2,1.7,2.2,1.6
				C451.4,471.1,452.1,470.1,452,469.1z M449.8,461.3L449.8,461.3c-0.4-1-1.5-1.5-2.5-1.1c-1,0.4-1.5,1.5-1.1,2.5l0,0
				c0.4,1,1.5,1.5,2.5,1.1S450.2,462.3,449.8,461.3z M445.8,454.2L445.8,454.2c-0.6-0.8-1.9-1-2.7-0.3c-0.8,0.6-1,1.9-0.3,2.7l0,0
				c0.6,0.8,1.9,1,2.7,0.3C446.3,456.2,446.4,455,445.8,454.2z" style="fill-rule:evenodd;clip-rule:evenodd;fill:#142664;"/>
		</g>
	</g>
	<path d="M619.5,254.8h-99.1c-1.1,0-1.9-0.9-1.9-1.9c0-1.1,0.9-1.9,1.9-1.9H628h0c1.5,0,3,0.4,4.4,1.1
		c3.3,1.7,5.3,5,5.3,8.7c0,13.5,0,32.8,0,44.9c0,5.1,4.1,9.3,9.3,9.3c6.8,0,15.5,0,22.3,0c7.2,0,13.1,5.9,13.1,13.1
		c0,10.2,0,25.2,0,35.4c0,7.2-5.9,13.1-13.1,13.1H494.2c0,0-0.1,0-0.1,0c-5.7-0.1-10.7-3.4-12.9-8.6c-0.2-0.4-0.4-0.9-0.5-1.3l0,0
		c-1.1-3.6-0.8-7.3,0.7-10.5c0.2-0.3,0.3-0.6,0.5-1c0.3-0.4,0.5-0.9,0.8-1.3c0.3-0.4,0.6-0.8,1-1.2l0.1-0.1l0.1-0.1
		c0.5-0.5,1-1,1.5-1.4l0.1-0.1l0.1-0.1l0.1-0.1c0.1-0.1,0.2-0.1,0.3-0.2L619.5,254.8L619.5,254.8z" style="fill-rule:evenodd;clip-rule:evenodd;fill:#142664;"/>
	<path d="M482.3,291.4c-2.5,0-4.7-1.6-5.4-4s0.2-4.9,2.2-6.3c9.9-6.8,21.7-14.9,25.8-17.7c0.9-0.6,2.1-1,3.2-1
		c8.1,0,42.7,0,64.5,0c2.5,0,4.7,1.6,5.4,4c0.7,2.4-0.2,4.9-2.2,6.3c-9.9,6.8-21.7,14.9-25.8,17.7c-0.9,0.6-2.1,1-3.2,1
		C538.6,291.4,504.1,291.4,482.3,291.4z" style="fill-rule:evenodd;clip-rule:evenodd;fill:#142664;"/>
	<path d="M318.1,349.6c-1.4,0-2.7-0.9-3.1-2.3c-0.4-1.3,0.1-2.8,1.3-3.6c6.9-4.7,15.9-10.9,18.7-12.8
		c0.5-0.4,1.2-0.6,1.8-0.6c3.7,0,16.9,0,26.4,0c1.4,0,2.7,0.9,3.1,2.3c0.4,1.3-0.1,2.8-1.3,3.6c-6.9,4.7-15.9,10.9-18.7,12.8
		c-0.5,0.4-1.2,0.6-1.8,0.6C340.8,349.6,327.6,349.6,318.1,349.6z" style="fill:none;stroke:#142664;stroke-width:3.8352;stroke-linecap:round;stroke-linejoin:round;stroke-miterlimit:1.4382;"/>
	<path d="M515.6,278.4c1.1,0,2.1,0.7,2.5,1.8c0.3,1.1,0,2.2-1,2.9c-0.8,0.5-1.4,1-1.9,1.4c-0.4,0.3-1,0.5-1.5,0.5
		c-2.4,0-9.3,0-15,0c-1.1,0-2.1-0.7-2.5-1.8c-0.3-1.1,0-2.2,1-2.9c0.8-0.5,1.4-1,1.9-1.4c0.4-0.3,1-0.5,1.5-0.5
		C502.9,278.4,509.9,278.4,515.6,278.4z M526.4,278.9c0.4-0.3,1-0.5,1.5-0.5c1.2,0,3.5,0,5.9,0c1.1,0,2.1,0.7,2.5,1.8
		c0.3,1.1,0,2.2-1,2.9c-0.8,0.5-1.4,1-1.9,1.4c-0.4,0.3-1,0.5-1.5,0.5c-1.2,0-3.5,0-5.9,0c-1.1,0-2.1-0.7-2.5-1.8
		c-0.3-1.1,0-2.2,1-2.9C525.3,279.7,526,279.2,526.4,278.9z" style="fill-rule:evenodd;clip-rule:evenodd;fill:#00E6B3;"/>
	<path d="M513.7,268.3c0.4-0.3,1-0.5,1.5-0.5c4.7,0,28.3,0,40.9,0c1.1,0,2.1,0.7,2.5,1.8c0.3,1.1,0,2.2-1,2.9
		c-0.8,0.5-1.4,1-1.9,1.4c-0.4,0.3-1,0.5-1.5,0.5c-4.7,0-28.3,0-40.9,0c-1.1,0-2.1-0.7-2.5-1.8c-0.3-1.1,0-2.2,1-2.9
		C512.6,269.1,513.2,268.6,513.7,268.3z" style="fill-rule:evenodd;clip-rule:evenodd;fill:#00E6B3;"/>
	<path d="M376.2,467.3c24,0.2,43.4,19.7,43.4,43.7c0,24.1,19.6,43.7,43.7,43.7h-60.8c-24.1,0-43.7-19.6-43.7-43.7
		c0-12.3-5.1-23.4-13.3-31.4c7.9-7.6,18.6-12.3,30.4-12.3L376.2,467.3z" style="fill-rule:evenodd;clip-rule:evenodd;fill:#142664;"/>
	<g>
		<defs>
			<path id="SVGID_3_" d="M376.2,467.3c24,0.2,43.4,19.7,43.4,43.7c0,24.1,19.6,43.7,43.7,43.7h-60.8c-24.1,0-43.7-19.6-43.7-43.7
				c0-12.3-5.1-23.4-13.3-31.4c7.9-7.6,18.6-12.3,30.4-12.3L376.2,467.3z"/>
		</defs>
		<clipPath id="SVGID_4_">
			<use xlink:href="#SVGID_3_" style="overflow:visible;"/>
		</clipPath>
		<g style="clip-path:url(#SVGID_4_);">
			<path d="M431.8,551L431.8,551c0.9,0.5,2.1,0.2,2.6-0.8c0.5-0.9,0.2-2.1-0.8-2.6l0,0c-0.9-0.5-2.1-0.2-2.6,0.8
				C430.6,549.3,430.9,550.5,431.8,551L431.8,551z M425.2,546.5L425.2,546.5c0.8,0.7,2,0.5,2.7-0.3c0.7-0.8,0.5-2-0.3-2.7l0,0
				c-0.8-0.7-2-0.5-2.7,0.3C424.2,544.7,424.4,545.9,425.2,546.5z M419.4,541L419.4,541c0.7,0.8,1.9,0.9,2.7,0.2
				c0.8-0.7,0.9-1.9,0.2-2.7l0,0c-0.7-0.8-1.9-0.9-2.7-0.2C418.8,539,418.7,540.2,419.4,541z M414.7,534.5L414.7,534.5
				c0.5,0.9,1.7,1.2,2.6,0.7c0.9-0.5,1.2-1.7,0.7-2.6l0,0c-0.5-0.9-1.7-1.2-2.6-0.7C414.4,532.5,414.2,533.6,414.7,534.5z
				 M411.2,527.4L411.2,527.4c0.4,1,1.5,1.5,2.5,1.1c1-0.4,1.5-1.5,1.1-2.5l0,0c-0.4-1-1.5-1.5-2.5-1.1
				C411.3,525.3,410.8,526.4,411.2,527.4z M409,519.7L409,519.7c0.2,1,1.2,1.7,2.2,1.5c1-0.2,1.7-1.2,1.5-2.2l0,0
				c-0.2-1-1.2-1.7-2.2-1.5C409.5,517.6,408.8,518.6,409,519.7z M408.2,511.7L408.2,511.7c0,1.1,0.9,1.9,1.9,1.9
				c1.1,0,1.9-0.9,1.9-1.9l0,0c0-1.1-0.9-1.9-1.9-1.9C409,509.8,408.2,510.7,408.2,511.7z M407.6,504.3L407.6,504.3
				c0.2,1,1.2,1.8,2.2,1.6c1-0.2,1.8-1.2,1.6-2.2c0,0,0,0,0,0c-0.2-1-1.2-1.8-2.2-1.6C408.2,502.3,407.5,503.3,407.6,504.3
				L407.6,504.3z M405.8,497.2L405.8,497.2c0.3,1,1.4,1.5,2.4,1.2c1-0.3,1.5-1.4,1.2-2.4l0,0c-0.3-1-1.4-1.5-2.4-1.2
				S405.5,496.2,405.8,497.2z M402.8,490.6L402.8,490.6c0.5,0.9,1.7,1.3,2.6,0.7c0.9-0.5,1.3-1.7,0.7-2.6l0,0
				c-0.5-0.9-1.7-1.3-2.6-0.7C402.6,488.5,402.3,489.6,402.8,490.6L402.8,490.6z M398.7,484.5L398.7,484.5c0.7,0.8,1.9,0.9,2.7,0.3
				c0.8-0.7,0.9-1.9,0.3-2.7l0,0c-0.7-0.8-1.9-0.9-2.7-0.3C398.1,482.5,398,483.7,398.7,484.5z M393.6,479.3L393.6,479.3
				c0.8,0.7,2,0.6,2.7-0.2c0.7-0.8,0.6-2-0.2-2.7l0,0c-0.8-0.7-2-0.6-2.7,0.2C392.7,477.4,392.8,478.6,393.6,479.3z M387.6,475
				L387.6,475c0.9,0.5,2.1,0.2,2.6-0.7c0.5-0.9,0.2-2.1-0.7-2.6l0,0c-0.9-0.5-2.1-0.2-2.6,0.7C386.4,473.3,386.7,474.5,387.6,475
				L387.6,475z M381,471.9L381,471.9c1,0.4,2.1-0.1,2.5-1.1c0.4-1-0.1-2.1-1.1-2.5l0,0c-1-0.4-2.1,0.1-2.5,1.1
				C379.5,470.4,380,471.5,381,471.9z" style="fill-rule:evenodd;clip-rule:evenodd;fill:#FF2E93;"/>
			<path d="M390.3,551L390.3,551c0.9,0.5,2.1,0.2,2.6-0.8c0.5-0.9,0.2-2.1-0.8-2.6l0,0c-0.9-0.5-2.1-0.2-2.6,0.8
				C389,549.3,389.4,550.5,390.3,551L390.3,551z M383.6,546.5L383.6,546.5c0.8,0.7,2,0.5,2.7-0.3c0.7-0.8,0.5-2-0.3-2.7l0,0
				c-0.8-0.7-2-0.5-2.7,0.3C382.7,544.7,382.8,545.9,383.6,546.5L383.6,546.5z M377.9,541L377.9,541c0.7,0.8,1.9,0.9,2.7,0.2
				c0.8-0.7,0.9-1.9,0.2-2.7l0,0c-0.7-0.8-1.9-0.9-2.7-0.2C377.3,539,377.2,540.2,377.9,541z M373.2,534.5L373.2,534.5
				c0.5,0.9,1.7,1.2,2.6,0.7c0.9-0.5,1.2-1.7,0.7-2.6l0,0c-0.5-0.9-1.7-1.2-2.6-0.7C372.9,532.5,372.6,533.6,373.2,534.5z
				 M369.6,527.4L369.6,527.4c0.4,1,1.5,1.5,2.5,1.1c1-0.4,1.5-1.5,1.1-2.5l0,0c-0.4-1-1.5-1.5-2.5-1.1
				C369.8,525.3,369.3,526.4,369.6,527.4z M367.4,519.7L367.4,519.7c0.2,1,1.2,1.7,2.2,1.5c1-0.2,1.7-1.2,1.5-2.2l0,0
				c-0.2-1-1.2-1.7-2.2-1.5C367.9,517.6,367.2,518.6,367.4,519.7z M366.6,511.7L366.6,511.7c0,1.1,0.9,1.9,1.9,1.9
				c1.1,0,1.9-0.9,1.9-1.9l0,0c0-1.1-0.9-1.9-1.9-1.9C367.5,509.8,366.6,510.7,366.6,511.7z M366.1,504.3L366.1,504.3
				c0.2,1,1.2,1.8,2.2,1.6c1-0.2,1.8-1.2,1.6-2.2c0,0,0,0,0,0c-0.2-1-1.2-1.8-2.2-1.6C366.6,502.3,365.9,503.3,366.1,504.3
				L366.1,504.3z M364.3,497.2L364.3,497.2c0.3,1,1.4,1.5,2.4,1.2c1-0.3,1.5-1.4,1.2-2.4l0,0c-0.3-1-1.4-1.5-2.4-1.2
				C364.5,495.2,364,496.2,364.3,497.2z M361.3,490.6L361.3,490.6c0.5,0.9,1.7,1.3,2.6,0.7c0.9-0.5,1.3-1.7,0.7-2.6l0,0
				c-0.5-0.9-1.7-1.3-2.6-0.7C361.1,488.5,360.8,489.6,361.3,490.6L361.3,490.6z M357.2,484.5L357.2,484.5c0.7,0.8,1.9,0.9,2.7,0.3
				c0.8-0.7,0.9-1.9,0.3-2.7l0,0c-0.7-0.8-1.9-0.9-2.7-0.3C356.6,482.5,356.5,483.7,357.2,484.5z M352,479.3L352,479.3
				c0.8,0.7,2,0.6,2.7-0.2c0.7-0.8,0.6-2-0.2-2.7l0,0c-0.8-0.7-2-0.6-2.7,0.2C351.1,477.4,351.2,478.6,352,479.3z" style="fill-rule:evenodd;clip-rule:evenodd;fill:#FF2E93;"/>
		</g>
	</g>
	<path d="M270.8,268.4c21.6,0.1,39.1,17.7,39.1,39.4v181.9c0,15.2-12.4,27.6-27.6,27.6c-20.7,0-37.5,16.8-37.5,37.5
		c0,24.1,19.6,43.7,43.7,43.7h-57.3v-84.6c8.6-4.7,14.4-13.8,14.4-24.2V307.7c0-8.4-2.7-16.3-7.2-22.7c7.1-10.1,18.9-16.7,32.2-16.7
		L270.8,268.4L270.8,268.4z" style="fill-rule:evenodd;clip-rule:evenodd;fill:#142664;"/>
	<g>
		<defs>
			<path id="SVGID_5_" d="M270.8,268.4c21.6,0.1,39.1,17.7,39.1,39.4v181.9c0,15.2-12.4,27.6-27.6,27.6c-20.7,0-37.5,16.8-37.5,37.5
				c0,24.1,19.6,43.7,43.7,43.7h-57.3v-84.6c8.6-4.7,14.4-13.8,14.4-24.2V307.7c0-8.4-2.7-16.3-7.2-22.7
				c7.1-10.1,18.9-16.7,32.2-16.7L270.8,268.4L270.8,268.4z"/>
		</defs>
		<clipPath id="SVGID_6_">
			<use xlink:href="#SVGID_5_" style="overflow:visible;"/>
		</clipPath>
		<g style="clip-path:url(#SVGID_6_);">
			<path d="M262.9,597.5L262.9,597.5c1,0.4,2.1-0.1,2.5-1.1s-0.1-2.1-1.1-2.5l0,0c-1-0.4-2.1,0.1-2.5,1.1
				S261.9,597.1,262.9,597.5z M255.6,594.1L255.6,594.1c0.9,0.5,2.1,0.2,2.6-0.7s0.2-2.1-0.7-2.6l0,0c-0.9-0.5-2.1-0.2-2.6,0.7
				C254.4,592.4,254.7,593.5,255.6,594.1z M249.1,589.4L249.1,589.4c0.8,0.7,2,0.6,2.7-0.2c0.7-0.8,0.6-2-0.2-2.7l0,0
				c-0.8-0.7-2-0.6-2.7,0.2C248.2,587.5,248.3,588.7,249.1,589.4z M243.5,583.7L243.5,583.7c0.7,0.8,1.9,0.9,2.7,0.3
				c0.8-0.7,0.9-1.9,0.3-2.7l0,0c-0.7-0.8-1.9-0.9-2.7-0.3C243,581.7,242.8,582.9,243.5,583.7z M239,577.1L239,577.1
				c0.5,0.9,1.7,1.2,2.6,0.7c0.9-0.5,1.2-1.7,0.7-2.6l0,0c-0.5-0.9-1.7-1.2-2.6-0.7C238.8,575.1,238.5,576.2,239,577.1L239,577.1z
				 M235.7,569.9L235.7,569.9c0.4,1,1.4,1.5,2.4,1.2c1-0.4,1.5-1.4,1.2-2.4l0,0c-0.4-1-1.4-1.5-2.4-1.2
				C235.8,567.8,235.3,568.9,235.7,569.9L235.7,569.9z M233.7,562.1L233.7,562.1c0.2,1,1.2,1.8,2.2,1.6c1-0.2,1.8-1.2,1.6-2.2l0,0
				c-0.2-1-1.2-1.8-2.2-1.6C234.2,560.1,233.5,561.1,233.7,562.1z M233.1,554.1L233.1,554.1c0,1.1,0.8,1.9,1.9,1.9
				c1.1,0,1.9-0.8,1.9-1.9l0,0c0-1.1-0.8-1.9-1.9-1.9C234,552.2,233.1,553.1,233.1,554.1z M234,546.2L234,546.2
				c-0.2,1,0.4,2.1,1.5,2.3c1,0.2,2.1-0.4,2.3-1.5l0,0c0.2-1-0.4-2.1-1.5-2.3C235.3,544.5,234.2,545.1,234,546.2z M236.5,538.5
				L236.5,538.5c-0.4,1,0,2.1,1,2.5c1,0.4,2.1,0,2.5-1l0,0c0.4-1,0-2.1-1-2.5C238.1,537.1,237,537.5,236.5,538.5z M240.6,531.6
				C240.6,531.6,240.6,531.6,240.6,531.6c-0.6,0.9-0.4,2.1,0.4,2.7c0.9,0.6,2.1,0.4,2.7-0.4l0,0c0.6-0.9,0.4-2.1-0.4-2.7
				C242.4,530.5,241.2,530.7,240.6,531.6z M246,525.6L246,525.6c-0.8,0.7-0.8,1.9-0.1,2.7c0.7,0.8,1.9,0.8,2.7,0.1l0,0
				c0.8-0.7,0.8-1.9,0.1-2.7C248,524.9,246.7,524.8,246,525.6L246,525.6z M252.4,520.8L252.4,520.8c-0.9,0.5-1.2,1.7-0.7,2.6
				c0.5,0.9,1.7,1.2,2.6,0.7l0,0c0.9-0.5,1.2-1.7,0.7-2.6C254.5,520.5,253.3,520.2,252.4,520.8L252.4,520.8z M259.7,517.4
				L259.7,517.4c-1,0.3-1.5,1.4-1.2,2.4c0.3,1,1.4,1.5,2.4,1.2l0,0c1-0.3,1.5-1.4,1.2-2.4C261.8,517.6,260.7,517.1,259.7,517.4
				L259.7,517.4z M288.3,509.8L288.3,509.8c-0.8,0.7-1,1.9-0.3,2.7c0.7,0.8,1.9,1,2.7,0.3l0,0c0.8-0.7,1-1.9,0.3-2.7
				C290.3,509.3,289.1,509.2,288.3,509.8z M293.3,504.7L293.3,504.7c-0.6,0.9-0.4,2.1,0.4,2.7c0.9,0.6,2.1,0.4,2.7-0.4l0,0
				c0.6-0.9,0.4-2.1-0.4-2.7C295.1,503.7,293.9,503.8,293.3,504.7z M296.6,498.4L296.6,498.4c-0.4,1,0.1,2.1,1.1,2.5
				c1,0.4,2.1-0.1,2.5-1.1l0,0c0.4-1-0.1-2.1-1.1-2.5C298.1,496.9,297,497.4,296.6,498.4z M298.1,491.5L298.1,491.5
				c-0.1,1.1,0.7,2,1.8,2.1c1.1,0.1,2-0.7,2.1-1.8l0,0c0.1-1.1-0.7-2-1.8-2.1C299.1,489.6,298.2,490.4,298.1,491.5L298.1,491.5z
				 M298.2,483.9L298.2,483.9c0,1.1,0.9,1.9,1.9,1.9c1.1,0,1.9-0.9,1.9-1.9l0,0c0-1.1-0.9-1.9-1.9-1.9
				C299,482,298.2,482.9,298.2,483.9z M298.2,476.3L298.2,476.3c0,1.1,0.9,1.9,1.9,1.9c1.1,0,1.9-0.9,1.9-1.9l0,0
				c0-1.1-0.9-1.9-1.9-1.9C299,474.4,298.2,475.2,298.2,476.3z M298.2,468.6L298.2,468.6c0,1.1,0.9,1.9,1.9,1.9
				c1.1,0,1.9-0.9,1.9-1.9l0,0c0-1.1-0.9-1.9-1.9-1.9C299,466.7,298.2,467.5,298.2,468.6z M298.2,460.9L298.2,460.9
				c0,1.1,0.9,1.9,1.9,1.9c1.1,0,1.9-0.9,1.9-1.9l0,0c0-1.1-0.9-1.9-1.9-1.9C299,459,298.2,459.9,298.2,460.9z M298.2,453.3
				L298.2,453.3c0,1.1,0.9,1.9,1.9,1.9c1.1,0,1.9-0.9,1.9-1.9l0,0c0-1.1-0.9-1.9-1.9-1.9C299,451.3,298.2,452.2,298.2,453.3z
				 M298.2,445.6L298.2,445.6c0,1.1,0.9,1.9,1.9,1.9c1.1,0,1.9-0.9,1.9-1.9l0,0c0-1.1-0.9-1.9-1.9-1.9
				C299,443.7,298.2,444.5,298.2,445.6z M298.2,437.9L298.2,437.9c0,1.1,0.9,1.9,1.9,1.9c1.1,0,1.9-0.9,1.9-1.9l0,0
				c0-1.1-0.9-1.9-1.9-1.9C299,436,298.2,436.9,298.2,437.9z M298.2,430.3L298.2,430.3c0,1.1,0.9,1.9,1.9,1.9c1.1,0,1.9-0.9,1.9-1.9
				l0,0c0-1.1-0.9-1.9-1.9-1.9C299,428.3,298.2,429.2,298.2,430.3z M298.2,422.6L298.2,422.6c0,1.1,0.9,1.9,1.9,1.9
				c1.1,0,1.9-0.9,1.9-1.9l0,0c0-1.1-0.9-1.9-1.9-1.9C299,420.7,298.2,421.5,298.2,422.6z M298.2,414.9L298.2,414.9
				c0,1.1,0.9,1.9,1.9,1.9c1.1,0,1.9-0.9,1.9-1.9l0,0c0-1.1-0.9-1.9-1.9-1.9C299,413,298.2,413.9,298.2,414.9z M298.2,407.2
				L298.2,407.2c0,1.1,0.9,1.9,1.9,1.9c1.1,0,1.9-0.9,1.9-1.9l0,0c0-1.1-0.9-1.9-1.9-1.9C299,405.3,298.2,406.2,298.2,407.2z
				 M298.2,399.6L298.2,399.6c0,1.1,0.9,1.9,1.9,1.9c1.1,0,1.9-0.9,1.9-1.9l0,0c0-1.1-0.9-1.9-1.9-1.9
				C299,397.7,298.2,398.5,298.2,399.6z M298.2,391.9L298.2,391.9c0,1.1,0.9,1.9,1.9,1.9c1.1,0,1.9-0.9,1.9-1.9l0,0
				c0-1.1-0.9-1.9-1.9-1.9C299,390,298.2,390.8,298.2,391.9z M298.2,384.2L298.2,384.2c0,1.1,0.9,1.9,1.9,1.9c1.1,0,1.9-0.9,1.9-1.9
				l0,0c0-1.1-0.9-1.9-1.9-1.9C299,382.3,298.2,383.2,298.2,384.2z M298.2,376.6L298.2,376.6c0,1.1,0.9,1.9,1.9,1.9
				c1.1,0,1.9-0.9,1.9-1.9l0,0c0-1.1-0.9-1.9-1.9-1.9C299,374.6,298.2,375.5,298.2,376.6z M298.2,368.9L298.2,368.9
				c0,1.1,0.9,1.9,1.9,1.9c1.1,0,1.9-0.9,1.9-1.9l0,0c0-1.1-0.9-1.9-1.9-1.9C299,367,298.2,367.8,298.2,368.9z M298.2,361.2
				L298.2,361.2c0,1.1,0.9,1.9,1.9,1.9c1.1,0,1.9-0.9,1.9-1.9l0,0c0-1.1-0.9-1.9-1.9-1.9C299,359.3,298.2,360.2,298.2,361.2z
				 M298.2,353.5L298.2,353.5c0,1.1,0.9,1.9,1.9,1.9c1.1,0,1.9-0.9,1.9-1.9l0,0c0-1.1-0.9-1.9-1.9-1.9
				C299,351.6,298.2,352.5,298.2,353.5z M298.2,345.9L298.2,345.9c0,1.1,0.9,1.9,1.9,1.9c1.1,0,1.9-0.9,1.9-1.9l0,0
				c0-1.1-0.9-1.9-1.9-1.9C299,344,298.2,344.8,298.2,345.9z M298.2,338.2L298.2,338.2c0,1.1,0.9,1.9,1.9,1.9c1.1,0,1.9-0.9,1.9-1.9
				l0,0c0-1.1-0.9-1.9-1.9-1.9C299,336.3,298.2,337.2,298.2,338.2z M298.2,330.5L298.2,330.5c0,1.1,0.9,1.9,1.9,1.9
				c1.1,0,1.9-0.9,1.9-1.9v0c0-1.1-0.9-1.9-1.9-1.9C299,328.6,298.2,329.5,298.2,330.5z M298.2,322.9L298.2,322.9
				c0,1.1,0.9,1.9,1.9,1.9c1.1,0,1.9-0.9,1.9-1.9l0,0c0-1.1-0.9-1.9-1.9-1.9C299,321,298.2,321.8,298.2,322.9z M298.2,315.2
				L298.2,315.2c0,1.1,0.9,1.9,1.9,1.9c1.1,0,1.9-0.9,1.9-1.9l0,0c0-1.1-0.9-1.9-1.9-1.9C299,313.3,298.2,314.1,298.2,315.2z
				 M298.2,307.5L298.2,307.5c0,1.1,0.9,1.9,1.9,1.9c1.1,0,1.9-0.9,1.9-1.9l0,0c0-1.1-0.9-1.9-1.9-1.9
				C299,305.6,298.2,306.5,298.2,307.5z M297.4,300.3L297.4,300.3c0.2,1,1.2,1.7,2.3,1.5c1-0.2,1.7-1.2,1.5-2.3l0,0
				c-0.2-1-1.2-1.7-2.3-1.5C297.9,298.2,297.2,299.3,297.4,300.3z M295.3,293.3L295.3,293.3c0.4,1,1.5,1.4,2.5,1
				c1-0.4,1.4-1.5,1-2.5l0,0c-0.4-1-1.5-1.4-2.5-1C295.3,291.2,294.9,292.3,295.3,293.3z M291.8,286.9L291.8,286.9
				c0.6,0.9,1.8,1.1,2.7,0.5c0.9-0.6,1.1-1.8,0.5-2.7l0,0c-0.6-0.9-1.8-1.1-2.7-0.5C291.5,284.8,291.3,286,291.8,286.9z
				 M287.2,281.3L287.2,281.3c0.7,0.7,2,0.7,2.7,0s0.7-2,0-2.7l0,0c-0.7-0.7-2-0.7-2.7,0S286.5,280.5,287.2,281.3z M281.6,276.6
				L281.6,276.6c0.9,0.6,2.1,0.4,2.7-0.5c0.6-0.9,0.4-2.1-0.5-2.7l0,0c-0.9-0.6-2.1-0.4-2.7,0.5
				C280.5,274.9,280.7,276.1,281.6,276.6z M275.2,273.2L275.2,273.2c1,0.4,2.1-0.1,2.5-1c0.4-1-0.1-2.1-1-2.5l0,0
				c-1-0.4-2.1,0.1-2.5,1C273.7,271.7,274.2,272.8,275.2,273.2L275.2,273.2z" style="fill-rule:evenodd;clip-rule:evenodd;fill:#FF2E93;"/>
			<path d="M236.7,513.4L236.7,513.4c-1,0.4-1.5,1.5-1.1,2.5c0.4,1,1.5,1.5,2.5,1.1l0,0c1-0.4,1.5-1.5,1.1-2.5
				C238.8,513.5,237.7,513,236.7,513.4z M242.8,509.8L242.8,509.8c-0.8,0.7-1,1.9-0.3,2.7c0.7,0.8,1.9,1,2.7,0.3l0,0
				c0.8-0.7,1-1.9,0.3-2.7C244.9,509.3,243.7,509.2,242.8,509.8L242.8,509.8z M247.8,504.7L247.8,504.7c-0.6,0.9-0.4,2.1,0.4,2.7
				c0.9,0.6,2.1,0.4,2.7-0.4l0,0c0.6-0.9,0.4-2.1-0.4-2.7C249.6,503.7,248.4,503.8,247.8,504.7z M251.1,498.4L251.1,498.4
				c-0.4,1,0.1,2.1,1.1,2.5c1,0.4,2.1-0.1,2.5-1.1l0,0c0.4-1-0.1-2.1-1.1-2.5C252.6,496.9,251.5,497.4,251.1,498.4z M252.6,491.5
				L252.6,491.5c-0.1,1.1,0.7,2,1.8,2.1c1.1,0.1,2-0.7,2.1-1.8l0,0c0.1-1.1-0.7-2-1.8-2.1C253.6,489.6,252.7,490.4,252.6,491.5
				L252.6,491.5z M252.7,483.9L252.7,483.9c0,1.1,0.9,1.9,1.9,1.9s1.9-0.9,1.9-1.9l0,0c0-1.1-0.9-1.9-1.9-1.9
				S252.7,482.9,252.7,483.9z M252.7,476.3L252.7,476.3c0,1.1,0.9,1.9,1.9,1.9s1.9-0.9,1.9-1.9l0,0c0-1.1-0.9-1.9-1.9-1.9
				S252.7,475.2,252.7,476.3z M252.7,468.6L252.7,468.6c0,1.1,0.9,1.9,1.9,1.9s1.9-0.9,1.9-1.9l0,0c0-1.1-0.9-1.9-1.9-1.9
				S252.7,467.5,252.7,468.6z M252.7,460.9L252.7,460.9c0,1.1,0.9,1.9,1.9,1.9s1.9-0.9,1.9-1.9l0,0c0-1.1-0.9-1.9-1.9-1.9
				S252.7,459.9,252.7,460.9z M252.7,453.3L252.7,453.3c0,1.1,0.9,1.9,1.9,1.9s1.9-0.9,1.9-1.9l0,0c0-1.1-0.9-1.9-1.9-1.9
				S252.7,452.2,252.7,453.3z M252.7,445.6L252.7,445.6c0,1.1,0.9,1.9,1.9,1.9s1.9-0.9,1.9-1.9l0,0c0-1.1-0.9-1.9-1.9-1.9
				S252.7,444.5,252.7,445.6z M252.7,437.9L252.7,437.9c0,1.1,0.9,1.9,1.9,1.9s1.9-0.9,1.9-1.9l0,0c0-1.1-0.9-1.9-1.9-1.9
				S252.7,436.9,252.7,437.9z M252.7,430.3L252.7,430.3c0,1.1,0.9,1.9,1.9,1.9s1.9-0.9,1.9-1.9l0,0c0-1.1-0.9-1.9-1.9-1.9
				S252.7,429.2,252.7,430.3z M252.7,422.6L252.7,422.6c0,1.1,0.9,1.9,1.9,1.9s1.9-0.9,1.9-1.9l0,0c0-1.1-0.9-1.9-1.9-1.9
				S252.7,421.5,252.7,422.6z M252.7,414.9L252.7,414.9c0,1.1,0.9,1.9,1.9,1.9s1.9-0.9,1.9-1.9l0,0c0-1.1-0.9-1.9-1.9-1.9
				S252.7,413.9,252.7,414.9z M252.7,407.2L252.7,407.2c0,1.1,0.9,1.9,1.9,1.9s1.9-0.9,1.9-1.9l0,0c0-1.1-0.9-1.9-1.9-1.9
				S252.7,406.2,252.7,407.2z M252.7,399.6L252.7,399.6c0,1.1,0.9,1.9,1.9,1.9s1.9-0.9,1.9-1.9l0,0c0-1.1-0.9-1.9-1.9-1.9
				S252.7,398.5,252.7,399.6z M252.7,391.9L252.7,391.9c0,1.1,0.9,1.9,1.9,1.9s1.9-0.9,1.9-1.9l0,0c0-1.1-0.9-1.9-1.9-1.9
				S252.7,390.8,252.7,391.9z M252.7,384.2L252.7,384.2c0,1.1,0.9,1.9,1.9,1.9s1.9-0.9,1.9-1.9l0,0c0-1.1-0.9-1.9-1.9-1.9
				S252.7,383.2,252.7,384.2z M252.7,376.6L252.7,376.6c0,1.1,0.9,1.9,1.9,1.9s1.9-0.9,1.9-1.9l0,0c0-1.1-0.9-1.9-1.9-1.9
				S252.7,375.5,252.7,376.6z M252.7,368.9L252.7,368.9c0,1.1,0.9,1.9,1.9,1.9s1.9-0.9,1.9-1.9l0,0c0-1.1-0.9-1.9-1.9-1.9
				S252.7,367.8,252.7,368.9z M252.7,361.2L252.7,361.2c0,1.1,0.9,1.9,1.9,1.9s1.9-0.9,1.9-1.9l0,0c0-1.1-0.9-1.9-1.9-1.9
				S252.7,360.2,252.7,361.2z M252.7,353.5L252.7,353.5c0,1.1,0.9,1.9,1.9,1.9s1.9-0.9,1.9-1.9l0,0c0-1.1-0.9-1.9-1.9-1.9
				S252.7,352.5,252.7,353.5z M252.7,345.9L252.7,345.9c0,1.1,0.9,1.9,1.9,1.9s1.9-0.9,1.9-1.9l0,0c0-1.1-0.9-1.9-1.9-1.9
				S252.7,344.8,252.7,345.9z M252.7,338.2L252.7,338.2c0,1.1,0.9,1.9,1.9,1.9s1.9-0.9,1.9-1.9l0,0c0-1.1-0.9-1.9-1.9-1.9
				S252.7,337.1,252.7,338.2z M252.7,330.5L252.7,330.5c0,1.1,0.9,1.9,1.9,1.9s1.9-0.9,1.9-1.9v0c0-1.1-0.9-1.9-1.9-1.9
				S252.7,329.5,252.7,330.5z M252.7,322.9L252.7,322.9c0,1.1,0.9,1.9,1.9,1.9s1.9-0.9,1.9-1.9l0,0c0-1.1-0.9-1.9-1.9-1.9
				S252.7,321.8,252.7,322.9z M252.7,315.2L252.7,315.2c0,1.1,0.9,1.9,1.9,1.9s1.9-0.9,1.9-1.9l0,0c0-1.1-0.9-1.9-1.9-1.9
				S252.7,314.1,252.7,315.2z M252.7,307.5L252.7,307.5c0,1.1,0.9,1.9,1.9,1.9c1.1,0,1.9-0.9,1.9-1.9l0,0c0-1.1-0.9-1.9-1.9-1.9
				C253.5,305.6,252.7,306.5,252.7,307.5z M252,300.3L252,300.3c0.2,1,1.2,1.7,2.3,1.5c1-0.2,1.7-1.2,1.5-2.3l0,0
				c-0.2-1-1.2-1.7-2.3-1.5C252.4,298.2,251.7,299.3,252,300.3z M249.8,293.3L249.8,293.3c0.4,1,1.5,1.4,2.5,1c1-0.4,1.4-1.5,1-2.5
				l0,0c-0.4-1-1.5-1.4-2.5-1C249.9,291.2,249.4,292.3,249.8,293.3L249.8,293.3z M246.4,286.9L246.4,286.9c0.6,0.9,1.8,1.1,2.7,0.5
				c0.9-0.6,1.1-1.8,0.5-2.7l0,0c-0.6-0.9-1.8-1.1-2.7-0.5C246,284.8,245.8,286,246.4,286.9z" style="fill-rule:evenodd;clip-rule:evenodd;fill:#FF2E93;"/>
		</g>
	</g>
	<path d="M309.9,467.6c1.7-0.2,3.4-0.3,5.2-0.3h60.8c-24.1,0-43.7,19.6-43.7,43.7v43.7c0,24.1-19.6,43.7-43.7,43.7h-0.3
		l-0.1,0l-0.2,0l-0.1,0l-0.2,0l-0.1,0l-0.2,0l-0.1,0l-0.2,0l-0.1,0l-0.2,0l-0.1,0l-0.1,0l-0.1,0l-0.1,0l-0.1,0l-0.1,0l-0.1,0l-0.1,0
		l-0.1,0l-0.1,0l-0.1,0l-0.1,0l-0.1,0l-0.1,0l-0.1,0l-0.1,0l-0.1,0l-0.1,0l-0.1,0l-0.1,0l-0.1,0l-0.1,0l-0.1,0l-0.1,0l-0.1,0l-0.1,0
		l-0.1,0l-0.1,0l-0.1,0l-0.1,0l-0.1,0l-0.1,0l-0.1,0l-0.1,0l-0.1,0l-0.1,0l-0.1,0l-0.1,0l-0.1,0l-0.1,0l-0.1,0l-0.1,0l-0.1,0l-0.1,0
		l-0.1,0l-0.1,0l-0.1,0l-0.1,0l-0.1,0l-0.1,0l-0.1,0l-0.1,0l-0.1,0l-0.1,0l-0.1,0l-0.1,0l-0.1,0l-0.1,0l-0.1,0l-0.1,0l-0.1,0l-0.1,0
		l-0.1,0l-0.1,0l-0.1,0l-0.1,0l-0.1,0l-0.1,0l-0.1,0l-0.1,0l-0.1,0l-0.1,0l-0.1,0l-0.1,0l-0.1,0l-0.1,0l-0.2,0l-0.1,0l-0.2,0l-0.1,0
		l-0.2,0l-0.1,0l-0.2-0.1l0,0c-0.4-0.1-0.8-0.3-1.2-0.4l0,0l-0.2-0.1l-0.1,0l-0.2-0.1l-0.1,0l-0.2-0.1l-0.1,0l-0.2-0.1l-0.1,0
		l-0.2-0.1l-0.1,0l-0.2-0.1l-0.1,0l-0.2-0.1l-0.1,0l-0.2-0.1l-0.1,0l-0.2-0.1l-0.1,0l-0.2-0.1l-0.1,0l-0.2-0.1l-0.1,0l-0.2-0.1
		l-0.1,0l-0.2-0.1l-0.1,0l-0.2-0.1l-0.1,0l-0.2-0.1l-0.1,0l-0.2-0.1l-0.1,0l-0.2-0.1l-0.1,0l-0.2-0.1l-0.1,0l-0.2-0.1l-0.1,0
		l-0.2-0.1l-0.1,0l-0.2-0.1l-0.1,0l-0.2-0.1l-0.1,0l-0.2-0.1l-0.1,0l-0.2-0.1l-0.1,0l-0.2-0.1l-0.1,0l-0.2-0.1l-0.1,0l-0.2-0.1
		l-0.1,0l-0.2-0.1l-0.1,0l-0.2-0.1l-0.1,0l-0.2-0.1l0,0l-0.2-0.1l0,0l-0.2-0.1l0,0l-0.2-0.1l0,0l-0.2-0.1l0,0l-0.2-0.1l0,0l-0.2-0.1
		l0,0l-0.2-0.1c-2.4-1.4-4.6-3.1-6.6-4.9l-0.2-0.2l-0.2-0.2l-0.2-0.2l-0.2-0.2l-0.2-0.2l-0.2-0.2c8.2-7.9,13.3-19.1,13.3-31.4v-35.9
		c3.5-1.1,7.1-1.6,10.9-1.6c15.2,0,27.6-12.4,27.6-27.6L309.9,467.6L309.9,467.6z" style="fill-rule:evenodd;clip-rule:evenodd;fill:#00E6B3;"/>
	<g>
		<defs>
			<path id="SVGID_7_" d="M309.9,467.6c1.7-0.2,3.4-0.3,5.2-0.3h60.8c-24.1,0-43.7,19.6-43.7,43.7v43.7c0,24.1-19.6,43.7-43.7,43.7
				h-0.3l-0.1,0l-0.2,0l-0.1,0l-0.2,0l-0.1,0l-0.2,0l-0.1,0l-0.2,0l-0.1,0l-0.2,0l-0.1,0l-0.1,0l-0.1,0l-0.1,0l-0.1,0l-0.1,0l-0.1,0
				l-0.1,0l-0.1,0l-0.1,0l-0.1,0l-0.1,0l-0.1,0l-0.1,0l-0.1,0l-0.1,0l-0.1,0l-0.1,0l-0.1,0l-0.1,0l-0.1,0l-0.1,0l-0.1,0l-0.1,0
				l-0.1,0l-0.1,0l-0.1,0l-0.1,0l-0.1,0l-0.1,0l-0.1,0l-0.1,0l-0.1,0l-0.1,0l-0.1,0l-0.1,0l-0.1,0l-0.1,0l-0.1,0l-0.1,0l-0.1,0
				l-0.1,0l-0.1,0l-0.1,0l-0.1,0l-0.1,0l-0.1,0l-0.1,0l-0.1,0l-0.1,0l-0.1,0l-0.1,0l-0.1,0l-0.1,0l-0.1,0l-0.1,0l-0.1,0l-0.1,0
				l-0.1,0l-0.1,0l-0.1,0l-0.1,0l-0.1,0l-0.1,0l-0.1,0l-0.1,0l-0.1,0l-0.1,0l-0.1,0l-0.1,0l-0.1,0l-0.1,0l-0.1,0l-0.1,0l-0.1,0
				l-0.1,0l-0.2,0l-0.1,0l-0.2,0l-0.1,0l-0.2,0l-0.1,0l-0.2-0.1l0,0c-0.4-0.1-0.8-0.3-1.2-0.4l0,0l-0.2-0.1l-0.1,0l-0.2-0.1l-0.1,0
				l-0.2-0.1l-0.1,0l-0.2-0.1l-0.1,0l-0.2-0.1l-0.1,0l-0.2-0.1l-0.1,0l-0.2-0.1l-0.1,0l-0.2-0.1l-0.1,0l-0.2-0.1l-0.1,0l-0.2-0.1
				l-0.1,0l-0.2-0.1l-0.1,0l-0.2-0.1l-0.1,0l-0.2-0.1l-0.1,0l-0.2-0.1l-0.1,0l-0.2-0.1l-0.1,0l-0.2-0.1l-0.1,0l-0.2-0.1l-0.1,0
				l-0.2-0.1l-0.1,0l-0.2-0.1l-0.1,0l-0.2-0.1l-0.1,0l-0.2-0.1l-0.1,0l-0.2-0.1l-0.1,0l-0.2-0.1l-0.1,0l-0.2-0.1l-0.1,0l-0.2-0.1
				l-0.1,0l-0.2-0.1l-0.1,0l-0.2-0.1l-0.1,0l-0.2-0.1l-0.1,0l-0.2-0.1l-0.1,0l-0.2-0.1l0,0l-0.2-0.1l0,0l-0.2-0.1l0,0l-0.2-0.1l0,0
				l-0.2-0.1l0,0l-0.2-0.1l0,0l-0.2-0.1l0,0l-0.2-0.1c-2.4-1.4-4.6-3.1-6.6-4.9l-0.2-0.2l-0.2-0.2l-0.2-0.2l-0.2-0.2l-0.2-0.2
				l-0.2-0.2c8.2-7.9,13.3-19.1,13.3-31.4v-35.9c3.5-1.1,7.1-1.6,10.9-1.6c15.2,0,27.6-12.4,27.6-27.6L309.9,467.6L309.9,467.6z"/>
		</defs>
		<clipPath id="SVGID_8_">
			<use xlink:href="#SVGID_7_" style="overflow:visible;"/>
		</clipPath>
		<g style="clip-path:url(#SVGID_8_);">
			<path d="M297.6,592.2L297.6,592.2c-1,0.5-1.3,1.6-0.9,2.6c0.5,1,1.6,1.3,2.6,0.9l0,0c1-0.5,1.3-1.6,0.9-2.6
				C299.7,592.2,298.5,591.8,297.6,592.2z M303.9,588.4L303.9,588.4c-0.9,0.6-1,1.8-0.4,2.7c0.6,0.9,1.8,1,2.7,0.4l0,0
				c0.9-0.6,1-1.8,0.4-2.7C305.9,588,304.7,587.8,303.9,588.4L303.9,588.4z M309.4,583.6L309.4,583.6c-0.7,0.8-0.7,2,0.1,2.7
				c0.8,0.7,2,0.7,2.7-0.1l0,0c0.7-0.8,0.7-2-0.1-2.7C311.3,582.8,310.1,582.8,309.4,583.6z M314,577.9L314,577.9
				c-0.6,0.9-0.4,2.1,0.5,2.7c0.9,0.6,2.1,0.4,2.7-0.5l0,0c0.6-0.9,0.4-2.1-0.5-2.7C315.7,576.8,314.6,577,314,577.9z M317.5,571.5
				L317.5,571.5c-0.4,1,0,2.1,1,2.5c1,0.4,2.1,0,2.5-1l0,0c0.4-1,0-2.1-1-2.5C319.1,570.1,317.9,570.5,317.5,571.5z M319.8,564.5
				L319.8,564.5c-0.2,1,0.4,2.1,1.4,2.3c1,0.2,2.1-0.4,2.3-1.4l0,0c0.2-1-0.4-2.1-1.4-2.3C321.1,562.9,320.1,563.5,319.8,564.5z
				 M320.9,557.3L320.9,557.3c-0.1,1.1,0.7,2,1.8,2c1.1,0.1,2-0.7,2-1.8l0,0c0.1-1.1-0.7-2-1.8-2C321.9,555.4,321,556.2,320.9,557.3
				z M321,549.8L321,549.8c0,1.1,0.9,1.9,1.9,1.9c1.1,0,1.9-0.9,1.9-1.9l0,0c0-1.1-0.9-1.9-1.9-1.9C321.9,547.8,321,548.7,321,549.8
				z M321,542.1L321,542.1c0,1.1,0.9,1.9,1.9,1.9c1.1,0,1.9-0.9,1.9-1.9l0,0c0-1.1-0.9-1.9-1.9-1.9C321.9,540.2,321,541,321,542.1z
				 M321,534.4L321,534.4c0,1.1,0.9,1.9,1.9,1.9c1.1,0,1.9-0.9,1.9-1.9l0,0c0-1.1-0.9-1.9-1.9-1.9C321.9,532.5,321,533.4,321,534.4z
				 M321,526.7L321,526.7c0,1.1,0.9,1.9,1.9,1.9c1.1,0,1.9-0.9,1.9-1.9l0,0c0-1.1-0.9-1.9-1.9-1.9C321.9,524.8,321,525.7,321,526.7z
				 M321,519.1L321,519.1c0,1.1,0.9,1.9,1.9,1.9c1.1,0,1.9-0.9,1.9-1.9l0,0c0-1.1-0.9-1.9-1.9-1.9C321.9,517.2,321,518,321,519.1z
				 M321,511.4L321,511.4c0,1.1,0.9,1.9,1.9,1.9c1.1,0,1.9-0.9,1.9-1.9l0,0c0-1.1-0.9-1.9-1.9-1.9C321.9,509.5,321,510.3,321,511.4z
				 M321.6,503.4L321.6,503.4c-0.2,1,0.5,2,1.6,2.2c1,0.2,2-0.5,2.2-1.6l0,0c0.2-1-0.5-2-1.6-2.2
				C322.8,501.7,321.8,502.4,321.6,503.4z M323.6,495.7L323.6,495.7c-0.4,1,0.2,2.1,1.2,2.4c1,0.4,2.1-0.2,2.4-1.2l0,0
				c0.4-1-0.2-2.1-1.2-2.4C325.1,494.2,324,494.7,323.6,495.7z M327,488.4L327,488.4c-0.5,0.9-0.2,2.1,0.7,2.6
				c0.9,0.5,2.1,0.2,2.6-0.7l0,0c0.5-0.9,0.2-2.1-0.7-2.6C328.7,487.2,327.5,487.5,327,488.4z M331.5,481.9L331.5,481.9
				c-0.7,0.8-0.6,2,0.2,2.7c0.8,0.7,2,0.6,2.7-0.2l0,0c0.7-0.8,0.6-2-0.2-2.7C333.4,480.9,332.2,481.1,331.5,481.9L331.5,481.9z
				 M337.2,476.2L337.2,476.2c-0.8,0.7-0.9,1.9-0.2,2.7c0.7,0.8,1.9,0.9,2.7,0.2l0,0c0.8-0.7,0.9-1.9,0.2-2.7
				C339.2,475.6,338,475.5,337.2,476.2z M343.7,471.6L343.7,471.6c-0.9,0.5-1.2,1.7-0.7,2.6c0.5,0.9,1.7,1.2,2.6,0.7c0,0,0,0,0,0
				c0.9-0.5,1.2-1.7,0.7-2.6C345.8,471.3,344.6,471,343.7,471.6z M350.9,468.2L350.9,468.2c-1,0.4-1.5,1.5-1.1,2.5
				c0.4,1,1.5,1.5,2.5,1.1l0,0c1-0.4,1.5-1.5,1.1-2.5C353,468.3,351.9,467.8,350.9,468.2z" style="fill-rule:evenodd;clip-rule:evenodd;fill:#142664;"/>
			<path d="M266.5,583.6L266.5,583.6c-0.7,0.8-0.7,2,0.1,2.7c0.8,0.7,2,0.7,2.7-0.1l0,0c0.7-0.8,0.7-2-0.1-2.7
				C268.4,582.8,267.2,582.8,266.5,583.6z M271.1,577.9L271.1,577.9c-0.6,0.9-0.4,2.1,0.5,2.7c0.9,0.6,2.1,0.4,2.7-0.5l0,0
				c0.6-0.9,0.4-2.1-0.5-2.7C272.9,576.8,271.7,577,271.1,577.9z M274.6,571.5L274.6,571.5c-0.4,1,0,2.1,1,2.5c1,0.4,2.1,0,2.5-1
				l0,0c0.4-1,0-2.1-1-2.5C276.2,570.1,275,570.5,274.6,571.5z M277,564.5L277,564.5c-0.2,1,0.4,2.1,1.4,2.3c1,0.2,2.1-0.4,2.3-1.4
				l0,0c0.2-1-0.4-2.1-1.4-2.3C278.2,562.9,277.2,563.5,277,564.5z M278,557.3L278,557.3c-0.1,1.1,0.7,2,1.8,2c1.1,0.1,2-0.7,2-1.8
				l0,0c0.1-1.1-0.7-2-1.8-2C279,555.4,278.1,556.2,278,557.3z M278.1,549.8L278.1,549.8c0,1.1,0.9,1.9,1.9,1.9
				c1.1,0,1.9-0.9,1.9-1.9l0,0c0-1.1-0.9-1.9-1.9-1.9C279,547.8,278.1,548.7,278.1,549.8z M278.1,542.1L278.1,542.1
				c0,1.1,0.9,1.9,1.9,1.9c1.1,0,1.9-0.9,1.9-1.9l0,0c0-1.1-0.9-1.9-1.9-1.9C279,540.2,278.1,541,278.1,542.1z M278.1,534.4
				L278.1,534.4c0,1.1,0.9,1.9,1.9,1.9c1.1,0,1.9-0.9,1.9-1.9l0,0c0-1.1-0.9-1.9-1.9-1.9C279,532.5,278.1,533.4,278.1,534.4z
				 M278.1,526.7L278.1,526.7c0,1.1,0.9,1.9,1.9,1.9c1.1,0,1.9-0.9,1.9-1.9l0,0c0-1.1-0.9-1.9-1.9-1.9
				C279,524.8,278.1,525.7,278.1,526.7z M278.1,519.1L278.1,519.1c0,1.1,0.9,1.9,1.9,1.9c1.1,0,1.9-0.9,1.9-1.9l0,0
				c0-1.1-0.9-1.9-1.9-1.9C279,517.2,278.1,518,278.1,519.1z" style="fill-rule:evenodd;clip-rule:evenodd;fill:#142664;"/>
		</g>
	</g>
	<path d="M185.3,582.8l-14.9,14.9l-14.9-14.9l-13.8,13.8V307.7c0-21.7,17.6-39.4,39.4-39.4h89.6
		c-21.7,0-39.4,17.6-39.4,39.4v321.4c0,12.7-10.3,23-23,23l-0.3,0c-12.5-0.2-22.7-10.4-22.7-23L185.3,582.8L185.3,582.8z" style="fill-rule:evenodd;clip-rule:evenodd;fill:#00E6B3;"/>
	<g>
		<defs>
			<path id="SVGID_9_" d="M185.3,582.8l-14.9,14.9l-14.9-14.9l-13.8,13.8V307.7c0-21.7,17.6-39.4,39.4-39.4h89.6
				c-21.7,0-39.4,17.6-39.4,39.4v321.4c0,12.7-10.3,23-23,23l-0.3,0c-12.5-0.2-22.7-10.4-22.7-23L185.3,582.8L185.3,582.8z"/>
		</defs>
		<clipPath id="SVGID_10_">
			<use xlink:href="#SVGID_9_" style="overflow:visible;"/>
		</clipPath>
		<g style="clip-path:url(#SVGID_10_);">
			<path d="M208.8,647L208.8,647c-0.9,0.6-1.2,1.7-0.6,2.6c0.6,0.9,1.7,1.2,2.6,0.6l0,0c0.9-0.6,1.2-1.7,0.6-2.6
				C210.9,646.7,209.7,646.4,208.8,647z M214.1,642.4L214.1,642.4c-0.7,0.8-0.5,2,0.3,2.7c0.8,0.7,2,0.5,2.7-0.3l0,0
				c0.7-0.8,0.5-2-0.3-2.7C215.9,641.4,214.7,641.6,214.1,642.4L214.1,642.4z M217.5,636.3L217.5,636.3c-0.4,1,0.2,2.1,1.1,2.5
				c1,0.4,2.1-0.2,2.5-1.1l0,0c0.4-1-0.2-2.1-1.1-2.5C219,634.8,217.9,635.3,217.5,636.3z M218.8,629.4L218.8,629.4
				c0,1.1,0.8,1.9,1.9,1.9c1.1,0,1.9-0.8,1.9-1.9l0,0c0-1.1-0.8-1.9-1.9-1.9C219.6,627.5,218.8,628.3,218.8,629.4z M218.8,621.8
				L218.8,621.8c0,1.1,0.9,1.9,1.9,1.9s1.9-0.9,1.9-1.9l0,0c0-1.1-0.9-1.9-1.9-1.9S218.8,620.7,218.8,621.8z M218.8,614.1
				L218.8,614.1c0,1.1,0.9,1.9,1.9,1.9s1.9-0.9,1.9-1.9l0,0c0-1.1-0.9-1.9-1.9-1.9S218.8,613,218.8,614.1z M218.8,606.4L218.8,606.4
				c0,1.1,0.9,1.9,1.9,1.9s1.9-0.9,1.9-1.9l0,0c0-1.1-0.9-1.9-1.9-1.9S218.8,605.4,218.8,606.4z M218.8,598.7L218.8,598.7
				c0,1.1,0.9,1.9,1.9,1.9s1.9-0.9,1.9-1.9l0,0c0-1.1-0.9-1.9-1.9-1.9S218.8,597.7,218.8,598.7z M218.8,591.1L218.8,591.1
				c0,1.1,0.9,1.9,1.9,1.9s1.9-0.9,1.9-1.9l0,0c0-1.1-0.9-1.9-1.9-1.9S218.8,590,218.8,591.1z M218.8,583.4L218.8,583.4
				c0,1.1,0.9,1.9,1.9,1.9s1.9-0.9,1.9-1.9l0,0c0-1.1-0.9-1.9-1.9-1.9S218.8,582.3,218.8,583.4z M218.8,575.7L218.8,575.7
				c0,1.1,0.9,1.9,1.9,1.9s1.9-0.9,1.9-1.9l0,0c0-1.1-0.9-1.9-1.9-1.9S218.8,574.7,218.8,575.7z M218.8,568.1L218.8,568.1
				c0,1.1,0.9,1.9,1.9,1.9s1.9-0.9,1.9-1.9l0,0c0-1.1-0.9-1.9-1.9-1.9S218.8,567,218.8,568.1z M218.8,560.4L218.8,560.4
				c0,1.1,0.9,1.9,1.9,1.9s1.9-0.9,1.9-1.9l0,0c0-1.1-0.9-1.9-1.9-1.9S218.8,559.3,218.8,560.4z M218.8,552.7L218.8,552.7
				c0,1.1,0.9,1.9,1.9,1.9s1.9-0.9,1.9-1.9l0,0c0-1.1-0.9-1.9-1.9-1.9S218.8,551.7,218.8,552.7z M218.8,545.1L218.8,545.1
				c0,1.1,0.9,1.9,1.9,1.9s1.9-0.9,1.9-1.9l0,0c0-1.1-0.9-1.9-1.9-1.9S218.8,544,218.8,545.1z M218.8,537.4L218.8,537.4
				c0,1.1,0.9,1.9,1.9,1.9s1.9-0.9,1.9-1.9l0,0c0-1.1-0.9-1.9-1.9-1.9S218.8,536.3,218.8,537.4z M218.8,529.7L218.8,529.7
				c0,1.1,0.9,1.9,1.9,1.9s1.9-0.9,1.9-1.9l0,0c0-1.1-0.9-1.9-1.9-1.9S218.8,528.7,218.8,529.7z M218.8,522L218.8,522
				c0,1.1,0.9,1.9,1.9,1.9s1.9-0.9,1.9-1.9l0,0c0-1.1-0.9-1.9-1.9-1.9S218.8,521,218.8,522z M218.8,514.4L218.8,514.4
				c0,1.1,0.9,1.9,1.9,1.9s1.9-0.9,1.9-1.9l0,0c0-1.1-0.9-1.9-1.9-1.9S218.8,513.3,218.8,514.4z M218.8,506.7L218.8,506.7
				c0,1.1,0.9,1.9,1.9,1.9s1.9-0.9,1.9-1.9l0,0c0-1.1-0.9-1.9-1.9-1.9S218.8,505.6,218.8,506.7z M218.8,499L218.8,499
				c0,1.1,0.9,1.9,1.9,1.9s1.9-0.9,1.9-1.9v0c0-1.1-0.9-1.9-1.9-1.9S218.8,498,218.8,499z M218.8,491.4L218.8,491.4
				c0,1.1,0.9,1.9,1.9,1.9s1.9-0.9,1.9-1.9v0c0-1.1-0.9-1.9-1.9-1.9S218.8,490.3,218.8,491.4z M218.8,483.7L218.8,483.7
				c0,1.1,0.9,1.9,1.9,1.9s1.9-0.9,1.9-1.9v0c0-1.1-0.9-1.9-1.9-1.9S218.8,482.6,218.8,483.7z M218.8,476L218.8,476
				c0,1.1,0.9,1.9,1.9,1.9s1.9-0.9,1.9-1.9l0,0c0-1.1-0.9-1.9-1.9-1.9S218.8,475,218.8,476z M218.8,468.4L218.8,468.4
				c0,1.1,0.9,1.9,1.9,1.9s1.9-0.9,1.9-1.9l0,0c0-1.1-0.9-1.9-1.9-1.9S218.8,467.3,218.8,468.4z M218.8,460.7L218.8,460.7
				c0,1.1,0.9,1.9,1.9,1.9s1.9-0.9,1.9-1.9v0c0-1.1-0.9-1.9-1.9-1.9S218.8,459.6,218.8,460.7z M218.8,453L218.8,453
				c0,1.1,0.9,1.9,1.9,1.9s1.9-0.9,1.9-1.9v0c0-1.1-0.9-1.9-1.9-1.9S218.8,452,218.8,453z M218.8,445.3L218.8,445.3
				c0,1.1,0.9,1.9,1.9,1.9s1.9-0.9,1.9-1.9l0,0c0-1.1-0.9-1.9-1.9-1.9S218.8,444.3,218.8,445.3z M218.8,437.7L218.8,437.7
				c0,1.1,0.9,1.9,1.9,1.9s1.9-0.9,1.9-1.9l0,0c0-1.1-0.9-1.9-1.9-1.9S218.8,436.6,218.8,437.7z M218.8,430L218.8,430
				c0,1.1,0.9,1.9,1.9,1.9s1.9-0.9,1.9-1.9l0,0c0-1.1-0.9-1.9-1.9-1.9S218.8,428.9,218.8,430z M218.8,422.3L218.8,422.3
				c0,1.1,0.9,1.9,1.9,1.9s1.9-0.9,1.9-1.9v0c0-1.1-0.9-1.9-1.9-1.9S218.8,421.3,218.8,422.3z M218.8,414.7L218.8,414.7
				c0,1.1,0.9,1.9,1.9,1.9s1.9-0.9,1.9-1.9v0c0-1.1-0.9-1.9-1.9-1.9S218.8,413.6,218.8,414.7z M218.8,407L218.8,407
				c0,1.1,0.9,1.9,1.9,1.9s1.9-0.9,1.9-1.9l0,0c0-1.1-0.9-1.9-1.9-1.9S218.8,405.9,218.8,407z M218.8,399.3L218.8,399.3
				c0,1.1,0.9,1.9,1.9,1.9s1.9-0.9,1.9-1.9l0,0c0-1.1-0.9-1.9-1.9-1.9S218.8,398.3,218.8,399.3z M218.8,391.6L218.8,391.6
				c0,1.1,0.9,1.9,1.9,1.9s1.9-0.9,1.9-1.9l0,0c0-1.1-0.9-1.9-1.9-1.9S218.8,390.6,218.8,391.6z M218.8,384L218.8,384
				c0,1.1,0.9,1.9,1.9,1.9s1.9-0.9,1.9-1.9l0,0c0-1.1-0.9-1.9-1.9-1.9S218.8,382.9,218.8,384z M218.8,376.3L218.8,376.3
				c0,1.1,0.9,1.9,1.9,1.9s1.9-0.9,1.9-1.9l0,0c0-1.1-0.9-1.9-1.9-1.9S218.8,375.2,218.8,376.3z M218.8,368.6L218.8,368.6
				c0,1.1,0.9,1.9,1.9,1.9s1.9-0.9,1.9-1.9l0,0c0-1.1-0.9-1.9-1.9-1.9S218.8,367.6,218.8,368.6z M218.8,361L218.8,361
				c0,1.1,0.9,1.9,1.9,1.9s1.9-0.9,1.9-1.9l0,0c0-1.1-0.9-1.9-1.9-1.9S218.8,359.9,218.8,361z M218.8,353.3L218.8,353.3
				c0,1.1,0.9,1.9,1.9,1.9s1.9-0.9,1.9-1.9v0c0-1.1-0.9-1.9-1.9-1.9S218.8,352.2,218.8,353.3z M218.8,345.6L218.8,345.6
				c0,1.1,0.9,1.9,1.9,1.9s1.9-0.9,1.9-1.9l0,0c0-1.1-0.9-1.9-1.9-1.9S218.8,344.6,218.8,345.6z M218.8,338L218.8,338
				c0,1.1,0.9,1.9,1.9,1.9s1.9-0.9,1.9-1.9l0,0c0-1.1-0.9-1.9-1.9-1.9S218.8,336.9,218.8,338z M218.8,330.3L218.8,330.3
				c0,1.1,0.9,1.9,1.9,1.9s1.9-0.9,1.9-1.9l0,0c0-1.1-0.9-1.9-1.9-1.9S218.8,329.2,218.8,330.3z M218.8,322.6L218.8,322.6
				c0,1.1,0.9,1.9,1.9,1.9s1.9-0.9,1.9-1.9l0,0c0-1.1-0.9-1.9-1.9-1.9S218.8,321.6,218.8,322.6z M218.8,314.9L218.8,314.9
				c0,1.1,0.9,1.9,1.9,1.9s1.9-0.9,1.9-1.9v0c0-1.1-0.9-1.9-1.9-1.9S218.8,313.9,218.8,314.9z M218.8,307.2
				C218.8,307.2,218.8,307.2,218.8,307.2c0,1.1,0.8,1.9,1.9,1.9c1.1,0,1.9-0.8,1.9-1.9l0,0c0-1.1-0.8-1.9-1.9-1.9
				C219.6,305.3,218.8,306.2,218.8,307.2L218.8,307.2z M219.6,299.3L219.6,299.3c-0.2,1,0.4,2.1,1.5,2.3c1,0.2,2.1-0.4,2.3-1.5l0,0
				c0.2-1-0.4-2.1-1.5-2.3C220.9,297.6,219.8,298.2,219.6,299.3L219.6,299.3z M222,291.6L222,291.6c-0.4,1,0,2.1,1,2.5
				c1,0.4,2.1,0,2.5-1l0,0c0.4-1,0-2.1-1-2.5C223.6,290.2,222.4,290.6,222,291.6z M225.9,284.6L225.9,284.6
				c-0.6,0.9-0.4,2.1,0.5,2.7c0.9,0.6,2.1,0.4,2.7-0.5l0,0c0.6-0.9,0.4-2.1-0.5-2.7C227.7,283.5,226.5,283.7,225.9,284.6z
				 M231,278.4L231,278.4c-0.8,0.7-0.8,2,0,2.7c0.7,0.8,2,0.8,2.7,0l0,0c0.8-0.7,0.8-2,0-2.7C233,277.6,231.8,277.6,231,278.4z
				 M237.2,273.3L237.2,273.3c-0.9,0.6-1.1,1.8-0.5,2.7s1.8,1.1,2.7,0.5l0,0c0.9-0.6,1.1-1.8,0.5-2.7
				C239.3,273,238.1,272.7,237.2,273.3z M244.3,269.5L244.3,269.5c-1,0.4-1.4,1.5-1,2.5c0.4,1,1.5,1.4,2.5,1l0,0
				c1-0.4,1.4-1.5,1-2.5C246.4,269.6,245.3,269.1,244.3,269.5L244.3,269.5z" style="fill-rule:evenodd;clip-rule:evenodd;fill:#142664;"/>
			<path d="M149.5,583.4L149.5,583.4c0,1.1,0.9,1.9,1.9,1.9s1.9-0.9,1.9-1.9l0,0c0-1.1-0.9-1.9-1.9-1.9
				S149.5,582.3,149.5,583.4z M149.5,575.7L149.5,575.7c0,1.1,0.9,1.9,1.9,1.9s1.9-0.9,1.9-1.9l0,0c0-1.1-0.9-1.9-1.9-1.9
				S149.5,574.7,149.5,575.7z M149.5,568.1L149.5,568.1c0,1.1,0.9,1.9,1.9,1.9s1.9-0.9,1.9-1.9l0,0c0-1.1-0.9-1.9-1.9-1.9
				S149.5,567,149.5,568.1z M149.5,560.4L149.5,560.4c0,1.1,0.9,1.9,1.9,1.9s1.9-0.9,1.9-1.9l0,0c0-1.1-0.9-1.9-1.9-1.9
				S149.5,559.3,149.5,560.4z M149.5,552.7L149.5,552.7c0,1.1,0.9,1.9,1.9,1.9s1.9-0.9,1.9-1.9l0,0c0-1.1-0.9-1.9-1.9-1.9
				S149.5,551.7,149.5,552.7z M149.5,545.1L149.5,545.1c0,1.1,0.9,1.9,1.9,1.9s1.9-0.9,1.9-1.9l0,0c0-1.1-0.9-1.9-1.9-1.9
				S149.5,544,149.5,545.1z M149.5,537.4L149.5,537.4c0,1.1,0.9,1.9,1.9,1.9s1.9-0.9,1.9-1.9l0,0c0-1.1-0.9-1.9-1.9-1.9
				S149.5,536.3,149.5,537.4z M149.5,529.7L149.5,529.7c0,1.1,0.9,1.9,1.9,1.9s1.9-0.9,1.9-1.9l0,0c0-1.1-0.9-1.9-1.9-1.9
				S149.5,528.7,149.5,529.7z M149.5,522L149.5,522c0,1.1,0.9,1.9,1.9,1.9s1.9-0.9,1.9-1.9l0,0c0-1.1-0.9-1.9-1.9-1.9
				S149.5,521,149.5,522z M149.5,514.4L149.5,514.4c0,1.1,0.9,1.9,1.9,1.9s1.9-0.9,1.9-1.9l0,0c0-1.1-0.9-1.9-1.9-1.9
				S149.5,513.3,149.5,514.4z M149.5,506.7L149.5,506.7c0,1.1,0.9,1.9,1.9,1.9s1.9-0.9,1.9-1.9l0,0c0-1.1-0.9-1.9-1.9-1.9
				S149.5,505.6,149.5,506.7z M149.5,499L149.5,499c0,1.1,0.9,1.9,1.9,1.9s1.9-0.9,1.9-1.9v0c0-1.1-0.9-1.9-1.9-1.9
				S149.5,498,149.5,499z M149.5,491.4L149.5,491.4c0,1.1,0.9,1.9,1.9,1.9s1.9-0.9,1.9-1.9v0c0-1.1-0.9-1.9-1.9-1.9
				S149.5,490.3,149.5,491.4z M149.5,483.7L149.5,483.7c0,1.1,0.9,1.9,1.9,1.9s1.9-0.9,1.9-1.9v0c0-1.1-0.9-1.9-1.9-1.9
				S149.5,482.6,149.5,483.7z M149.5,476L149.5,476c0,1.1,0.9,1.9,1.9,1.9s1.9-0.9,1.9-1.9l0,0c0-1.1-0.9-1.9-1.9-1.9
				S149.5,475,149.5,476z M149.5,468.4L149.5,468.4c0,1.1,0.9,1.9,1.9,1.9s1.9-0.9,1.9-1.9l0,0c0-1.1-0.9-1.9-1.9-1.9
				S149.5,467.3,149.5,468.4z M149.5,460.7L149.5,460.7c0,1.1,0.9,1.9,1.9,1.9s1.9-0.9,1.9-1.9v0c0-1.1-0.9-1.9-1.9-1.9
				S149.5,459.6,149.5,460.7z M149.5,453L149.5,453c0,1.1,0.9,1.9,1.9,1.9s1.9-0.9,1.9-1.9v0c0-1.1-0.9-1.9-1.9-1.9
				S149.5,452,149.5,453z M149.5,445.3L149.5,445.3c0,1.1,0.9,1.9,1.9,1.9s1.9-0.9,1.9-1.9l0,0c0-1.1-0.9-1.9-1.9-1.9
				S149.5,444.3,149.5,445.3z M149.5,437.7L149.5,437.7c0,1.1,0.9,1.9,1.9,1.9s1.9-0.9,1.9-1.9l0,0c0-1.1-0.9-1.9-1.9-1.9
				S149.5,436.6,149.5,437.7z M149.5,430L149.5,430c0,1.1,0.9,1.9,1.9,1.9s1.9-0.9,1.9-1.9l0,0c0-1.1-0.9-1.9-1.9-1.9
				S149.5,428.9,149.5,430z M149.5,422.3L149.5,422.3c0,1.1,0.9,1.9,1.9,1.9s1.9-0.9,1.9-1.9v0c0-1.1-0.9-1.9-1.9-1.9
				S149.5,421.3,149.5,422.3z M149.5,414.7L149.5,414.7c0,1.1,0.9,1.9,1.9,1.9s1.9-0.9,1.9-1.9v0c0-1.1-0.9-1.9-1.9-1.9
				S149.5,413.6,149.5,414.7z M149.5,407L149.5,407c0,1.1,0.9,1.9,1.9,1.9s1.9-0.9,1.9-1.9l0,0c0-1.1-0.9-1.9-1.9-1.9
				S149.5,405.9,149.5,407z M149.5,399.3L149.5,399.3c0,1.1,0.9,1.9,1.9,1.9s1.9-0.9,1.9-1.9l0,0c0-1.1-0.9-1.9-1.9-1.9
				S149.5,398.3,149.5,399.3z M149.5,391.6L149.5,391.6c0,1.1,0.9,1.9,1.9,1.9s1.9-0.9,1.9-1.9l0,0c0-1.1-0.9-1.9-1.9-1.9
				S149.5,390.6,149.5,391.6z M149.5,384L149.5,384c0,1.1,0.9,1.9,1.9,1.9s1.9-0.9,1.9-1.9l0,0c0-1.1-0.9-1.9-1.9-1.9
				S149.5,382.9,149.5,384z M149.5,376.3L149.5,376.3c0,1.1,0.9,1.9,1.9,1.9s1.9-0.9,1.9-1.9l0,0c0-1.1-0.9-1.9-1.9-1.9
				S149.5,375.2,149.5,376.3z M149.5,368.6L149.5,368.6c0,1.1,0.9,1.9,1.9,1.9s1.9-0.9,1.9-1.9l0,0c0-1.1-0.9-1.9-1.9-1.9
				S149.5,367.6,149.5,368.6z M149.5,361L149.5,361c0,1.1,0.9,1.9,1.9,1.9s1.9-0.9,1.9-1.9l0,0c0-1.1-0.9-1.9-1.9-1.9
				S149.5,359.9,149.5,361z M149.5,353.3L149.5,353.3c0,1.1,0.9,1.9,1.9,1.9s1.9-0.9,1.9-1.9v0c0-1.1-0.9-1.9-1.9-1.9
				S149.5,352.2,149.5,353.3z M149.5,345.6L149.5,345.6c0,1.1,0.9,1.9,1.9,1.9s1.9-0.9,1.9-1.9l0,0c0-1.1-0.9-1.9-1.9-1.9
				S149.5,344.6,149.5,345.6z M149.5,338L149.5,338c0,1.1,0.9,1.9,1.9,1.9s1.9-0.9,1.9-1.9l0,0c0-1.1-0.9-1.9-1.9-1.9
				S149.5,336.9,149.5,338z M149.5,330.3L149.5,330.3c0,1.1,0.9,1.9,1.9,1.9s1.9-0.9,1.9-1.9l0,0c0-1.1-0.9-1.9-1.9-1.9
				S149.5,329.2,149.5,330.3z M149.5,322.6L149.5,322.6c0,1.1,0.9,1.9,1.9,1.9s1.9-0.9,1.9-1.9l0,0c0-1.1-0.9-1.9-1.9-1.9
				S149.5,321.6,149.5,322.6z M149.5,314.9L149.5,314.9c0,1.1,0.9,1.9,1.9,1.9s1.9-0.9,1.9-1.9v0c0-1.1-0.9-1.9-1.9-1.9
				S149.5,313.9,149.5,314.9z M149.5,307.2C149.5,307.2,149.5,307.2,149.5,307.2c0,1.1,0.8,1.9,1.9,1.9c1.1,0,1.9-0.8,1.9-1.9l0,0
				c0-1.1-0.8-1.9-1.9-1.9C150.4,305.3,149.6,306.2,149.5,307.2L149.5,307.2z M150.4,299.3L150.4,299.3c-0.2,1,0.4,2.1,1.5,2.3
				c1,0.2,2.1-0.4,2.3-1.5l0,0c0.2-1-0.4-2.1-1.5-2.3C151.6,297.6,150.6,298.2,150.4,299.3z M152.8,291.6L152.8,291.6
				c-0.4,1,0,2.1,1,2.5c1,0.4,2.1,0,2.5-1l0,0c0.4-1,0-2.1-1-2.5C154.4,290.2,153.2,290.6,152.8,291.6z M156.7,284.6L156.7,284.6
				c-0.6,0.9-0.4,2.1,0.5,2.7c0.9,0.6,2.1,0.4,2.7-0.5l0,0c0.6-0.9,0.4-2.1-0.5-2.7C158.5,283.5,157.3,283.7,156.7,284.6z
				 M161.8,278.4L161.8,278.4c-0.8,0.7-0.8,2,0,2.7c0.7,0.8,2,0.8,2.7,0l0,0c0.8-0.7,0.8-2,0-2.7
				C163.8,277.6,162.6,277.6,161.8,278.4z M168,273.3L168,273.3c-0.9,0.6-1.1,1.8-0.5,2.7c0.6,0.9,1.8,1.1,2.7,0.5l0,0
				c0.9-0.6,1.1-1.8,0.5-2.7C170.1,273,168.9,272.7,168,273.3L168,273.3z M175.1,269.5L175.1,269.5c-1,0.4-1.4,1.5-1,2.5
				c0.4,1,1.5,1.4,2.5,1l0,0c1-0.4,1.4-1.5,1-2.5C177.2,269.6,176.1,269.1,175.1,269.5L175.1,269.5z" style="fill-rule:evenodd;clip-rule:evenodd;fill:#142664;"/>
		</g>
	</g>
	<path d="M185.3,629.1c0,12.7,10.3,23,23,23h-89.6c-12.7,0-23-10.3-23-23v-46.3l14.9,14.9l14.9-14.9l14.9,14.9
		l14.9-14.9l14.9,14.9l14.9-14.9V629.1z" style="fill-rule:evenodd;clip-rule:evenodd;fill:#142664;"/>
	<g>
		<defs>
			<path id="SVGID_11_" d="M185.3,629.1c0,12.7,10.3,23,23,23h-89.6c-12.7,0-23-10.3-23-23v-46.3l14.9,14.9l14.9-14.9l14.9,14.9
				l14.9-14.9l14.9,14.9l14.9-14.9V629.1z"/>
		</defs>
		<clipPath id="SVGID_12_">
			<use xlink:href="#SVGID_11_" style="overflow:visible;"/>
		</clipPath>
		<g style="clip-path:url(#SVGID_12_);">
			<path d="M184.7,649.9L184.7,649.9c0.9,0.6,2.1,0.3,2.7-0.5c0.6-0.9,0.3-2.1-0.5-2.7l0,0c-0.9-0.6-2.1-0.3-2.7,0.5
				C183.6,648.1,183.8,649.3,184.7,649.9L184.7,649.9z M178.7,644.3L178.7,644.3c0.6,0.8,1.9,1,2.7,0.3c0.8-0.6,1-1.9,0.3-2.7l0,0
				c-0.6-0.8-1.9-1-2.7-0.3C178.2,642.3,178,643.5,178.7,644.3z M174.8,637L174.8,637c0.3,1,1.4,1.5,2.4,1.2c1-0.3,1.5-1.4,1.2-2.4
				l0,0c-0.3-1-1.4-1.5-2.4-1.2C175,634.9,174.4,636,174.8,637z M173.5,628.8L173.5,628.8c0,1.1,0.9,1.9,1.9,1.9s1.9-0.9,1.9-1.9
				l0,0c0-1.1-0.9-1.9-1.9-1.9S173.5,627.8,173.5,628.8z M173.5,621.2L173.5,621.2c0,1.1,0.9,1.9,1.9,1.9s1.9-0.9,1.9-1.9l0,0
				c0-1.1-0.9-1.9-1.9-1.9S173.5,620.1,173.5,621.2z M173.5,613.5L173.5,613.5c0,1.1,0.9,1.9,1.9,1.9s1.9-0.9,1.9-1.9l0,0
				c0-1.1-0.9-1.9-1.9-1.9S173.5,612.4,173.5,613.5z M173.5,605.8L173.5,605.8c0,1.1,0.9,1.9,1.9,1.9s1.9-0.9,1.9-1.9l0,0
				c0-1.1-0.9-1.9-1.9-1.9S173.5,604.8,173.5,605.8z M173.5,598.2L173.5,598.2c0,1.1,0.9,1.9,1.9,1.9s1.9-0.9,1.9-1.9l0,0
				c0-1.1-0.9-1.9-1.9-1.9S173.5,597.1,173.5,598.2z" style="fill-rule:evenodd;clip-rule:evenodd;fill:#FF2E93;"/>
			<path d="M114.4,649.9L114.4,649.9c0.9,0.6,2.1,0.3,2.7-0.5c0.6-0.9,0.3-2.1-0.5-2.7l0,0c-0.9-0.6-2.1-0.3-2.7,0.5
				C113.3,648.1,113.5,649.3,114.4,649.9z M108.4,644.3L108.4,644.3c0.6,0.8,1.9,1,2.7,0.3c0.8-0.6,1-1.9,0.3-2.7l0,0
				c-0.6-0.8-1.9-1-2.7-0.3C107.9,642.3,107.7,643.5,108.4,644.3z M104.5,637L104.5,637c0.3,1,1.4,1.5,2.4,1.2
				c1-0.3,1.5-1.4,1.2-2.4l0,0c-0.3-1-1.4-1.5-2.4-1.2C104.7,634.9,104.1,636,104.5,637z M103.2,628.8L103.2,628.8
				c0,1.1,0.9,1.9,1.9,1.9c1.1,0,1.9-0.9,1.9-1.9l0,0c0-1.1-0.9-1.9-1.9-1.9C104.1,626.9,103.2,627.8,103.2,628.8z M103.2,621.2
				L103.2,621.2c0,1.1,0.9,1.9,1.9,1.9c1.1,0,1.9-0.9,1.9-1.9l0,0c0-1.1-0.9-1.9-1.9-1.9C104.1,619.3,103.2,620.1,103.2,621.2z
				 M103.2,613.5L103.2,613.5c0,1.1,0.9,1.9,1.9,1.9c1.1,0,1.9-0.9,1.9-1.9l0,0c0-1.1-0.9-1.9-1.9-1.9
				C104.1,611.6,103.2,612.4,103.2,613.5z M103.2,605.8L103.2,605.8c0,1.1,0.9,1.9,1.9,1.9c1.1,0,1.9-0.9,1.9-1.9l0,0
				c0-1.1-0.9-1.9-1.9-1.9C104.1,603.9,103.2,604.8,103.2,605.8z M103.2,598.2L103.2,598.2c0,1.1,0.9,1.9,1.9,1.9
				c1.1,0,1.9-0.9,1.9-1.9l0,0c0-1.1-0.9-1.9-1.9-1.9C104.1,596.2,103.2,597.1,103.2,598.2z" style="fill-rule:evenodd;clip-rule:evenodd;fill:#FF2E93;"/>
		</g>
	</g>
	<path d="M496.7,477c-0.1-2.7-0.5-5.2-1.1-7.7c-2.8-11.1-12.8-18.8-24.2-18.8h-26.2c-10.3,0-19.6-4-26.5-10.5h39.4
		c10.2,0,19.5,4,26.4,10.4c0,0,0.1,0.1,0.1,0.1C491.5,456.9,496.7,465.6,496.7,477L496.7,477L496.7,477z" style="fill-rule:evenodd;clip-rule:evenodd;fill:#142664;"/>
	<path d="M384.6,291.7c5.2,0,6.1,2.3,2,5.2s-11.5,5.2-16.6,5.2c-5.1,0-6.1-2.3-2-5.2S379.4,291.7,384.6,291.7z" style="fill-rule:evenodd;clip-rule:evenodd;fill:#142664;"/>
	<path d="M598.2,260c2.3,0,2.7,1,0.9,2.3c-1.8,1.3-5.1,2.3-7.4,2.3c-2.3,0-2.7-1-0.9-2.3C592.6,261,595.9,260,598.2,260
		z" style="fill-rule:evenodd;clip-rule:evenodd;fill:#00E6B3;"/>
	<path d="M601,398.4c0,0-0.8-0.8-1.9-1.8c-0.6-0.5-1.3-1.1-2-1.7c-0.4-0.3-0.9-0.6-1.3-0.9c-1.7-1-3.2-1.8-3.2-1.8
		c-0.6-0.5-1.5-0.3-2,0.3c-0.5,0.6-0.3,1.5,0.3,2c0,0,1.2,1.2,2.7,2.5c0.4,0.3,0.8,0.7,1.2,1c0.7,0.5,1.5,1,2.2,1.4
		c1.3,0.8,2.3,1.3,2.3,1.3c0.6,0.5,1.5,0.3,2-0.3C601.8,399.8,601.7,398.9,601,398.4L601,398.4z" style="fill-rule:evenodd;clip-rule:evenodd;fill:#00E6B3;"/>
	<path d="M614.6,398.4c0,0-0.8-0.8-1.9-1.8c-0.6-0.5-1.3-1.1-2-1.7c-0.4-0.3-0.9-0.6-1.3-0.9c-1.7-1-3.2-1.8-3.2-1.8
		c-0.6-0.5-1.5-0.3-2,0.3c-0.5,0.6-0.3,1.5,0.3,2c0,0,1.2,1.2,2.7,2.5c0.4,0.3,0.8,0.7,1.2,1c0.7,0.5,1.5,1,2.2,1.4
		c1.3,0.8,2.3,1.3,2.3,1.3c0.6,0.5,1.5,0.3,2-0.3C615.4,399.8,615.2,398.9,614.6,398.4L614.6,398.4z" style="fill-rule:evenodd;clip-rule:evenodd;fill:#00E6B3;"/>
	<path d="M599.1,327.2v-16c0-1.1,0.9-1.9,1.9-1.9H622c1.1,0,1.9,0.9,1.9,1.9v16h42.6v-10.4c0-1.1,0.9-1.9,1.9-1.9
		c1.1,0,1.9,0.9,1.9,1.9v12.3c0,1.1-0.9,1.9-1.9,1.9h-81.5l-19,13.6c0,0,0,0-0.1,0l-7.4,5.3h101.2c1.1,0,1.9,0.9,1.9,1.9v14.3
		c0,1.1-0.9,1.9-1.9,1.9H511.6c-1.1,0-1.9-0.9-1.9-1.9v-14.3c0-1.1,0.9-1.9,1.9-1.9h42.3l9.6-6.9l-10.3-7.4h-40.7
		c-1.1,0-1.9-0.9-1.9-1.9c0-1.1,0.9-1.9,1.9-1.9h41.3c0.4,0,0.8,0.1,1.1,0.4l11.8,8.5l18.4-13.2c0.3-0.2,0.7-0.4,1.1-0.4
		L599.1,327.2L599.1,327.2z M513.5,353.8v10.4h146.3v-10.4H513.5z M620.1,327.2v-14.1h-17.1v14.1H620.1z M585.7,298.4l17.8-12.8
		c0.3-0.2,0.7-0.4,1.1-0.4h31c1.1,0,1.9,0.9,1.9,1.9c0,1.1-0.9,1.9-1.9,1.9h-30.4l-30.8,22.1c-0.3,0.2-0.7,0.4-1.1,0.4h-27
		c-1.1,0-1.9-0.9-1.9-1.9c0-1.1,0.9-1.9,1.9-1.9h26.4l7.6-5.5h-21c-1.1,0-1.9-0.9-1.9-1.9c0-1.1,0.9-1.9,1.9-1.9H585.7z" style="fill-rule:evenodd;clip-rule:evenodd;fill:#FF2E93;"/>
	<circle cx="658.4" cy="340.8" r="3.3" style="fill-rule:evenodd;clip-rule:evenodd;fill:#FF2E93;"/>
	<path d="M570.6,408.3c0,1.8-1.5,3.3-3.3,3.3c-1.8,0-3.3-1.5-3.3-3.3c0-1.8,1.5-3.3,3.3-3.3
		C569.1,405,570.6,406.4,570.6,408.3z" style="fill-rule:evenodd;clip-rule:evenodd;fill:#FF2E93;"/>
	<circle cx="646.2" cy="340.8" r="3.3" style="fill-rule:evenodd;clip-rule:evenodd;fill:#FF2E93;"/>
	<circle cx="487.3" cy="243.3" r="2.5" style="fill-rule:evenodd;clip-rule:evenodd;fill:#142664;"/>
	<circle cx="496.1" cy="361" r="3.3" style="fill-rule:evenodd;clip-rule:evenodd;fill:#FF2E93;"/>
	<path d="M403.7,278.1c5.2,0,6.1,2.3,2,5.2c-4,2.9-11.5,5.2-16.6,5.2c-5.2,0-6.1-2.3-2-5.2
		C391.1,280.4,398.6,278.1,403.7,278.1z" style="fill-rule:evenodd;clip-rule:evenodd;fill:#FF2E93;"/>
	<g>
		<path d="M439.5,351.5c-0.6,0-1.2-0.2-1.7-0.7c-0.4-0.4-0.7-1-0.7-1.7c0-1.3,0-2.8,0-3.8c0-0.8,0.4-1.5,1-1.9
			c1.9-1.3,5.9-4.1,6.2-4.3c0,0,0,0,0,0c0.9-0.6,27.8-20,32.2-23.2c0.4-0.3,0.9-0.4,1.4-0.4c3.1,0,14.6,0,19.6,0
			c0.6,0,1.2,0.2,1.7,0.7c0.4,0.4,0.7,1,0.7,1.7c0,1.3,0,2.8,0,3.9c0,0.7-0.4,1.5-1,1.9c-4.6,3.3-23.8,17.3-24.6,17.9c0,0,0,0-0.1,0
			c-0.6,0.4-11.3,7.7-13.9,9.6c-0.4,0.3-0.9,0.4-1.3,0.4C456.1,351.5,444.5,351.5,439.5,351.5L439.5,351.5z" style="fill-rule:evenodd;clip-rule:evenodd;fill:#142664;"/>
		<path d="M364.6,343.4c-0.6,0.4-1,1.2-1,1.9v3.8c0,0.6,0.2,1.2,0.7,1.7c0.4,0.4,1,0.7,1.7,0.7c5,0,16.6,0,19.6,0
			c0.5,0,0.9-0.1,1.3-0.4c2.2-1.5,10.1-7,13-8.9c0.6-0.4,1-1.2,1-1.9v-3.8c0-0.6-0.2-1.2-0.7-1.7c-0.4-0.4-1-0.7-1.7-0.7
			c-5,0-16.6,0-19.6,0c-0.5,0-0.9,0.1-1.3,0.4C375.3,336.1,367.4,341.5,364.6,343.4L364.6,343.4z" style="fill-rule:evenodd;clip-rule:evenodd;fill:#142664;"/>
		<path d="M390.2,324.8c-0.6,0.4-1,1.2-1,1.9v3.8c0,0.6,0.2,1.2,0.7,1.7c0.4,0.4,1,0.7,1.7,0.7c5,0,16.6,0,19.6,0
			c0.5,0,0.9-0.1,1.3-0.4c2.2-1.5,10.1-7,13-8.9c0.6-0.4,1-1.2,1-1.9v-3.8c0-0.6-0.2-1.2-0.7-1.7c-0.4-0.4-1-0.7-1.7-0.7
			c-5,0-16.6,0-19.6,0c-0.5,0-0.9,0.1-1.3,0.4C400.9,317.4,393,322.8,390.2,324.8z" style="fill-rule:evenodd;clip-rule:evenodd;fill:#142664;"/>
		<path d="M416.8,305.9c-0.6,0.4-1,1.2-1,1.9v3.8c0,0.6,0.2,1.2,0.7,1.7c0.4,0.4,1,0.7,1.7,0.7c5,0,16.6,0,19.6,0
			c0.5,0,0.9-0.1,1.3-0.4c2.2-1.5,10.1-7,13-8.9c0.6-0.4,1-1.2,1-1.9V299c0-0.6-0.2-1.2-0.7-1.7c-0.4-0.4-1-0.7-1.7-0.7
			c-5,0-16.6,0-19.6,0c-0.5,0-0.9,0.1-1.3,0.4C427.5,298.6,419.7,304,416.8,305.9z" style="fill-rule:evenodd;clip-rule:evenodd;fill:#142664;"/>
		<path d="M401.4,343.4c-0.6,0.4-1,1.2-1,1.9v3.8c0,0.6,0.2,1.2,0.7,1.7c0.4,0.4,1,0.7,1.7,0.7c5,0,16.6,0,19.6,0
			c0.5,0,0.9-0.1,1.3-0.4c2.2-1.5,10.1-7,13-8.9c0.6-0.4,1-1.2,1-1.9v-3.8c0-0.6-0.2-1.2-0.7-1.7c-0.4-0.4-1-0.7-1.7-0.7
			c-5,0-16.6,0-19.6,0c-0.5,0-0.9,0.1-1.3,0.4C412.1,336.1,404.2,341.5,401.4,343.4L401.4,343.4z" style="fill-rule:evenodd;clip-rule:evenodd;fill:#142664;"/>
		<path d="M427,324.8c-0.6,0.4-1,1.2-1,1.9v3.8c0,0.6,0.2,1.2,0.7,1.7c0.4,0.4,1,0.7,1.7,0.7c5,0,16.6,0,19.6,0
			c0.5,0,0.9-0.1,1.3-0.4c2.2-1.5,10.1-7,13-8.9c0.6-0.4,1-1.2,1-1.9v-3.8c0-0.6-0.2-1.2-0.7-1.7c-0.4-0.4-1-0.7-1.7-0.7
			c-5,0-16.6,0-19.6,0c-0.5,0-0.9,0.1-1.3,0.4C437.7,317.4,429.8,322.8,427,324.8L427,324.8z" style="fill-rule:evenodd;clip-rule:evenodd;fill:#142664;"/>
		<path d="M453.6,305.9c-0.6,0.4-1,1.2-1,1.9v3.8c0,0.6,0.2,1.2,0.7,1.7c0.4,0.4,1,0.7,1.7,0.7c5,0,16.6,0,19.6,0
			c0.5,0,0.9-0.1,1.3-0.4c2.2-1.5,10.1-7,13-8.9c0.6-0.4,1-1.2,1-1.9V299c0-0.6-0.2-1.2-0.7-1.7c-0.4-0.4-1-0.7-1.7-0.7
			c-5,0-16.6,0-19.6,0c-0.5,0-0.9,0.1-1.3,0.4C464.3,298.6,456.4,304,453.6,305.9z" style="fill-rule:evenodd;clip-rule:evenodd;fill:#142664;"/>
		<path d="M490.4,305.9c-0.6,0.4-1,1.2-1,1.9v3.8c0,0.6,0.2,1.2,0.7,1.7s1,0.7,1.7,0.7c5,0,16.6,0,19.6,0
			c0.5,0,0.9-0.1,1.3-0.4c2.2-1.5,10.1-7,13-8.9c0.6-0.4,1-1.2,1-1.9V299c0-0.6-0.2-1.2-0.7-1.7s-1-0.7-1.7-0.7c-5,0-16.6,0-19.6,0
			c-0.5,0-0.9,0.1-1.3,0.4C501.1,298.6,493.2,304,490.4,305.9L490.4,305.9z" style="fill-rule:evenodd;clip-rule:evenodd;fill:#142664;"/>
		<path d="M370.3,343.3c-1,0-1.9-0.7-2.2-1.7c-0.3-1,0.1-2,0.9-2.6c3.1-2.1,6.4-4.4,7.7-5.3c0.4-0.3,0.9-0.4,1.3-0.4
			c2.2,0,9,0,14.4,0c1,0,1.9,0.7,2.2,1.7c0.3,1-0.1,2-0.9,2.6c-3.1,2.1-6.4,4.4-7.7,5.3c-0.4,0.3-0.9,0.4-1.3,0.4
			C382.5,343.3,375.7,343.3,370.3,343.3z" style="fill-rule:evenodd;clip-rule:evenodd;fill:#00E6B3;"/>
		<path d="M395.9,324.6c-1,0-1.9-0.7-2.2-1.7c-0.3-1,0.1-2,0.9-2.6c3.1-2.1,6.4-4.4,7.7-5.3c0.4-0.3,0.9-0.4,1.3-0.4
			c2.2,0,9,0,14.4,0c1,0,1.9,0.7,2.2,1.7c0.3,1-0.1,2-0.9,2.6c-3.1,2.1-6.4,4.4-7.7,5.3c-0.4,0.3-0.9,0.4-1.3,0.4
			C408.1,324.6,401.3,324.6,395.9,324.6L395.9,324.6z" style="fill-rule:evenodd;clip-rule:evenodd;fill:#00E6B3;"/>
		<path d="M422.5,305.8c-1,0-1.9-0.7-2.2-1.7c-0.3-1,0.1-2,0.9-2.6c3.1-2.1,6.4-4.4,7.7-5.3c0.4-0.3,0.9-0.4,1.3-0.4
			c2.2,0,9,0,14.4,0c1,0,1.9,0.7,2.2,1.7c0.3,1-0.1,2-0.9,2.6c-3.1,2.1-6.4,4.4-7.7,5.3c-0.4,0.3-0.9,0.4-1.3,0.4
			C434.7,305.8,428,305.8,422.5,305.8z" style="fill-rule:evenodd;clip-rule:evenodd;fill:#FFFFFF;"/>
		<path d="M407.1,343.3c-1,0-1.9-0.7-2.2-1.7c-0.3-1,0.1-2,0.9-2.6c3.1-2.1,6.4-4.4,7.7-5.3c0.4-0.3,0.9-0.4,1.3-0.4
			c2.2,0,9,0,14.4,0c1,0,1.9,0.7,2.2,1.7c0.3,1-0.1,2-0.9,2.6c-3.1,2.1-6.4,4.4-7.7,5.3c-0.4,0.3-0.9,0.4-1.3,0.4
			C419.3,343.3,412.5,343.3,407.1,343.3z" style="fill-rule:evenodd;clip-rule:evenodd;fill:#00E6B3;"/>
		<path d="M432.6,324.6c-1,0-1.9-0.7-2.2-1.7c-0.3-1,0.1-2,0.9-2.6c3.1-2.1,6.4-4.4,7.7-5.3c0.4-0.3,0.9-0.4,1.3-0.4
			c2.2,0,9,0,14.4,0c1,0,1.9,0.7,2.2,1.7c0.3,1-0.1,2-0.9,2.6c-3.1,2.1-6.4,4.4-7.7,5.3c-0.4,0.3-0.9,0.4-1.3,0.4
			C444.9,324.6,438.1,324.6,432.6,324.6L432.6,324.6z" style="fill-rule:evenodd;clip-rule:evenodd;fill:#00E6B3;"/>
		<path d="M459.3,305.8c-1,0-1.9-0.7-2.2-1.7c-0.3-1,0.1-2,0.9-2.6c3.1-2.1,6.4-4.4,7.7-5.3c0.4-0.3,0.9-0.4,1.3-0.4
			c2.2,0,9,0,14.4,0c1,0,1.9,0.7,2.2,1.7c0.3,1-0.1,2-0.9,2.6c-3.1,2.1-6.4,4.4-7.7,5.3c-0.4,0.3-0.9,0.4-1.3,0.4
			C471.5,305.8,464.7,305.8,459.3,305.8z" style="fill-rule:evenodd;clip-rule:evenodd;fill:#00E6B3;"/>
		<path d="M458.3,343.3c0.5,0,1-0.2,1.4-0.4c3.7-2.7,23.5-16.7,33.6-24c0.8-0.6,1.2-1.7,0.9-2.6s-1.2-1.6-2.2-1.6
			c-5.5,0-12.4,0-14.6,0c-0.5,0-1,0.2-1.4,0.4c-3.7,2.7-23.5,16.7-33.6,24c-0.8,0.6-1.2,1.7-0.9,2.6c0.3,1,1.2,1.6,2.2,1.6
			C449.1,343.3,456,343.3,458.3,343.3L458.3,343.3z" style="fill-rule:evenodd;clip-rule:evenodd;fill:#FF2E93;"/>
		<path d="M496.1,305.8c-1,0-1.9-0.7-2.2-1.7c-0.3-1,0.1-2,0.9-2.6c3.1-2.1,6.4-4.4,7.7-5.3c0.4-0.3,0.9-0.4,1.3-0.4
			c2.2,0,9,0,14.4,0c1,0,1.9,0.7,2.2,1.7c0.3,1-0.1,2-0.9,2.6c-3.1,2.1-6.4,4.4-7.7,5.3c-0.4,0.3-0.9,0.4-1.3,0.4
			C508.3,305.8,501.5,305.8,496.1,305.8L496.1,305.8z" style="fill-rule:evenodd;clip-rule:evenodd;fill:#00E6B3;"/>
	</g>
	<path d="M644.8,291.1h15c1.1,0,1.9-0.9,1.9-1.9c0-1.1-0.9-1.9-1.9-1.9h-15c-1.1,0-1.9,0.9-1.9,1.9
		C642.9,290.2,643.8,291.1,644.8,291.1z" style="fill-rule:evenodd;clip-rule:evenodd;fill:#142664;"/>
	<path d="M644.8,299.5h15c1.1,0,1.9-0.9,1.9-1.9c0-1.1-0.9-1.9-1.9-1.9h-15c-1.1,0-1.9,0.9-1.9,1.9
		C642.9,298.7,643.8,299.5,644.8,299.5z" style="fill-rule:evenodd;clip-rule:evenodd;fill:#142664;"/>
	<path d="M644.8,308h15c1.1,0,1.9-0.9,1.9-1.9c0-1.1-0.9-1.9-1.9-1.9h-15c-1.1,0-1.9,0.9-1.9,1.9
		C642.9,307.2,643.8,308,644.8,308z" style="fill-rule:evenodd;clip-rule:evenodd;fill:#142664;"/>
	<path d="M125.8,426.6c-2.7-2.9-5.3-4.1-7.7-4.4c-4.3-0.6-8.3,2.2-12.4,4.6c-3.7,2.1-7.7,3.6-13.4-1
		c-3.1-2.4-5.8-3.5-8.1-3.8c-2.8-0.4-5.3,0.3-7.5,1.5c-1.8,1-3.5,2.4-5.2,3.7c-1.6,1.2-3.2,2.5-5.2,2.7c-2.2,0.3-4.7-0.7-8.1-3.5
		c-0.9-0.8-2.2-0.7-3,0.2c-0.8,0.9-0.7,2.2,0.2,3c4.8,4.5,8.7,5.5,11.9,5.1c3.8-0.5,7-3.2,10.3-5.4c1.4-0.9,2.9-1.7,4.5-1.8
		c1.9-0.1,4,0.7,6.7,2.9c4.9,3.8,9,4.5,12.5,4c3.9-0.6,7.1-3,10.3-5.1c1.9-1.2,3.7-2.4,5.8-2.4c1.6,0,3.4,0.8,5.4,2.7
		c0.8,0.8,2.2,0.8,3,0C126.6,428.8,126.6,427.4,125.8,426.6L125.8,426.6z" style="fill-rule:evenodd;clip-rule:evenodd;fill:#FF2E93;"/>
	<path d="M124.9,375.7c-1.4-2.6-2.9-4-4.4-4.8c-2.5-1.3-5.1-1-7.9-0.3c-3.1,0.7-6.5,2-10-3c-1.7-2.3-3.3-3.7-4.9-4.4
		c-3-1.5-5.7-1.1-8.4-0.1c-1.1,0.4-2.2,0.9-3.3,1.2c-0.8,0.2-1.6,0.4-2.4,0.2c-1.4-0.4-2.8-1.5-4.4-3.8c-0.6-1-2-1.3-2.9-0.6
		c-1,0.6-1.3,2-0.6,2.9c2.5,4.2,5,5.7,7.3,6.3c2.3,0.6,4.6-0.1,6.9-0.8c1.5-0.5,3.1-1.2,4.7-0.6c1.1,0.4,2.2,1.4,3.5,3.1
		c2.8,3.7,5.5,5.2,8,5.6c3,0.5,5.8-0.4,8.4-1.2c1.3-0.4,2.6-0.8,3.9-0.3c1,0.4,2,1.2,2.9,2.8c0.6,1,1.9,1.4,2.9,0.8
		C125.2,378,125.5,376.7,124.9,375.7L124.9,375.7z" style="fill-rule:evenodd;clip-rule:evenodd;fill:#FF2E93;"/>
	<path d="M121.2,479.1c-1,1.5-2,2.4-2.9,2.8c-1.3,0.5-2.6,0-3.9-0.3c-2.7-0.8-5.5-1.7-8.4-1.2c-2.6,0.4-5.3,1.9-8,5.6
		c-1.3,1.8-2.4,2.8-3.5,3.1c-1.6,0.5-3.2-0.1-4.7-0.6c-2.3-0.7-4.5-1.4-6.9-0.8c-2.3,0.6-4.8,2.1-7.3,6.3c-0.6,1-0.4,2.3,0.6,2.9
		c1,0.6,2.3,0.4,2.9-0.6c1.6-2.3,3-3.4,4.4-3.8c0.8-0.2,1.6,0,2.4,0.2c1.1,0.3,2.2,0.8,3.3,1.2c2.7,1,5.4,1.4,8.4-0.1
		c1.5-0.8,3.2-2.2,4.9-4.4c3.5-5,6.9-3.7,10-3c2.8,0.6,5.4,1,7.9-0.3c1.5-0.8,3.1-2.2,4.4-4.8c0.6-1,0.3-2.3-0.8-2.9
		C123.1,477.7,121.8,478.1,121.2,479.1L121.2,479.1z" style="fill-rule:evenodd;clip-rule:evenodd;fill:#FF2E93;"/>
	<path d="M126.1,313.8c-0.1-1.6-0.6-2.7-1.1-3.5c-0.9-1.4-2.4-2-3.9-2.5c-1.1-0.3-2.3-0.6-2.7-2.8
		c-0.8-2.8-2-4.2-3.2-4.9c-0.9-0.5-1.8-0.8-2.7-0.9c-0.5-0.1-0.9-0.1-1.4-0.2c-0.3,0-0.5,0-0.8-0.2c-0.4-0.4-0.8-1-1.1-2
		c-0.2-1.2-1.3-1.9-2.5-1.7c-1.2,0.2-1.9,1.3-1.7,2.5c0.3,2.6,1.2,4,2.1,4.9c0.8,0.8,1.7,1.1,2.6,1.4c0.8,0.2,1.6,0.3,2.3,0.7
		c0.1,0.1,0.2,0.2,0.3,0.4c0.2,0.3,0.3,0.7,0.4,1.3c0.7,2.5,1.7,3.9,2.8,4.8c1.1,0.9,2.3,1.3,3.6,1.5c1.1,0.2,2.3-0.1,2.7,1.8
		c0.2,1.2,1.3,2,2.4,1.8C125.4,316.1,126.2,315,126.1,313.8z" style="fill-rule:evenodd;clip-rule:evenodd;fill:#FF2E93;"/>
	<path d="M121.9,542.5c-0.4,1.8-1.7,1.6-2.7,1.8c-1.2,0.2-2.4,0.7-3.6,1.5c-1.2,0.9-2.2,2.3-2.8,4.8
		c-0.1,0.5-0.2,1-0.4,1.3c-0.1,0.2-0.1,0.4-0.3,0.4c-0.7,0.4-1.5,0.4-2.3,0.7c-0.9,0.3-1.9,0.7-2.6,1.4c-0.9,0.9-1.8,2.3-2.1,4.9
		c-0.2,1.2,0.5,2.3,1.7,2.5c1.2,0.2,2.3-0.5,2.5-1.7c0.3-1,0.7-1.6,1.1-2c0.2-0.2,0.5-0.1,0.8-0.2c0.5-0.1,0.9-0.1,1.4-0.2
		c0.9-0.1,1.8-0.4,2.7-0.9c1.3-0.7,2.5-2.1,3.2-4.9c0.4-2.2,1.7-2.5,2.7-2.8c1.5-0.5,3-1.1,3.9-2.5c0.5-0.8,1-1.9,1.1-3.5
		c0.2-1.2-0.6-2.2-1.8-2.4C123.1,540.6,122,541.4,121.9,542.5L121.9,542.5z" style="fill-rule:evenodd;clip-rule:evenodd;fill:#FF2E93;"/>
	<circle cx="541.1" cy="518.2" r="9" style="fill-rule:evenodd;clip-rule:evenodd;fill:#142664;"/>
	<circle cx="554.1" cy="518.2" r="9" style="fill-rule:evenodd;clip-rule:evenodd;fill:#FFFFFF;"/>
	<circle cx="567.1" cy="518.2" r="9" style="fill-rule:evenodd;clip-rule:evenodd;fill:#FFFFFF;"/>
	<circle cx="580.1" cy="518.2" r="9" style="fill-rule:evenodd;clip-rule:evenodd;fill:#FFFFFF;"/>
	<circle cx="593.1" cy="518.2" r="9" style="fill-rule:evenodd;clip-rule:evenodd;fill:#FFFFFF;"/>
	<circle cx="606.1" cy="518.2" r="9" style="fill-rule:evenodd;clip-rule:evenodd;fill:#FFFFFF;"/>
	<path d="M562,498.4c0.7,0,1.3-0.4,1.7-1c0.3-0.6,0.3-1.3,0-1.9l-14.9-25.7c-0.3-0.6-1-1-1.7-1c-0.7,0-1.3,0.4-1.7,1
		l-14.9,25.7c-0.3,0.6-0.3,1.3,0,1.9c0.3,0.6,1,1,1.7,1H562z" style="fill-rule:evenodd;clip-rule:evenodd;fill:#142664;"/>
	<path d="M545.2,477.5v9.3c0,1.1,0.9,1.9,1.9,1.9c1.1,0,1.9-0.9,1.9-1.9v-9.3c0-1.1-0.9-1.9-1.9-1.9
		C546,475.6,545.2,476.5,545.2,477.5z" style="fill-rule:evenodd;clip-rule:evenodd;fill:#FFFFFF;"/>
	<path d="M545.2,492.9v1.1c0,1.1,0.9,1.9,1.9,1.9c1.1,0,1.9-0.9,1.9-1.9v-1.1c0-1.1-0.9-1.9-1.9-1.9
		C546,491,545.2,491.9,545.2,492.9z" style="fill-rule:evenodd;clip-rule:evenodd;fill:#FFFFFF;"/>
	<path d="M574,474.8h4.5c1.6,0,2.9-1.3,2.9-2.9c0-1.6-1.3-2.9-2.9-2.9H574c-1.6,0-2.9,1.3-2.9,2.9
		C571.1,473.5,572.4,474.8,574,474.8z" style="fill-rule:evenodd;clip-rule:evenodd;fill:#FFFFFF;"/>
	<path d="M587.1,474.8h28c1.6,0,2.9-1.3,2.9-2.9c0-1.6-1.3-2.9-2.9-2.9h-28c-1.6,0-2.9,1.3-2.9,2.9
		C584.3,473.5,585.5,474.8,587.1,474.8z" style="fill-rule:evenodd;clip-rule:evenodd;fill:#FFFFFF;"/>
	<path d="M574,485.7h21c1.6,0,2.9-1.3,2.9-2.9c0-1.6-1.3-2.9-2.9-2.9h-21c-1.6,0-2.9,1.3-2.9,2.9
		C571.1,484.4,572.4,485.7,574,485.7z" style="fill-rule:evenodd;clip-rule:evenodd;fill:#FFFFFF;"/>
	<path d="M603.6,485.7h11.5c1.6,0,2.9-1.3,2.9-2.9c0-1.6-1.3-2.9-2.9-2.9h-11.5c-1.6,0-2.9,1.3-2.9,2.9
		C600.8,484.4,602.1,485.7,603.6,485.7z" style="fill-rule:evenodd;clip-rule:evenodd;fill:#FFFFFF;"/>
	<path d="M574,496.5h29.5c1.6,0,2.9-1.3,2.9-2.9c0-1.6-1.3-2.9-2.9-2.9H574c-1.6,0-2.9,1.3-2.9,2.9
		C571.1,495.2,572.4,496.5,574,496.5z" style="fill-rule:evenodd;clip-rule:evenodd;fill:#FFFFFF;"/>
	<path d="M430.8,230.4v-38.8l-19.4-19.4h-63.2c-1.1,0-1.9-0.9-1.9-1.9s0.9-1.9,1.9-1.9h64c0.5,0,1,0.2,1.4,0.6
		l20.6,20.6c0.4,0.4,0.6,0.8,0.6,1.4v39.6c1.6,0.7,2.7,2.3,2.7,4.2c0,2.5-2.1,4.6-4.6,4.6c-2.5,0-4.6-2.1-4.6-4.6
		C428.1,232.7,429.2,231.1,430.8,230.4L430.8,230.4z" style="fill-rule:evenodd;clip-rule:evenodd;fill:#142664;"/>
	<path d="M544,365.6c-1.6-0.7-2.7-2.3-2.7-4.2c0-2.5,2.1-4.6,4.6-4.6s4.6,2.1,4.6,4.6c0,1.8-1.1,3.4-2.7,4.2v50.5
		c0,1.1-0.9,1.9-1.9,1.9s-1.9-0.9-1.9-1.9V365.6z" style="fill-rule:evenodd;clip-rule:evenodd;fill:#FFFFFF;"/>
	<path d="M560.4,523.4c-0.2-0.3-0.4-0.6-0.5-0.8c-0.2-0.3-0.3-0.6-0.4-0.9c-0.2-0.5-0.4-1.1-0.5-1.7
		c-0.1-0.6-0.2-1.2-0.1-1.8c0-0.8,0-1.6,0.2-2.4c0.2-0.8,0.5-1.6,0.9-2.3l0.4-0.6c0.5-0.6,0.5-1.5,0-2c-0.6-0.5-1.5-0.5-2,0
		l-0.7,0.7c-0.8,0.9-1.5,1.9-1.9,3c-0.5,1.1-0.7,2.3-0.7,3.5c0,0.9,0.1,1.8,0.4,2.7c0.3,0.9,0.6,1.7,1.1,2.4
		c0.3,0.4,0.5,0.8,0.9,1.1c0.3,0.3,0.6,0.7,1,1c0.5,0.6,1.4,0.6,2,0C560.9,524.9,561,524,560.4,523.4L560.4,523.4z" style="fill-rule:evenodd;clip-rule:evenodd;fill:#142664;"/>
	<path d="M586.4,523.4c-0.2-0.3-0.4-0.6-0.5-0.8c-0.2-0.3-0.3-0.6-0.4-0.9c-0.2-0.5-0.4-1.1-0.5-1.7
		c-0.1-0.6-0.2-1.2-0.1-1.8c0-0.8,0-1.6,0.2-2.4c0.2-0.8,0.5-1.6,0.9-2.3l0.4-0.6c0.5-0.6,0.5-1.5,0-2c-0.6-0.5-1.5-0.5-2,0
		l-0.7,0.7c-0.8,0.9-1.5,1.9-1.9,3c-0.5,1.1-0.7,2.3-0.7,3.5c0,0.9,0.1,1.8,0.4,2.7c0.3,0.9,0.6,1.7,1.1,2.4
		c0.3,0.4,0.5,0.8,0.9,1.1c0.3,0.3,0.6,0.7,1,1c0.5,0.6,1.4,0.6,2,0C586.9,524.9,586.9,524,586.4,523.4L586.4,523.4z" style="fill-rule:evenodd;clip-rule:evenodd;fill:#142664;"/>
	<path d="M573.3,523.4c-0.2-0.3-0.4-0.6-0.5-0.8c-0.2-0.3-0.3-0.6-0.4-0.9c-0.2-0.5-0.4-1.1-0.5-1.7
		c-0.1-0.6-0.2-1.2-0.1-1.8c0-0.8,0-1.6,0.2-2.4c0.2-0.8,0.5-1.6,0.9-2.3l0.4-0.6c0.5-0.6,0.5-1.5,0-2c-0.6-0.5-1.5-0.5-2,0
		l-0.7,0.7c-0.8,0.9-1.5,1.9-1.9,3c-0.5,1.1-0.7,2.3-0.7,3.5c0,0.9,0.1,1.8,0.4,2.7c0.3,0.9,0.6,1.7,1.1,2.4
		c0.3,0.4,0.5,0.8,0.9,1.1c0.3,0.3,0.6,0.7,1,1c0.5,0.6,1.4,0.6,2,0C573.9,524.9,573.9,524,573.3,523.4z" style="fill-rule:evenodd;clip-rule:evenodd;fill:#142664;"/>
	<path d="M599.3,523.4c-0.2-0.3-0.4-0.6-0.5-0.8c-0.2-0.3-0.3-0.6-0.4-0.9c-0.2-0.5-0.4-1.1-0.5-1.7
		c-0.1-0.6-0.2-1.2-0.1-1.8c0-0.8,0-1.6,0.2-2.4c0.2-0.8,0.5-1.6,0.9-2.3l0.4-0.6c0.5-0.6,0.5-1.5,0-2c-0.6-0.5-1.5-0.5-2,0
		l-0.7,0.7c-0.8,0.9-1.5,1.9-1.9,3c-0.5,1.1-0.7,2.3-0.7,3.5c0,0.9,0.1,1.8,0.4,2.7c0.3,0.9,0.6,1.7,1.1,2.4
		c0.3,0.4,0.5,0.8,0.9,1.1c0.3,0.3,0.6,0.7,1,1c0.5,0.6,1.4,0.6,2,0C599.8,524.9,599.9,524,599.3,523.4z" style="fill-rule:evenodd;clip-rule:evenodd;fill:#142664;"/>
	<path d="M527.4,393.3L527.4,393.3L527.4,393.3L527.4,393.3L527.4,393.3l0.1,0l0,0l0,0l0,0l0,0l0,0l0,0l0,0l0,0l0,0l0,0
		l0,0l0,0l0,0l0,0l0,0l0,0l0,0l0,0l0,0l0,0l0,0l0,0l0,0l0,0l0,0l0,0l0,0l0,0l0,0l0,0l0,0l0,0l0,0l0,0l0,0l0,0l0,0l0,0l0,0l0,0l0,0
		l0,0l0,0l0,0l0,0l0,0l0,0l0,0l0,0l0,0l0,0l0,0l0,0l0,0l0,0l0,0l0,0l0,0l0,0l0,0l0,0l0,0l0,0l0,0l0,0l0,0l0,0l0,0l0,0l0,0l0,0l0,0
		l0,0l0,0l0,0l0,0l0,0l0,0l0,0l0,0l0,0l0,0l0,0l0,0l0,0l0,0l0,0l0,0l0,0l0,0l0,0l0,0l0,0l0,0l0,0l0,0l0,0l0,0l0,0l0,0l0,0l0,0l0,0
		l0,0l0,0l0,0l0,0l0,0l0,0l0,0l0,0l0,0l0,0l0,0l0,0l0,0l0,0l0,0c0,0,0,0.1,0,0.1v20.9c0,1.1-0.9,1.9-1.9,1.9s-1.9-0.9-1.9-1.9v-8.5
		h-26.4c-1.1,0-1.9-0.9-1.9-1.9v-8.5h-15.3c-1.1,0-1.9-0.9-1.9-1.9c0-1.1,0.9-1.9,1.9-1.9L527.4,393.3L527.4,393.3z M582.1,404
		l14.8,10.6c0.9,0.6,1.1,1.8,0.4,2.7c-0.6,0.9-1.8,1.1-2.7,0.4l-15.6-11.2c-0.5-0.4-0.8-0.9-0.8-1.6v-19.1c0-1.1,0.9-1.9,1.9-1.9
		s1.9,0.9,1.9,1.9V404L582.1,404z M651.2,403l14-10.1v-7.2c0-1.1,0.9-1.9,1.9-1.9s1.9,0.9,1.9,1.9v8.1c0,0.6-0.3,1.2-0.8,1.6
		l-10.5,7.5h22.7c1.1,0,1.9,0.9,1.9,1.9s-0.9,1.9-1.9,1.9h-52.2l-15.1,10.8c-0.9,0.6-2.1,0.4-2.7-0.4c-0.6-0.9-0.4-2.1,0.4-2.7
		l15.6-11.2c0.3-0.2,0.7-0.4,1.1-0.4L651.2,403L651.2,403z M525.5,403.7v-6.6H501v6.6H525.5z" style="fill-rule:evenodd;clip-rule:evenodd;fill:#FF2E93;"/>
	<circle cx="348.1" cy="170.2" r="42.8" style="fill-rule:evenodd;clip-rule:evenodd;fill:#142664;"/>
	<path d="M316.9,163c-0.5,0-0.9-0.3-1.1-0.7c-0.3-0.4-0.4-0.9-0.2-1.3c0,0,0-0.1,0-0.1c4.2-14.1,17.2-24.4,32.6-24.4
		c15.4,0,28.4,10.3,32.6,24.4c0,0,0,0,0,0c0.1,0.5,0,0.9-0.2,1.3c-0.3,0.4-0.7,0.6-1.2,0.7c-2.3,0.2-7.2,0.7-9,0.9
		c-0.5,0-0.9-0.2-1-0.7c0,0,0,0,0,0c-3-8.8-11.4-15.1-21.2-15.1c-9.8,0-18.2,6.3-21.2,15.1l0,0c-0.2,0.5-0.6,0.8-1.1,0.7
		C324,163.7,319.1,163.2,316.9,163z" style="fill-rule:evenodd;clip-rule:evenodd;fill:#FFFFFF;"/>
	<path d="M315.7,168.7c0.3,0,0.6,0.1,1.1,0.1c0,0,0.1,0,0.1,0c2.4,0.2,6.4,0.6,8,0.8c0.5,0,0.8,0.4,0.8,0.9c0,0,0,0,0,0
		c0,0,0,0,0,0c0,4.3,1.2,8.2,3.3,11.6c0.8,1.3,0.6,3.1-0.5,4.2c-1,1.1-2.3,2.4-3.5,3.5c-0.7,0.7-1.7,1.1-2.7,1s-1.9-0.6-2.5-1.4
		c-3.6-5.4-5.7-11.9-5.7-18.9c0,0,0,0,0,0c0-0.5,0.1-0.9,0.4-1.3C314.8,168.8,315.3,168.7,315.7,168.7L315.7,168.7z" style="fill-rule:evenodd;clip-rule:evenodd;fill:#00E6B3;"/>
	<path d="M379.2,168.8c0.8,0,1.9-0.4,2.4,0.3c0.3,0.4,0.5,0.9,0.5,1.5c0,0,0,0,0,0c0,7-2.1,13.4-5.7,18.8
		c-0.6,0.8-1.5,1.3-2.5,1.4c-1,0.1-2-0.3-2.7-1c-1.2-1.1-2.5-2.4-3.5-3.5c-1.1-1.1-1.3-2.9-0.5-4.2c2.1-3.4,3.3-7.4,3.3-11.6v0
		c0-0.5,0.4-0.9,0.9-1L379.2,168.8L379.2,168.8z" style="fill-rule:evenodd;clip-rule:evenodd;fill:#FF2E93;"/>
	<path d="M350.8,178.7l20.5-23.3c0.7-0.7,0.7-2,0-2.7c-0.7-0.7-2-0.7-2.7,0l-23.3,20.5c-1.5,1.5-1.5,3.9,0,5.4
		C346.9,180.2,349.3,180.2,350.8,178.7L350.8,178.7z" style="fill-rule:evenodd;clip-rule:evenodd;fill:#FF2E93;"/>
	<circle cx="348.1" cy="176" r="7.3" style="fill-rule:evenodd;clip-rule:evenodd;fill:#FFFFFF;"/>
	<path d="M514.1,155.8c0,0-0.8-1.2-2.1-2.8c-0.7-0.8-1.4-1.8-2.3-2.6c-0.5-0.5-1-1-1.6-1.4c-2.1-1.7-3.9-3-3.9-3
		c-0.8-0.8-2.2-0.8-3,0c-0.8,0.8-0.8,2.2,0,3c0,0,1.3,1.8,3,3.9c0.4,0.5,0.9,1.1,1.4,1.6c0.9,0.8,1.8,1.6,2.6,2.3
		c1.6,1.3,2.8,2.1,2.8,2.1c0.8,0.8,2.2,0.8,3,0C514.9,158,514.9,156.6,514.1,155.8L514.1,155.8z" style="fill-rule:evenodd;clip-rule:evenodd;fill:#142664;"/>
	<path d="M524.6,155.2c0,0,0.1-0.9,0.2-2.1c0-0.6,0-1.3-0.1-2.1c-0.1-0.4-0.2-0.8-0.3-1.2c-0.5-1.6-1.1-2.7-1.1-2.7
		c-0.2-1.2-1.3-1.9-2.4-1.8c-1.2,0.2-1.9,1.3-1.8,2.4c0,0-0.2,1.3-0.2,2.9c0,0.4,0,0.8,0.1,1.2c0.1,0.7,0.4,1.4,0.6,2
		c0.4,1.2,0.8,1.9,0.8,1.9c0.2,1.2,1.3,1.9,2.4,1.8C524,157.5,524.8,156.4,524.6,155.2z" style="fill-rule:evenodd;clip-rule:evenodd;fill:#142664;"/>
	<path d="M510.3,163.9c0,0-0.7-0.4-1.7-0.8c-0.5-0.2-1.1-0.4-1.7-0.5c-0.4-0.1-0.7-0.1-1.1-0.1c-1.5,0-2.6,0.2-2.6,0.2
		c-1.2-0.2-2.3,0.6-2.4,1.8c-0.2,1.2,0.6,2.3,1.8,2.4c0,0,1,0.5,2.4,1c0.3,0.1,0.7,0.2,1.1,0.3c0.6,0.1,1.3,0.1,1.8,0
		c1.1,0,1.9-0.2,1.9-0.2c1.2,0.2,2.3-0.6,2.4-1.8C512.2,165.2,511.4,164.1,510.3,163.9L510.3,163.9z" style="fill-rule:evenodd;clip-rule:evenodd;fill:#142664;"/>
</g>
</svg>