<?xml version="1.0" encoding="UTF-8"?><svg version="1.1" id="Calque_1" xmlns:serif="http://www.serif.com/" xmlns="http://www.w3.org/2000/svg" xmlns:xlink="http://www.w3.org/1999/xlink" x="0px" y="0px" viewBox="0 0 800 800" style="enable-background:new 0 0 800 800;" xml:space="preserve" width="800px" height="800px">

<g>
	<g id="house">
		<path d="M329,141.6c0-3.5-2.8-6.3-6.3-6.3c-6.8,0-16.5,0-16.5,0v154h16.5c3.5,0,6.3-2.8,6.3-6.3
			C329,258,329,166.6,329,141.6z" style="fill:#142664;"/>
		<path d="M315.1,141.6c0-3.5-2.8-6.3-6.3-6.3c-8.9,0-25,0-33.9,0c-3.5,0-6.3,2.8-6.3,6.3c0,25,0,116.4,0,141.3
			c0,3.5,2.8,6.3,6.3,6.3c8.9,0,25,0,33.9,0c3.5,0,6.3-2.8,6.3-6.3C315.1,258,315.1,166.6,315.1,141.6z" style="fill:#00E6B3;"/>
		<g>
			<path d="M327.9,273.6h20.6c4.4,0,8.1-3.6,8.1-8.1c0-4.4-3.6-8.1-8.1-8.1h-20.6c-4.4,0-8.1,3.6-8.1,8.1
				C319.8,270,323.5,273.6,327.9,273.6z" style="fill:#142664;"/>
			<path d="M324.9,261.5h20.6c1.1,0,2-0.9,2-2c0-1.1-0.9-2-2-2h-20.6c-1.1,0-2,0.9-2,2
				C322.9,260.6,323.8,261.5,324.9,261.5z" style="fill:#FF2E93;"/>
		</g>
		<g>
			<path d="M327.9,220.9h20.6c4.4,0,8.1-3.6,8.1-8.1c0-4.4-3.6-8.1-8.1-8.1h-20.6c-4.4,0-8.1,3.6-8.1,8.1
				C319.8,217.3,323.5,220.9,327.9,220.9z" style="fill:#142664;"/>
			<path d="M324.9,208.8h20.6c1.1,0,2-0.9,2-2c0-1.1-0.9-2-2-2h-20.6c-1.1,0-2,0.9-2,2
				C322.9,207.9,323.8,208.8,324.9,208.8z" style="fill:#FF2E93;"/>
		</g>
		<g>
			<path d="M691.9,604.9c3.9-1.3,6.6-5,6.6-9.1c0-13.4,0-42.8,0-59c0-6.7-4.4-12.5-10.9-14.3c-0.7-0.2-1.3-0.4-2-0.6
				c-5.2-1.5-8.9-6.2-8.9-11.7c0-0.3,0-0.5,0-0.8c0-7.9-6.4-14.2-14.2-14.2c0,0,0,0,0,0c-13.3,0-24.1,10.8-24.1,24.1
				c0,1,0,1.9,0,2.7c0,3.7-2.1,7.1-5.5,8.7c-0.9,0.4-2,0.9-3,1.4c-5.2,2.4-8.5,7.6-8.5,13.3c0,13.3,0,37.3,0,49.5
				c0,4.6,2.6,8.9,6.8,11c0,0,0,0,0,0c3,1.5,5.3,4.2,6.2,7.4c0.1,0.3,0.2,0.6,0.3,0.9c1,3.5,4.2,5.9,7.9,5.9c6.8,0,17.9,0,26,0
				c6.2,0,11.9-3.3,14.9-8.7v0c1.6-2.8,4.2-4.9,7.2-6C691.2,605.1,691.6,605,691.9,604.9L691.9,604.9z" style="fill:#00E6B3;"/>
			<path d="M659.1,546.4L657,682c0,2.2,1.8,4,4,4c2.2,0,4-1.8,4-4l-2-135.6c0-1.1-0.9-2-2-2S659.1,545.3,659.1,546.4z" style="fill:#142664;"/>
			<path d="M672.6,551.3l-12.9,12.2c-0.8,0.8-0.8,2.1,0,2.8c0.8,0.8,2.1,0.8,2.8,0l12.2-12.9c0.6-0.6,0.6-1.5,0-2.1
				S673.1,550.7,672.6,551.3L672.6,551.3z" style="fill:#142664;"/>
			<path d="M669.4,588.6l-9.8,9c-0.8,0.8-0.8,2.1,0,2.8c0.8,0.8,2.1,0.8,2.8,0l9-9.8c0.6-0.6,0.6-1.5,0-2.1
				C670.9,588,670,588,669.4,588.6L669.4,588.6z" style="fill:#142664;"/>
			<path d="M647.9,576.7l10.7,11.4c0.8,0.8,2.1,0.8,2.8,0c0.8-0.8,0.8-2.1,0-2.8L650,574.6c-0.6-0.6-1.5-0.6-2.1,0
				C647.3,575.2,647.3,576.2,647.9,576.7z" style="fill:#142664;"/>
		</g>
		<g>
			<path d="M642.1,530.4v-12.9c6.7,0,12.2-5.5,12.2-12.2V293.1h12.9v212.2C667.2,519.2,656,530.4,642.1,530.4z" style="fill:#142664;"/>
		</g>
		<g>
			<path d="M637.1,522.4v-4.8c9,0,16.2-7.3,16.2-16.2V289.1h4.8v212.2C658.2,512.9,648.7,522.4,637.1,522.4z" style="fill:#FF2E93;"/>
		</g>
		<path d="M336.1,701.1l159.4-0.1V491.2l22.9-22.9H364.3c-3.4,0-6.7,1.4-9.1,3.8c-6.5,6.5-19.1,19.1-19.1,19.1
			L336.1,701.1L336.1,701.1z" style="fill:#FF2E93;"/>
		<path d="M327.6,701H163.7c-3.3,0-6,2.7-6,6v1.8c0,3.3,2.7,6,6,6h163.9V701z" style="fill:#FF2E93;"/>
		<rect x="508.4" y="369.4" width="125.6" height="59.8" style="fill:#00E6B3;"/>
		<g>
			<path d="M682.8,653.7c-4.8-1.3-8.1-5.7-8.1-10.6c0-10.1,0-26.9,0-36.7c0-4.6,3-8.6,7.4-9.8c0.4-0.1,0.9-0.2,1.3-0.4
				c3.6-1,6.1-4.3,6.1-8c0,0,0,0,0,0c0-2.7,1.1-5.3,3-7.3c1.9-1.9,4.5-3,7.3-3h3.9c3.5,0,6.9,1.4,9.4,3.9c2.5,2.5,3.9,5.9,3.9,9.4
				c0,9.8,0,23.5,0,36.4c0,8.4-3.9,16.4-10.7,21.5C699.7,654.3,691,656,682.8,653.7L682.8,653.7L682.8,653.7z" style="fill:#FF2E93;"/>
			<path d="M694.6,606.7l-1.5,63.2c0,1.7,1.4,3,3,3c1.7,0,3-1.4,3-3l-1.5-63.2c0-0.8-0.7-1.5-1.5-1.5
				S694.6,605.9,694.6,606.7z" style="fill:#142664;"/>
			<path d="M704.7,619.1l-9.8,9c-0.8,0.8-0.8,2.1,0,2.8c0.8,0.8,2.1,0.8,2.8,0l9-9.8c0.6-0.6,0.6-1.5,0-2.1
				C706.2,618.5,705.2,618.5,704.7,619.1L704.7,619.1z" style="fill:#142664;"/>
			<path d="M689.4,613.5l5.1,5.9c0.8,0.8,2.1,0.8,2.8,0c0.8-0.8,0.8-2.1,0-2.8l-5.9-5.1c-0.6-0.6-1.5-0.6-2.1,0
				S688.8,612.9,689.4,613.5z" style="fill:#142664;"/>
		</g>
		<path d="M528.3,83.3c1.7,0,3.4-0.9,4.3-2.3c3.3-4.8,8.9-8,15.2-8c7,0,13.1,3.9,16.2,9.6c1,1.8,2.6,3,4.6,3.5
			c10.7,2.8,18.7,12.5,18.7,24.1c0,0,0,0,0,0c0,2.6,1.4,5,3.7,6.3c7.5,4.2,12.6,12.3,12.6,21.5c0,13.7-11.1,24.9-24.9,24.9H478.5
			c-13.7,0-24.9-11.1-24.9-24.9c0-10.8,6.8-19.9,16.4-23.4c2.4-0.9,4.1-3.2,4.1-5.8c0.1,0,0.1,0,0.1,0c0-16.1,13.1-29.2,29.2-29.2
			c5.2,0,10.1,1.4,14.3,3.7c1.7,1,3.7,1.2,5.6,0.6C524.9,83.5,526.5,83.3,528.3,83.3C528.3,83.3,528.3,83.3,528.3,83.3z" style="fill:#FF2E93;"/>
		<path d="M520.7,118.9c0,0-0.4-0.7-1.1-1.6c-0.3-0.5-0.7-1-1.2-1.4c-0.3-0.3-0.6-0.5-0.8-0.7c-1.1-0.9-2.1-1.5-2.1-1.5
			c-0.6-0.6-1.5-0.6-2.1,0c-0.6,0.6-0.6,1.5,0,2.1c0,0,0.6,1,1.5,2.1c0.2,0.3,0.5,0.6,0.7,0.8c0.5,0.5,1,0.8,1.4,1.2
			c0.9,0.7,1.6,1.1,1.6,1.1c0.6,0.6,1.5,0.6,2.1,0C521.3,120.4,521.3,119.4,520.7,118.9L520.7,118.9z" style="fill:#FFFFFF;"/>
		<path d="M497.6,136c0,0-0.4-0.7-1.1-1.6c-0.3-0.5-0.7-1-1.2-1.4c-0.3-0.3-0.6-0.5-0.8-0.7c-1.1-0.9-2.1-1.5-2.1-1.5
			c-0.6-0.6-1.5-0.6-2.1,0c-0.6,0.6-0.6,1.5,0,2.1c0,0,0.6,1,1.5,2.1c0.2,0.3,0.5,0.6,0.7,0.8c0.5,0.5,1,0.8,1.4,1.2
			c0.9,0.7,1.6,1.1,1.6,1.1c0.6,0.6,1.5,0.6,2.1,0S498.1,136.6,497.6,136L497.6,136z" style="fill:#FFFFFF;"/>
		<path d="M554.6,107.6c0,0,0.7-0.4,1.6-1.1c0.5-0.3,1-0.7,1.4-1.2c0.3-0.3,0.5-0.6,0.7-0.8c0.9-1.1,1.5-2.1,1.5-2.1
			c0.6-0.6,0.6-1.5,0-2.1c-0.6-0.6-1.5-0.6-2.1,0c0,0-1,0.6-2.1,1.5c-0.3,0.2-0.6,0.5-0.8,0.7c-0.5,0.5-0.8,1-1.2,1.4
			c-0.7,0.9-1.1,1.6-1.1,1.6c-0.6,0.6-0.6,1.5,0,2.1C553.1,108.2,554.1,108.2,554.6,107.6L554.6,107.6z" style="fill:#FFFFFF;"/>
		<path d="M532.4,140.4c0,0-0.1-0.4-0.5-1c-0.2-0.3-0.4-0.6-0.6-0.9c-0.1-0.2-0.3-0.3-0.5-0.4c-0.7-0.5-1.3-0.7-1.3-0.7
			c-0.6-0.6-1.5-0.6-2.1,0c-0.6,0.6-0.6,1.5,0,2.1c0,0,0.2,0.6,0.7,1.3c0.1,0.2,0.2,0.3,0.4,0.5c0.3,0.3,0.6,0.4,0.9,0.6
			c0.6,0.3,1,0.5,1,0.5c0.6,0.6,1.5,0.6,2.1,0C533,141.9,533,141,532.4,140.4L532.4,140.4z" style="fill:#FFFFFF;"/>
		<path d="M491.1,105.3c0,0-0.1-0.4-0.5-1c-0.2-0.3-0.4-0.6-0.6-0.9c-0.1-0.2-0.3-0.3-0.5-0.4c-0.7-0.5-1.3-0.7-1.3-0.7
			c-0.6-0.6-1.5-0.6-2.1,0c-0.6,0.6-0.6,1.5,0,2.1c0,0,0.2,0.6,0.7,1.3c0.1,0.2,0.2,0.3,0.4,0.5c0.3,0.3,0.6,0.4,0.9,0.6
			c0.6,0.3,1,0.5,1,0.5c0.6,0.6,1.5,0.6,2.1,0C491.7,106.9,491.7,105.9,491.1,105.3L491.1,105.3z" style="fill:#FFFFFF;"/>
		<path d="M506.8,93.6c0,0-0.1-0.4-0.5-1c-0.2-0.3-0.4-0.6-0.6-0.9c-0.1-0.2-0.3-0.3-0.5-0.4c-0.7-0.5-1.3-0.7-1.3-0.7
			c-0.6-0.6-1.5-0.6-2.1,0c-0.6,0.6-0.6,1.5,0,2.1c0,0,0.2,0.6,0.7,1.3c0.1,0.2,0.2,0.3,0.4,0.5c0.3,0.3,0.6,0.4,0.9,0.6
			c0.6,0.3,1,0.5,1,0.5c0.6,0.6,1.5,0.6,2.1,0C507.4,95.1,507.4,94.2,506.8,93.6L506.8,93.6z" style="fill:#FFFFFF;"/>
		<path d="M492.8,122.8c0,0-0.1-0.4-0.5-1c-0.2-0.3-0.4-0.6-0.6-0.9c-0.1-0.2-0.3-0.3-0.5-0.4c-0.7-0.5-1.3-0.7-1.3-0.7
			c-0.6-0.6-1.5-0.6-2.1,0c-0.6,0.6-0.6,1.5,0,2.1c0,0,0.2,0.6,0.7,1.3c0.1,0.2,0.2,0.4,0.4,0.5c0.3,0.3,0.6,0.4,0.9,0.6
			c0.6,0.3,1,0.5,1,0.5c0.6,0.6,1.5,0.6,2.1,0C493.4,124.3,493.4,123.4,492.8,122.8z" style="fill:#FFFFFF;"/>
		<path d="M573.7,114.3c0,0,0.4-0.1,1-0.5c0.3-0.2,0.6-0.4,0.9-0.6c0.2-0.1,0.3-0.3,0.4-0.5c0.5-0.7,0.7-1.3,0.7-1.3
			c0.6-0.6,0.6-1.5,0-2.1c-0.6-0.6-1.5-0.6-2.1,0c0,0-0.6,0.2-1.3,0.7c-0.2,0.1-0.3,0.2-0.5,0.4c-0.3,0.3-0.4,0.6-0.6,0.9
			c-0.3,0.6-0.5,1-0.5,1c-0.6,0.6-0.6,1.5,0,2.1C572.2,114.9,573.1,114.9,573.7,114.3L573.7,114.3z" style="fill:#FFFFFF;"/>
		<path d="M561.7,137.7c0,0,0.4-0.1,1-0.5c0.3-0.2,0.6-0.4,0.9-0.6c0.2-0.1,0.3-0.3,0.4-0.5c0.5-0.7,0.7-1.3,0.7-1.3
			c0.6-0.6,0.6-1.5,0-2.1c-0.6-0.6-1.5-0.6-2.1,0c0,0-0.6,0.2-1.3,0.7c-0.2,0.1-0.3,0.2-0.5,0.4c-0.3,0.3-0.4,0.6-0.6,0.9
			c-0.3,0.6-0.5,1-0.5,1c-0.6,0.6-0.6,1.5,0,2.1C560.2,138.2,561.2,138.2,561.7,137.7L561.7,137.7z" style="fill:#FFFFFF;"/>
		<path d="M578,136.5c0,0,0.4-0.1,1-0.5c0.3-0.2,0.6-0.4,0.9-0.6c0.2-0.1,0.3-0.3,0.4-0.5c0.5-0.7,0.7-1.3,0.7-1.3
			c0.6-0.6,0.6-1.5,0-2.1c-0.6-0.6-1.5-0.6-2.1,0c0,0-0.6,0.2-1.3,0.7c-0.2,0.1-0.3,0.2-0.5,0.4c-0.3,0.3-0.4,0.6-0.6,0.9
			c-0.3,0.6-0.5,1-0.5,1c-0.6,0.6-0.6,1.5,0,2.1C576.5,137.1,577.4,137.1,578,136.5L578,136.5z" style="fill:#FFFFFF;"/>
		<path d="M399.8,111.9c2-0.2,3.7-1.3,4.8-3c4.7-7.4,13.1-12.4,22.5-12.4c7.2,0,13.8,2.9,18.6,7.6
			c1.3,1.3,3.1,1.9,4.9,1.8c0.4,0,0.7,0,1.1,0c8.9,0,16.2,7.2,16.2,16.2c0,0,0,0,0,0c0,1.9,0.8,3.7,2.3,4.9
			c5.6,4.6,9.1,11.6,9.1,19.5c0,14.1-11.4,25.5-25.5,25.5H403c-16.6,0-30.1-13.5-30.1-30.1C372.9,126.4,384.7,113.6,399.8,111.9
			L399.8,111.9z" style="fill:#00E6B3;"/>
		<path d="M406.1,106.9c0.5,0.1,0.9,0.2,1.4,0.4c3.3,1,7,2.6,10.5,5.7c1,0.8,1.1,2.2,0.4,3.2c-0.8,1-2.2,1.1-3.2,0.4
			c-3.1-2.3-6.2-3.5-9-4.1c-2.4-0.5-4.5-0.6-6.1-0.5c1.8-0.3,3.5-1.3,4.5-2.9C405,108.2,405.5,107.5,406.1,106.9z" style="fill:#FFFFFF;"/>
		<path d="M562.8,80.6c0.5,0.6,0.9,1.3,1.3,2c1,1.8,2.6,3,4.6,3.5c0.2,0.1,0.5,0.1,0.7,0.2c-1.3-0.3-2.7-0.5-4.4-0.6
			c-2.8-0.1-6.2,0.3-9.7,1.7c-1.1,0.5-2.5,0-3-1.1c-0.5-1.1,0-2.5,1.1-3C556.7,81.7,559.9,80.9,562.8,80.6z" style="fill:#FFFFFF;"/>
		<path d="M513.8,81.6c1.3,0.5,2.6,1.1,3.9,1.8c1.7,1,3.7,1.2,5.6,0.6c0.7-0.2,1.3-0.4,2-0.5c1.6,2,3.2,4.4,4.3,7.3
			c0.5,1.1,0,2.5-1.1,3c-1.1,0.5-2.5,0-3-1.1c-1.7-3.4-3.9-5.9-6.1-7.7C517.4,83.3,515.4,82.2,513.8,81.6z" style="fill:#FFFFFF;"/>
		<path d="M636.4,415.6c3.1,0,5.7,2.5,5.7,5.7c0,1.8,0,3.8,0,5.5c0,2.3-0.9,4.5-2.5,6.1c-4.4,4.4-13.4,13.4-17.8,17.8
			c-1.6,1.6-3.8,2.5-6.1,2.5c-16.8,0-87.9,0-104.7,0c-2.3,0-4.5-0.9-6.1-2.5c-4.4-4.4-13.4-13.4-17.8-17.8c-1.6-1.6-2.5-3.8-2.5-6.1
			c0-27.5,0-204.1,0-231.5c0-2.3,0.9-4.5,2.5-6.1c4.4-4.4,13.4-13.4,17.8-17.8c1.6-1.6,3.8-2.5,6.1-2.5c16.8,0,87.9,0,104.7,0
			c2.3,0,4.5,0.9,6.1,2.5c4.4,4.4,13.4,13.4,17.8,17.8c1.6,1.6,2.5,3.8,2.5,6.1v174.2c0,3.1-2.5,5.7-5.7,5.7c-24,0-116.2,0-116.2,0
			c-1.8,0-3.6,0.7-4.9,2c-1.3,1.3-2,3-2,4.9c0,0,0,0,0,0c0,1.8,0.7,3.6,2,4.9c1.3,1.3,3,2,4.9,2c0,0,92.1,0,116.2,0
			c3.1,0,5.7,2.5,5.7,5.7c0,0.5,0,1.1,0,1.6c0,3.1-2.5,5.7-5.7,5.7c-24,0-116.2,0-116.2,0c-1.8,0-3.6,0.7-4.9,2c-1.3,1.3-2,3-2,4.9
			c0,0,0,0,0,0c0,1.8,0.7,3.6,2,4.9c1.3,1.3,3,2,4.9,2C520.2,415.6,612.4,415.6,636.4,415.6z" style="fill:#142664;"/>
		<path d="M490.5,701h-171c-2.7,0-5,2.2-5,5c0,1.3,0,2.7,0,4c0,2.7,2.2,5,5,5c37.5,0,275.5,0,316.6,0c3.3,0,6-2.7,6-6
			c0-32,0-181.7,0-212.2c0-3.5-1.4-6.8-3.8-9.2c-4.2-4.2-11-11-15.2-15.2c-2.5-2.5-5.8-3.8-9.2-3.8h-96.1c-2.8,0-5.5,1.1-7.5,3.1
			c-4.4,4.4-12.3,12.3-16.7,16.7c-2,2-3.1,4.7-3.1,7.5C490.5,525.7,490.5,701,490.5,701L490.5,701z" style="fill:#142664;"/>
		<path d="M336.1,195.2c0-2.3,0.9-4.5,2.5-6.1c4.4-4.4,13.4-13.4,17.8-17.8c1.6-1.6,3.8-2.5,6.1-2.5
			c23.2,0,150.8,0,150.8,0S499,183.1,493,189.1c-1.6,1.6-2.5,3.8-2.5,6.1c0,27.5,0,204.1,0,231.5c0,2.3,0.9,4.5,2.5,6.1
			c6,6,20.3,20.3,20.3,20.3H362.6c-2.3,0-4.5-0.9-6.1-2.5c-4.4-4.4-13.4-13.4-17.8-17.8c-1.6-1.6-2.5-3.8-2.5-6.1
			C336.1,399.2,336.1,222.7,336.1,195.2L336.1,195.2z" style="fill:#FF2E93;"/>
		<rect x="369.1" y="453.2" width="243.3" height="15.2" style="fill:#00E6B3;"/>
		<path d="M445.6,513.2c0-2-1.6-3.6-3.6-3.6c-11.1,0-44.8,0-55.9,0c-2,0-3.6,1.6-3.6,3.6c0,5.2,0,14.6,0,19.8
			c0,2,1.6,3.6,3.6,3.6c11.1,0,44.8,0,55.9,0c2,0,3.6-1.6,3.6-3.6C445.6,527.9,445.6,518.4,445.6,513.2L445.6,513.2z" style="fill:#142664;"/>
		<g>
			<path d="M448.4,544.2h-68.7c-1.4,0-2.7-0.5-3.7-1.5c-1-1-1.5-2.3-1.5-3.7v-31.7c0-1.4,0.5-2.7,1.5-3.7
				c1-1,2.3-1.5,3.7-1.5h68.7c1.4,0,2.7,0.6,3.7,1.5c1,1,1.5,2.3,1.5,3.7V539c0,1.4-0.5,2.7-1.5,3.7S449.8,544.2,448.4,544.2z
				 M379.7,505.4c-0.5,0-1,0.2-1.4,0.6c-0.4,0.4-0.6,0.9-0.6,1.4V539c0,0.5,0.2,1,0.6,1.4c0.4,0.4,0.9,0.6,1.4,0.6h68.7
				c0.5,0,1-0.2,1.4-0.6c0.4-0.4,0.6-0.9,0.6-1.4v-31.7c0-0.5-0.2-1-0.6-1.4c-0.4-0.4-0.9-0.6-1.4-0.6H379.7z" style="fill:#142664;"/>
		</g>
		<path d="M383.7,554.5c0.9,0,1.7,0.5,2,1.3c0.3,0.8,0.1,1.7-0.5,2.3c-2.3,2.3-5.1,5.1-7.4,7.4
			c-0.6,0.6-1.5,0.8-2.3,0.5c-0.8-0.3-1.3-1.1-1.3-2c0-2.5,0-5.5,0-7.4c0-0.6,0.2-1.1,0.6-1.5c0.4-0.4,0.9-0.6,1.5-0.6H383.7z" style="fill:#142664;"/>
		<circle cx="541.8" cy="675.5" r="3.4" style="fill:#00E6B3;"/>
		<path d="M508,429.1c0-1.9,1.5-3.4,3.4-3.4c1.9,0,3.4,1.5,3.4,3.4c0,1.9-1.5,3.4-3.4,3.4S508,431,508,429.1L508,429.1z
			" style="fill:#00E6B3;"/>
		<circle cx="664.2" cy="366.6" r="2.4" style="fill:#FF2E93;"/>
		<circle cx="541.8" cy="690" r="3.4" style="fill:#00E6B3;"/>
		<path d="M522.5,429.1c0-1.9,1.5-3.4,3.4-3.4c1.9,0,3.4,1.5,3.4,3.4c0,1.9-1.5,3.4-3.4,3.4
			C524.1,432.5,522.5,431,522.5,429.1z" style="fill:#00E6B3;"/>
		<path d="M598.8,320.6c0-1.9,1.5-3.4,3.4-3.4c1.9,0,3.4,1.5,3.4,3.4c0,1.9-1.5,3.4-3.4,3.4
			C600.3,324,598.8,322.5,598.8,320.6z" style="fill:#00E6B3;"/>
		<circle cx="664.2" cy="355" r="2.4" style="fill:#FF2E93;"/>
		<circle cx="664.2" cy="343.4" r="2.4" style="fill:#FF2E93;"/>
		<path d="M610.2,179.5c0-1.9,1.5-3.4,3.4-3.4c1.9,0,3.4,1.5,3.4,3.4s-1.5,3.4-3.4,3.4
			C611.7,182.9,610.2,181.4,610.2,179.5z" style="fill:#142664;"/>
		<path d="M642.1,205.5h39.7c5.1,0,9.2,4.1,9.2,9.2c0,18.8,0,61,0,74.6c0,2.8-1.1,5.4-3.1,7.4
			c-10.7,10.7-45.8,45.8-45.8,45.8L642.1,205.5L642.1,205.5z" style="fill:#00E6B3;"/>
		<g>
			<path d="M469.8,375.5c0.9,0,1.7-0.3,2.3-0.9c0.6-0.6,0.9-1.4,0.9-2.3c0-18,0-106.1,0-124.1c0-0.8-0.3-1.7-0.9-2.3
				c-0.6-0.6-1.4-0.9-2.3-0.9c-15.9,0-86.4,0-97,0c-0.8,0-1.7,0.3-2.3,0.9c-3.2,3.2-13.6,13.6-16.8,16.8c-0.6,0.6-0.9,1.4-0.9,2.3
				c0,11.2,0,90.3,0,107.3c0,0.8,0.3,1.7,0.9,2.3s1.4,0.9,2.3,0.9C373,375.5,452.8,375.5,469.8,375.5z" style="fill:#FFFFFF;"/>
			<path d="M462.3,375.5c0.9,0,1.7-0.3,2.3-0.9c0.6-0.6,0.9-1.4,0.9-2.3c0-17.4,0-99.9,0-117.3c0-1.8-1.4-3.2-3.2-3.2
				c-14.7,0-75.8,0-85.6,0c-0.8,0-1.7,0.3-2.3,0.9c-2.7,2.7-10.6,10.6-13.3,13.3c-0.6,0.6-0.9,1.4-0.9,2.3c0,11,0,87.4,0,104
				c0,0.8,0.3,1.7,0.9,2.3s1.4,0.9,2.3,0.9C379,375.5,446.8,375.5,462.3,375.5L462.3,375.5z" style="fill:#142664;"/>
			<path d="M360.3,289.8v-21.5c0-0.8,0.3-1.7,0.9-2.3c2.7-2.7,10.6-10.6,13.3-13.3c0.6-0.6,1.4-0.9,2.3-0.9
				c9.8,0,70.8,0,85.6,0c1.8,0,3.2,1.4,3.2,3.2v34.8H360.3L360.3,289.8z" style="fill:#FFFFFF;"/>
			<g>
				<defs>
					<path id="SVGID_1_" d="M360.3,289.8v-21.5c0-0.8,0.3-1.7,0.9-2.3c2.7-2.7,10.6-10.6,13.3-13.3c0.6-0.6,1.4-0.9,2.3-0.9
						c9.8,0,70.8,0,85.6,0c1.8,0,3.2,1.4,3.2,3.2v34.8H360.3L360.3,289.8z"/>
				</defs>
				<clipPath id="SVGID_2_">
					<use xlink:href="#SVGID_1_" style="overflow:visible;"/>
				</clipPath>
				<g style="clip-path:url(#SVGID_2_);">
					<g>
						<path d="M465.5,266.7L465.5,266.7c-1,0-103.9,0-105.2,0c-0.9,0-1.6-0.7-1.6-1.6c0-1.6,1.4-1.6,2.8-1.6l15.3,0
							l88.8,0c0.9,0,1.6,0.7,1.6,1.6S466.4,266.7,465.5,266.7z" style="fill:#142664;"/>
					</g>
					<g>
						<path d="M465.5,279.3L465.5,279.3c-1,0-103.9,0-105.2,0c-0.9,0-1.6-0.7-1.6-1.6c0-1.6,1.4-1.6,2.8-1.6l51.5,0
							l52.6,0c0.9,0,1.6,0.7,1.6,1.6S466.4,279.3,465.5,279.3z" style="fill:#142664;"/>
					</g>
				</g>
			</g>
			<g>
				<path d="M462.3,377.2h-98.9c-1.3,0-2.5-0.5-3.4-1.4c-0.9-0.9-1.4-2.1-1.4-3.4v-104c0-1.3,0.5-2.5,1.4-3.4l13.3-13.3
					c0.9-0.9,2.1-1.4,3.4-1.4h85.6c2.7,0,4.8,2.2,4.8,4.8v117.3c0,1.3-0.5,2.5-1.4,3.4C464.8,376.7,463.6,377.2,462.3,377.2z
					 M376.8,253.4c-0.4,0-0.8,0.2-1.1,0.5l-13.3,13.3c-0.3,0.3-0.5,0.7-0.5,1.1v104c0,0.4,0.2,0.8,0.5,1.1c0.3,0.3,0.7,0.5,1.1,0.5
					h98.9c0.4,0,0.8-0.2,1.1-0.5c0.3-0.3,0.5-0.7,0.5-1.1V255c0-0.9-0.7-1.6-1.6-1.6H376.8z" style="fill:#142664;"/>
			</g>
			<path d="M301,380.9c-0.9-0.9-1.2-2.3-0.7-3.5s1.6-2,2.9-2h108.6V391h-99.5c-0.8,0-1.6-0.3-2.2-0.9
				C308.3,388.3,304.3,384.3,301,380.9z" style="fill:#FF2E93;"/>
			<rect x="391.6" y="330.8" width="81.4" height="44.7" style="fill:#00E6B3;"/>
			<rect x="305.6" y="330.8" width="86" height="44.7" style="fill:#00E6B3;"/>
			<path d="M387,380.9c-0.9-0.9-1.2-2.3-0.7-3.5s1.6-2,2.9-2H473v11c0,1.2-0.5,2.3-1.3,3.2c-0.8,0.8-2,1.3-3.2,1.3
				c-14.8,0-61.7,0-70.2,0c-0.8,0-1.6-0.3-2.2-0.9C394.3,388.3,390.3,384.3,387,380.9L387,380.9z" style="fill:#142664;"/>
			<g>
				<path d="M391.8,394.7h-51.6c-0.9,0-1.6-0.7-1.6-1.6s0.7-1.6,1.6-1.6h51.6c0.9,0,1.6,0.7,1.6,1.6
					S392.7,394.7,391.8,394.7z" style="fill:#142664;"/>
			</g>
			<g>
				<path d="M362.9,394.7c-0.4,0-0.8-0.2-1.1-0.5l-17-17c-0.6-0.6-0.6-1.7,0-2.3c0.6-0.6,1.7-0.6,2.3,0l17,17
					c0.6,0.6,0.6,1.7,0,2.3C363.7,394.5,363.3,394.7,362.9,394.7z" style="fill:#142664;"/>
			</g>
			<g>
				<path d="M349.5,394.7c-0.4,0-0.8-0.2-1.1-0.5l-17-17c-0.6-0.6-0.6-1.7,0-2.3c0.6-0.6,1.7-0.6,2.3,0l17,17
					c0.6,0.6,0.6,1.7,0,2.3C350.3,394.5,349.9,394.7,349.5,394.7z" style="fill:#142664;"/>
			</g>
			<g>
				<path d="M391.8,377.2c-0.9,0-1.6-0.7-1.6-1.6v-44.7c0-0.9,0.7-1.6,1.6-1.6s1.6,0.7,1.6,1.6v44.7
					C393.4,376.4,392.7,377.2,391.8,377.2z" style="fill:#142664;"/>
			</g>
			<g>
				<path d="M473,377.2H305.5c-0.9,0-1.6-0.7-1.6-1.6s0.7-1.6,1.6-1.6H473c0.9,0,1.6,0.7,1.6,1.6S473.9,377.2,473,377.2
					z" style="fill:#142664;"/>
			</g>
			<path d="M473,329.3l-167.4-0.5c-1.1,0-2,0.9-2,2c0,1.1,0.9,2,2,2l167.4-0.5c0.8,0,1.5-0.7,1.5-1.5
				C474.5,330,473.8,329.3,473,329.3L473,329.3z" style="fill:#142664;"/>
		</g>
		<g>
			<path d="M565.8,556.1c-0.4,0-0.8-0.2-1.1-0.5c-0.6-0.6-0.6-1.7,0-2.3L591,527v-43.1c0-0.9,0.7-1.6,1.6-1.6h38.2
				c0.9,0,1.6,0.7,1.6,1.6s-0.7,1.6-1.6,1.6h-36.6v42.1c0,0.4-0.2,0.8-0.5,1.1l-26.8,26.8C566.6,555.9,566.2,556.1,565.8,556.1z" style="fill:#00E6B3;"/>
		</g>
		<g>
			<path d="M592.6,505.2c-0.4,0-0.8-0.2-1.1-0.5l-35.2-35.2c-0.6-0.6-0.6-1.7,0-2.3c0.6-0.6,1.7-0.6,2.3,0l35.2,35.2
				c0.6,0.6,0.6,1.7,0,2.3C593.4,505,593,505.2,592.6,505.2z" style="fill:#00E6B3;"/>
		</g>
		<g>
			<path d="M534.1,520.8h-43.6c-0.9,0-1.6-0.7-1.6-1.6s0.7-1.6,1.6-1.6h42v-49.2c0-0.9,0.7-1.6,1.6-1.6s1.6,0.7,1.6,1.6
				v50.8C535.7,520.1,535,520.8,534.1,520.8z" style="fill:#00E6B3;"/>
		</g>
		<g>
			<path d="M490.5,690.4c-0.4,0-0.8-0.2-1.1-0.5c-0.6-0.6-0.6-1.7,0-2.3l45.9-45.9v-23.3c0-0.9,0.7-1.6,1.6-1.6
				s1.6,0.7,1.6,1.6v24c0,0.4-0.2,0.8-0.5,1.1L491.6,690C491.3,690.3,490.9,690.4,490.5,690.4z" style="fill:#00E6B3;"/>
		</g>
		<g>
			<path d="M522.8,716.5c-0.9,0-1.6-0.7-1.6-1.6v-58.4c0-0.9,0.7-1.6,1.6-1.6s1.6,0.7,1.6,1.6v58.4
				C524.4,715.8,523.7,716.5,522.8,716.5z" style="fill:#00E6B3;"/>
		</g>
		<g>
			<path d="M615.4,675.9c-0.9,0-1.6-0.7-1.6-1.6v-21.4c0-0.9,0.7-1.6,1.6-1.6h22.5c0.9,0,1.6,0.7,1.6,1.6
				s-0.7,1.6-1.6,1.6H617v19.8C617,675.2,616.3,675.9,615.4,675.9z" style="fill:#00E6B3;"/>
		</g>
		<g>
			<path d="M471.6,572.5H454c-0.9,0-1.6-0.7-1.6-1.6s0.7-1.6,1.6-1.6h16V538c0-0.4,0.2-0.8,0.5-1.1l18.8-18.8
				c0.6-0.6,1.7-0.6,2.3,0c0.6,0.6,0.6,1.7,0,2.3l-18.4,18.4v32.1C473.3,571.7,472.5,572.5,471.6,572.5z" style="fill:#142664;"/>
		</g>
		<g>
			<path d="M336.1,627.7c-0.4,0-0.8-0.2-1.1-0.5c-0.6-0.6-0.6-1.7,0-2.3l25.1-25.1c0.3-0.3,0.7-0.5,1.1-0.5h12.9
				c0.9,0,1.6,0.7,1.6,1.6s-0.7,1.6-1.6,1.6h-12.3l-24.6,24.6C336.9,627.5,336.5,627.7,336.1,627.7z" style="fill:#142664;"/>
		</g>
		<g>
			<path d="M336.1,665.1c-0.4,0-0.8-0.2-1.1-0.5c-0.6-0.6-0.6-1.7,0-2.3l17.8-17.8v-24.2c0-0.4,0.2-0.8,0.5-1.1l6.8-6.8
				c0.3-0.3,0.7-0.5,1.1-0.5h12.9c0.9,0,1.6,0.7,1.6,1.6s-0.7,1.6-1.6,1.6h-12.3L356,621v24.2c0,0.4-0.2,0.8-0.5,1.1l-18.3,18.3
				C336.9,665,336.5,665.1,336.1,665.1z" style="fill:#142664;"/>
		</g>
		<g>
			<path d="M583.3,454.8c-0.4,0-0.8-0.2-1.1-0.5L559.8,432h-18.6c-0.9,0-1.6-0.7-1.6-1.6v-14.6c0-0.9,0.7-1.6,1.6-1.6
				s1.6,0.7,1.6,1.6v13h17.7c0.4,0,0.8,0.2,1.1,0.5l22.8,22.8c0.6,0.6,0.6,1.7,0,2.3C584.2,454.6,583.7,454.8,583.3,454.8z" style="fill:#00E6B3;"/>
		</g>
		<g>
			<path d="M604,454.8c-0.4,0-0.8-0.2-1.1-0.5l-13-13h-20c-0.9,0-1.6-0.7-1.6-1.6s0.7-1.6,1.6-1.6h20.7
				c0.4,0,0.8,0.2,1.1,0.5l13.4,13.4c0.6,0.6,0.6,1.7,0,2.3C604.8,454.6,604.4,454.8,604,454.8z" style="fill:#00E6B3;"/>
		</g>
		<g>
			<path d="M694.9,230.4h-17c-1.8,0-3.2-1.4-3.2-3.2c0-1.8,1.4-3.2,3.2-3.2h17c1.8,0,3.2,1.4,3.2,3.2
				C698.2,229,696.7,230.4,694.9,230.4z" style="fill:#142664;"/>
		</g>
		<g>
			<path d="M694.9,244.7h-27.1c-1.8,0-3.2-1.4-3.2-3.2c0-1.8,1.4-3.2,3.2-3.2h27.1c1.8,0,3.2,1.4,3.2,3.2
				C698.2,243.3,696.7,244.7,694.9,244.7z" style="fill:#142664;"/>
		</g>
		<g>
			<path d="M694.9,259h-37.2c-1.8,0-3.2-1.4-3.2-3.2s1.4-3.2,3.2-3.2h37.2c1.8,0,3.2,1.4,3.2,3.2S696.7,259,694.9,259z" style="fill:#142664;"/>
		</g>
		<g>
			<g>
				<path d="M679.9,271.8c0-0.7-0.3-1.3-0.7-1.7c-0.5-0.5-1.1-0.7-1.7-0.7c-5.5,0-18.6,0-24,0c-0.7,0-1.3,0.3-1.7,0.7
					c-0.5,0.5-0.7,1.1-0.7,1.7c0,4.6,0,14.3,0,18.9c0,0.7,0.3,1.3,0.7,1.7c0.5,0.5,1.1,0.7,1.7,0.7c5.5,0,18.6,0,24,0
					c0.7,0,1.3-0.3,1.7-0.7c0.5-0.5,0.7-1.1,0.7-1.7C679.9,286.1,679.9,276.4,679.9,271.8z" style="fill:#FF2E93;"/>
				<path d="M677.4,294.8h-24c-1.1,0-2.1-0.4-2.9-1.2c-0.8-0.8-1.2-1.8-1.2-2.9v-18.9c0-1.1,0.4-2.1,1.2-2.9
					c0.8-0.8,1.8-1.2,2.9-1.2h24c1.1,0,2.1,0.4,2.9,1.2c0.8,0.8,1.2,1.8,1.2,2.9v18.9c0,1.1-0.4,2.1-1.2,2.9
					C679.5,294.3,678.5,294.8,677.4,294.8z M653.4,270.9c-0.2,0-0.4,0.1-0.6,0.2c-0.2,0.2-0.2,0.4-0.2,0.6v18.9
					c0,0.2,0.1,0.4,0.2,0.6c0.2,0.2,0.4,0.2,0.6,0.2h24c0.2,0,0.4-0.1,0.6-0.2c0.2-0.2,0.2-0.4,0.2-0.6v-18.9c0-0.2-0.1-0.4-0.2-0.6
					c-0.2-0.2-0.4-0.2-0.6-0.2H653.4z" style="fill:#FFFFFF;"/>
			</g>
			<g>
				<path d="M672.5,278.8h-3.3c-0.9,0-1.6-0.7-1.6-1.6s0.7-1.6,1.6-1.6h3.3c0.9,0,1.6,0.7,1.6,1.6
					S673.4,278.8,672.5,278.8z" style="fill:#142664;"/>
			</g>
			<g>
				<path d="M663.4,278.8h-5.1c-0.9,0-1.6-0.7-1.6-1.6s0.7-1.6,1.6-1.6h5.1c0.9,0,1.6,0.7,1.6,1.6
					S664.3,278.8,663.4,278.8z" style="fill:#142664;"/>
			</g>
			<g>
				<path d="M668.3,286.9h-10c-0.9,0-1.6-0.7-1.6-1.6s0.7-1.6,1.6-1.6h10c0.9,0,1.6,0.7,1.6,1.6
					S669.2,286.9,668.3,286.9z" style="fill:#142664;"/>
			</g>
		</g>
		<g>
			<circle cx="658.5" cy="220.2" r="6.9" style="fill:#FF2E93;"/>
			<path d="M658.5,228.7c-4.7,0-8.6-3.8-8.6-8.6s3.8-8.6,8.6-8.6c4.7,0,8.6,3.8,8.6,8.6S663.2,228.7,658.5,228.7z
				 M658.5,214.8c-2.9,0-5.3,2.4-5.3,5.3c0,2.9,2.4,5.3,5.3,5.3s5.3-2.4,5.3-5.3C663.8,217.2,661.4,214.8,658.5,214.8z" style="fill:#142664;"/>
		</g>
		<g>
			<path d="M490.5,317.2c-0.4,0-0.8-0.2-1.1-0.5c-0.6-0.6-0.6-1.7,0-2.3l17.6-17.6c0.3-0.3,0.7-0.5,1.1-0.5h18.2
				c0.9,0,1.6,0.7,1.6,1.6c0,0.9-0.7,1.6-1.6,1.6h-17.6l-17.2,17.2C491.3,317.1,490.9,317.2,490.5,317.2z" style="fill:#00E6B3;"/>
		</g>
		<g>
			<path d="M566.3,267.8c-0.9,0-1.6-0.7-1.6-1.6v-44.6c0-0.9,0.7-1.6,1.6-1.6s1.6,0.7,1.6,1.6v44.6
				C567.9,267.1,567.2,267.8,566.3,267.8z" style="fill:#00E6B3;"/>
		</g>
		<g>
			<path d="M606.2,204.5h-21.2c-0.9,0-1.6-0.7-1.6-1.6c0-0.9,0.7-1.6,1.6-1.6h20.5l23.1-23.1c0.6-0.6,1.7-0.6,2.3,0
				c0.6,0.6,0.6,1.7,0,2.3L607.4,204C607.1,204.3,606.7,204.5,606.2,204.5z" style="fill:#00E6B3;"/>
		</g>
		<path d="M371.2,178.9c0.5-0.5,1.1-0.7,1.7-0.7c1.5,0,4.4,0,7,0c1,0,1.9,0.6,2.3,1.5c0.4,0.9,0.2,2-0.5,2.7
			c-3.1,3.1-7.2,7.2-8.8,8.8c-0.5,0.5-0.7,1.1-0.7,1.8c0,3.1,0,12.4,0,16.9c0,1.4-1.1,2.5-2.5,2.5c-2.6,0-6.8,0-9.4,0
			c-1.4,0-2.5-1.1-2.5-2.5c0-4.5,0-13.7,0-16.8c0-0.7,0.3-1.3,0.8-1.8C361,188.9,368.7,181.3,371.2,178.9L371.2,178.9z" style="fill:#142664;"/>
		<path d="M397.5,178.9c0.5-0.5,1.1-0.7,1.7-0.7c1.5,0,4.4,0,7,0c1,0,1.9,0.6,2.3,1.5c0.4,0.9,0.2,2-0.5,2.7
			c-3.1,3.1-7.2,7.2-8.8,8.8c-0.5,0.5-0.7,1.1-0.7,1.8c0,3.1,0,12.4,0,16.9c0,1.4-1.1,2.5-2.5,2.5c-2.6,0-6.8,0-9.4,0
			c-1.4,0-2.5-1.1-2.5-2.5c0-4.5,0-13.7,0-16.8c0-0.7,0.3-1.3,0.8-1.8C387.3,188.9,395,181.3,397.5,178.9L397.5,178.9z" style="fill:#142664;"/>
		<path d="M423.8,178.9c0.5-0.5,1.1-0.7,1.7-0.7c1.5,0,4.4,0,7,0c1,0,1.9,0.6,2.3,1.5c0.4,0.9,0.2,2-0.5,2.7
			c-3.1,3.1-7.2,7.2-8.8,8.8c-0.5,0.5-0.7,1.1-0.7,1.8c0,3.1,0,12.4,0,16.9c0,1.4-1.1,2.5-2.5,2.5c-2.6,0-6.8,0-9.4,0
			c-1.4,0-2.5-1.1-2.5-2.5c0-4.5,0-13.7,0-16.8c0-0.7,0.3-1.3,0.8-1.8C413.6,188.9,421.3,181.3,423.8,178.9L423.8,178.9z" style="fill:#142664;"/>
		<path d="M725.4,690.4c0.9-0.9,1.2-2.3,0.7-3.5c-0.5-1.2-1.6-2-2.9-2c-22.4,0-86.1,0-86.1,0v15.5h77
			c0.8,0,1.6-0.3,2.2-0.9C718.1,697.8,722.1,693.8,725.4,690.4L725.4,690.4z" style="fill:#142664;"/>
		<circle cx="358.1" cy="525" r="7.2" style="fill:#142664;"/>
		<circle cx="358.1" cy="525" r="3.4" style="fill:#FFFFFF;"/>
		<g>
			<path d="M134.1,557.2c-0.5,0-1-0.2-1.3-0.6l-2.6-3.4c-0.5-0.7-0.4-1.7,0.3-2.3c0.7-0.5,1.7-0.4,2.3,0.3l1.3,1.7
				l4.7-6.2c0.5-0.7,1.6-0.8,2.3-0.3c0.7,0.5,0.8,1.6,0.3,2.3l-6,7.9C135.1,557,134.6,557.2,134.1,557.2z" style="fill:#142664;"/>
		</g>
		<path d="M611.4,154.2c0-1.4-0.6-2.8-1.6-3.8c-1-1-2.4-1.6-3.8-1.6c-32.5,0-202.5,0-235,0c-1.4,0-2.8,0.6-3.8,1.6
			c-1,1-1.6,2.4-1.6,3.8c0,5.9,0,14.5,0,14.5h245.7L611.4,154.2L611.4,154.2z" style="fill:#142664;"/>
		<path d="M454,701V558.7c0-1.1-0.4-2.2-1.3-3c-0.8-0.8-1.9-1.3-3-1.3c-10.5,0-37.3,0-44.4,0c-1.1,0-2.2,0.4-3,1.3
			c-4.8,4.8-22.1,22.1-27,27c-0.8,0.8-1.3,1.9-1.3,3c0,14.6,0,115.3,0,115.3C374.1,701,454,701,454,701z" style="fill:#FFFFFF;"/>
		<path d="M447.2,701V566.7c0-1.1-0.4-2.2-1.3-3c-0.8-0.8-1.9-1.3-3-1.3c-9,0-29.6,0-35.8,0c-1.1,0-2.2,0.4-3,1.3
			c-4.2,4.2-17.7,17.7-21.9,21.9c-0.8,0.8-1.3,1.9-1.3,3c0,14.4,0,112.4,0,112.4C381,701,447.2,701,447.2,701z" style="fill:#FFFFFF;"/>
		<g>
			<path d="M447.2,702.6c-0.9,0-1.6-0.7-1.6-1.6V566.7c0-0.7-0.3-1.4-0.8-1.9c-0.5-0.5-1.2-0.8-1.9-0.8h-35.8
				c-0.7,0-1.4,0.3-1.9,0.8l-21.9,21.9c-0.5,0.5-0.8,1.2-0.8,1.9V701c0,0.9-0.7,1.6-1.6,1.6s-1.6-0.7-1.6-1.6V588.6
				c0-1.5,0.6-3.1,1.7-4.2l21.9-21.9c1.1-1.1,2.6-1.7,4.2-1.7h35.8c1.6,0,3,0.6,4.2,1.7c1.1,1.1,1.7,2.6,1.7,4.2V701
				C448.8,701.9,448.1,702.6,447.2,702.6z" style="fill:#142664;"/>
		</g>
		<g>
			<path d="M447.2,691.4L447.2,691.4c-0.7,0-65.1,0-66.2,0c-0.9,0-1.6-0.7-1.6-1.6c0-1.6,1.6-1.6,2.4-1.6l9.6,0l55.9,0
				c0.9,0,1.6,0.7,1.6,1.6S448.1,691.4,447.2,691.4z" style="fill:#142664;"/>
		</g>
		<g>
			<path d="M447.2,640.8L447.2,640.8c-0.7,0-65.1,0-66.2,0c-0.9,0-1.6-0.7-1.6-1.6c0-1.6,1.6-1.6,2.4-1.6l9.6,0l55.9,0
				c0.9,0,1.6,0.7,1.6,1.6S448.1,640.8,447.2,640.8z" style="fill:#142664;"/>
		</g>
		<g>
			<path d="M447.2,666.1L447.2,666.1c-0.7,0-65.1,0-66.2,0c-0.9,0-1.6-0.7-1.6-1.6c0-1.6,1.6-1.6,2.4-1.6l9.6,0l55.9,0
				c0.9,0,1.6,0.7,1.6,1.6S448.1,666.1,447.2,666.1z" style="fill:#142664;"/>
		</g>
		<g>
			<path d="M447.2,615.6L447.2,615.6c-0.7,0-65.1,0-66.2,0c-0.9,0-1.6-0.7-1.6-1.6c0-1.6,1.6-1.6,2.4-1.6l9.6,0l55.9,0
				c0.9,0,1.6,0.7,1.6,1.6S448.1,615.6,447.2,615.6z" style="fill:#142664;"/>
		</g>
		<g>
			<path d="M447.2,577.7L447.2,577.7c-0.5,0-53.4,0-54.4,0c-0.9,0.1-1.6-0.7-1.6-1.6c0-1.6,1.6-1.6,2.2-1.6l26.6,0
				l27.2,0c0.9,0,1.6,0.7,1.6,1.6S448.1,577.7,447.2,577.7z" style="fill:#142664;"/>
		</g>
		<g>
			<path d="M447.2,678.7L447.2,678.7c-0.7,0-65,0-66.2,0c0,0,0,0,0,0c-0.9,0-1.6-0.7-1.6-1.6c0-1.6,1.6-1.6,2.4-1.6
				l9.6,0l55.9,0c0.9,0,1.6,0.7,1.6,1.6S448.1,678.7,447.2,678.7z" style="fill:#142664;"/>
		</g>
		<g>
			<path d="M447.2,628.2L447.2,628.2c-0.7,0-65.1,0-66.2,0c-0.9,0-1.6-0.7-1.6-1.6c0-1.6,1.6-1.6,2.4-1.6l32.4,0l33.1,0
				c0.9,0,1.6,0.7,1.6,1.6S448.1,628.2,447.2,628.2z" style="fill:#142664;"/>
		</g>
		<g>
			<path d="M447.2,590.3L447.2,590.3c-0.7,0-65.1,0-66.2,0c-0.9,0-1.6-0.7-1.6-1.6c0-1.6,1.6-1.6,2.4-1.6l9.6,0l55.9,0
				c0.9,0,1.6,0.7,1.6,1.6S448.1,590.3,447.2,590.3z" style="fill:#142664;"/>
		</g>
		<g>
			<path d="M447.2,653.5L447.2,653.5c-0.7,0-65,0-66.2,0c0,0,0,0,0,0c-0.9,0-1.6-0.7-1.6-1.6c0-1.6,1.6-1.6,2.4-1.6
				l9.6,0l55.9,0c0.9,0,1.6,0.7,1.6,1.6S448.1,653.5,447.2,653.5z" style="fill:#142664;"/>
		</g>
		<g>
			<path d="M447.2,602.9L447.2,602.9c-0.7,0-65.1,0-66.2,0c-0.9,0-1.6-0.7-1.6-1.6c0-1.6,1.6-1.6,2.4-1.6l32.4,0l33.1,0
				c0.9,0,1.6,0.7,1.6,1.6S448.1,602.9,447.2,602.9z" style="fill:#142664;"/>
		</g>
		<path d="M358.1,525.3l-84.4,109.6l-0.4-246.4L358.1,525.3L358.1,525.3z" style="fill:#FFFFFF;"/>
		<g>
			<path d="M331.5,483.9c-0.5,0-1.1-0.3-1.4-0.8l-48.3-77.9c-0.5-0.8-0.2-1.8,0.5-2.2c0.8-0.5,1.8-0.2,2.2,0.5
				l48.3,77.9c0.5,0.8,0.2,1.8-0.5,2.2C332.1,483.8,331.8,483.9,331.5,483.9z" style="fill:#00E6B3;"/>
		</g>
		<g>
			<path d="M283,624.3c-0.3,0-0.7-0.1-1-0.3c-0.7-0.5-0.8-1.6-0.3-2.3L330,559c0.5-0.7,1.6-0.8,2.3-0.3
				c0.7,0.5,0.8,1.6,0.3,2.3l-48.3,62.7C284,624.1,283.5,624.3,283,624.3z" style="fill:#00E6B3;"/>
		</g>
		<g>
			<path d="M596.4,669.1h24.5c0.6,0,1.2,0.2,1.6,0.7c1.4,1.5,4.6,4.9,6,6.3c0.4,0.4,0.7,1,0.7,1.7v14.4
				c0,0.6-0.2,1.2-0.7,1.7c-1.4,1.5-4.6,4.9-6,6.3c-0.4,0.4-1,0.7-1.6,0.7h-24.5c-0.6,0-1.2-0.2-1.6-0.7c-1.4-1.5-4.6-4.9-6-6.3
				c-0.4-0.4-0.7-1-0.7-1.7v-14.4c0-0.6,0.2-1.2,0.7-1.7c1.4-1.5,4.6-4.9,6-6.3C595.3,669.3,595.8,669.1,596.4,669.1z" style="fill:#FF2E93;"/>
			<path d="M594.6,687h4c1.1,0,2-0.9,2-2c0-1.1-0.9-2-2-2h-4c-1.1,0-2,0.9-2,2C592.6,686.1,593.5,687,594.6,687z
				 M606.7,687h4c1.1,0,2-0.9,2-2c0-1.1-0.9-2-2-2h-4c-1.1,0-2,0.9-2,2C604.6,686.1,605.5,687,606.7,687z M618.7,687h4
				c1.1,0,2-0.9,2-2c0-1.1-0.9-2-2-2h-4c-1.1,0-2,0.9-2,2C616.7,686.1,617.6,687,618.7,687z" style="fill:#142664;"/>
			<path d="M600.6,678.4h4c1.1,0,2-0.9,2-2c0-1.1-0.9-2-2-2h-4c-1.1,0-2,0.9-2,2C598.6,677.4,599.5,678.4,600.6,678.4z
				 M612.7,678.4h4c1.1,0,2-0.9,2-2c0-1.1-0.9-2-2-2h-4c-1.1,0-2,0.9-2,2C610.7,677.4,611.6,678.4,612.7,678.4z" style="fill:#142664;"/>
			<path d="M600.6,695.6h4c1.1,0,2-0.9,2-2c0-1.1-0.9-2-2-2h-4c-1.1,0-2,0.9-2,2C598.6,694.7,599.5,695.6,600.6,695.6z
				 M612.7,695.6h4c1.1,0,2-0.9,2-2c0-1.1-0.9-2-2-2h-4c-1.1,0-2,0.9-2,2C610.7,694.7,611.6,695.6,612.7,695.6z" style="fill:#142664;"/>
		</g>
		<g>
			<rect x="655.7" y="453.3" width="11.5" height="3.2" style="fill:#FF2E93;"/>
		</g>
		<rect x="642.1" y="640.3" width="76.9" height="44.7" style="fill:#00E6B3;"/>
		<path d="M719,638.8l-76.9-0.5c-1.1,0-2,0.9-2,2c0,1.1,0.9,2,2,2l76.9-0.5c0.8,0,1.5-0.7,1.5-1.5
			C720.5,639.4,719.9,638.8,719,638.8L719,638.8z" style="fill:#142664;"/>
		<path d="M624.9,616.5l-19.2-18.9c-0.8-0.8-0.8-2.1,0-2.8c0.8-0.8,2.1-0.8,2.8,0l19.4,19.7c0.3,0.3,0.5,0.8,0.5,1.3
			l-0.3,37.1c0,0.8-0.7,1.5-1.5,1.5c-0.8,0-1.5-0.7-1.5-1.5L624.9,616.5z" style="fill:#00E6B3;"/>
		<g>
			<path d="M532.6,618.3c-0.8,0-1.7-0.3-2.3-0.9c-0.6-0.6-0.9-1.4-0.9-2.3c0-10.9,0-46.3,0-57.2c0-0.8,0.3-1.7,0.9-2.3
				c0.6-0.6,1.4-0.9,2.3-0.9c11.3,0,49.1,0,56.7,0c0.8,0,1.7,0.3,2.3,0.9c3.2,3.2,13.6,13.6,16.8,16.8c0.6,0.6,0.9,1.4,0.9,2.3
				c0,6.1,0,31.4,0,40.4c0,0.9-0.3,1.7-0.9,2.3c-0.6,0.6-1.4,0.9-2.3,0.9C593.2,618.3,545.4,618.3,532.6,618.3z" style="fill:#FFFFFF;"/>
			<path d="M540,611.5c-0.8,0-1.7-0.3-2.3-0.9c-0.6-0.6-0.9-1.4-0.9-2.3c0-9,0-34.7,0-43.7c0-0.8,0.3-1.7,0.9-2.3
				c0.6-0.6,1.4-0.9,2.3-0.9c9.7,0,38.7,0,45.3,0c0.8,0,1.7,0.3,2.3,0.9c2.7,2.7,10.6,10.6,13.3,13.3c0.6,0.6,0.9,1.4,0.9,2.3
				c0,5,0,23,0,30.4c0,0.8-0.3,1.7-0.9,2.3c-0.6,0.6-1.4,0.9-2.3,0.9C587.5,611.5,551.1,611.5,540,611.5L540,611.5z" style="fill:#FF2E93;"/>
			<path d="M567.4,565.9c0.9,0,1.8,0.6,2.1,1.4c0.4,0.9,0.2,1.8-0.5,2.5c-6,6-17.6,17.6-23.7,23.7
				c-0.7,0.7-1.6,0.8-2.5,0.5c-0.9-0.4-1.4-1.2-1.4-2.1c0-1.7,0-3.4,0-4.4c0-0.6,0.2-1.2,0.7-1.6c3.1-3.1,16.2-16.2,19.3-19.3
				c0.4-0.4,1-0.7,1.6-0.7C564,565.9,565.7,565.9,567.4,565.9z" style="fill:#FFFFFF;"/>
			<path d="M585.2,567.8c0.9,0.9,0.9,2.3,0,3.2c-6.4,6.4-29.9,29.9-34.1,34.1c-0.4,0.4-1,0.7-1.6,0.7c-0.3,0-0.6,0-1,0
				c-0.9,0-1.8-0.6-2.1-1.4c-0.4-0.9-0.2-1.8,0.5-2.5c8.6-8.5,28.9-28.6,34.8-34.4c0.9-0.9,2.3-0.9,3.2,0
				C585,567.6,585.1,567.7,585.2,567.8L585.2,567.8z" style="fill:#FFFFFF;"/>
		</g>
		<g>
			<path d="M484.1,492.7H350.8c-0.9,0-1.6-0.7-1.6-1.6c0-0.9,0.7-1.6,1.6-1.6h133.3c0.9,0,1.6,0.7,1.6,1.6
				C485.7,491.9,485,492.7,484.1,492.7z" style="fill:#142664;"/>
		</g>
		<g>
			<path d="M481.6,430.8H348.3c-0.9,0-1.6-0.7-1.6-1.6s0.7-1.6,1.6-1.6h133.3c0.9,0,1.6,0.7,1.6,1.6
				S482.5,430.8,481.6,430.8z" style="fill:#142664;"/>
		</g>
		<g>
			<path d="M483.9,194.1h-49.2c-0.9,0-1.6-0.7-1.6-1.6s0.7-1.6,1.6-1.6h49.2c0.9,0,1.6,0.7,1.6,1.6
				S484.8,194.1,483.9,194.1z" style="fill:#142664;"/>
		</g>
		<path d="M305.1,149c0-1.9-1.5-3.5-3.5-3.5c-5.1,0-14.5,0-19.5,0c-1.9,0-3.5,1.5-3.5,3.5c0,18.7,0,107.8,0,126.6
			c0,1.9,1.5,3.5,3.5,3.5c5.1,0,14.5,0,19.5,0c1.9,0,3.5-1.5,3.5-3.5C305.1,256.8,305.1,167.7,305.1,149L305.1,149z" style="fill:#142664;"/>
		<path d="M436.7,120.2c0,0,0.7-0.4,1.6-1.1c0.5-0.3,1-0.7,1.4-1.2c0.3-0.3,0.5-0.6,0.7-0.8c0.9-1.1,1.5-2.1,1.5-2.1
			c0.6-0.6,0.6-1.5,0-2.1c-0.6-0.6-1.5-0.6-2.1,0c0,0-1,0.6-2.1,1.5c-0.3,0.2-0.6,0.5-0.8,0.7c-0.5,0.5-0.8,1-1.2,1.4
			c-0.7,0.9-1.1,1.6-1.1,1.6c-0.6,0.6-0.6,1.5,0,2.1C435.2,120.8,436.1,120.8,436.7,120.2L436.7,120.2z" style="fill:#FFFFFF;"/>
		<path d="M455.3,139.5c0,0,0.7-0.4,1.6-1.1c0.5-0.3,1-0.7,1.4-1.2c0.3-0.3,0.5-0.6,0.7-0.8c0.9-1.1,1.5-2.1,1.5-2.1
			c0.6-0.6,0.6-1.5,0-2.1c-0.6-0.6-1.5-0.6-2.1,0c0,0-1,0.6-2.1,1.5c-0.3,0.2-0.6,0.5-0.8,0.7c-0.5,0.5-0.8,1-1.2,1.4
			c-0.7,0.9-1.1,1.6-1.1,1.6c-0.6,0.6-0.6,1.5,0,2.1C453.8,140.1,454.7,140.1,455.3,139.5L455.3,139.5z" style="fill:#FFFFFF;"/>
		<path d="M411.5,128.7c0,0-0.4-0.7-1.1-1.6c-0.3-0.5-0.7-1-1.2-1.4c-0.3-0.3-0.6-0.5-0.8-0.7c-1.1-0.9-2.1-1.5-2.1-1.5
			c-0.6-0.6-1.5-0.6-2.1,0c-0.6,0.6-0.6,1.5,0,2.1c0,0,0.6,1,1.5,2.1c0.2,0.3,0.5,0.6,0.7,0.8c0.5,0.5,1,0.8,1.4,1.2
			c0.9,0.7,1.6,1.1,1.6,1.1c0.6,0.6,1.5,0.6,2.1,0C412,130.2,412,129.3,411.5,128.7L411.5,128.7z" style="fill:#FFFFFF;"/>
		<path d="M436.7,141.5c0,0,0.4-0.1,1-0.5c0.3-0.2,0.6-0.4,0.9-0.6c0.2-0.1,0.3-0.3,0.4-0.5c0.5-0.7,0.7-1.3,0.7-1.3
			c0.6-0.6,0.6-1.5,0-2.1c-0.6-0.6-1.5-0.6-2.1,0c0,0-0.6,0.2-1.3,0.7c-0.2,0.1-0.3,0.2-0.5,0.4c-0.3,0.3-0.4,0.6-0.6,0.9
			c-0.3,0.6-0.5,1-0.5,1c-0.6,0.6-0.6,1.5,0,2.1C435.2,142.1,436.1,142.1,436.7,141.5z" style="fill:#FFFFFF;"/>
		<path d="M395.5,135.5c0,0-0.1-0.4-0.5-1c-0.2-0.3-0.4-0.6-0.6-0.9c-0.1-0.2-0.3-0.3-0.5-0.4c-0.7-0.5-1.3-0.7-1.3-0.7
			c-0.6-0.6-1.5-0.6-2.1,0c-0.6,0.6-0.6,1.5,0,2.1c0,0,0.2,0.6,0.7,1.3c0.1,0.2,0.2,0.3,0.4,0.5c0.3,0.3,0.6,0.4,0.9,0.6
			c0.6,0.3,1,0.5,1,0.5c0.6,0.6,1.5,0.6,2.1,0C396.1,137.1,396.1,136.1,395.5,135.5z" style="fill:#FFFFFF;"/>
		<g>
			<path d="M566.3,223.3c-5,0-10-1.8-13.9-5.5h-60.3c-0.9,0-1.6-0.7-1.6-1.6c0-0.9,0.7-1.6,1.6-1.6H553
				c0.4,0,0.8,0.2,1.1,0.5c6.7,6.7,17.6,6.7,24.3,0c6.7-6.7,6.7-17.6,0-24.3c-0.6-0.6-0.6-1.7,0-2.3l18.5-18.4
				c0.6-0.6,1.7-0.6,2.3,0c0.6,0.6,0.6,1.7,0,2.3l-17.4,17.4c6.8,8,6.5,20.1-1.1,27.7C576.7,221.3,571.5,223.3,566.3,223.3z" style="fill:#00E6B3;"/>
		</g>
		<g>
			<path d="M490.5,232.4h-21.1c-0.9,0-1.6-0.7-1.6-1.6v-14.6c0-0.9,0.7-1.6,1.6-1.6h19.7c0.9,0,1.6,0.7,1.6,1.6
				c0,0.9-0.7,1.6-1.6,1.6h-18.1v11.4h19.5c0.9,0,1.6,0.7,1.6,1.6S491.4,232.4,490.5,232.4z" style="fill:#142664;"/>
		</g>
		<g>
			<path d="M425.7,430.7c-0.9,0-1.6-0.7-1.6-1.6v-17c0-0.9,0.7-1.6,1.6-1.6h45.5l18.1-18.1c0.6-0.6,1.7-0.6,2.3,0
				c0.6,0.6,0.6,1.7,0,2.3l-18.5,18.5c-0.3,0.3-0.7,0.5-1.1,0.5h-44.6v15.4C427.3,430,426.6,430.7,425.7,430.7z" style="fill:#142664;"/>
		</g>
		<g>
			<path d="M378.4,446.3c-0.4,0-0.8-0.2-1.1-0.5l-5.3-5.3c-0.6-0.6-0.6-1.7,0-2.3c0.6-0.6,1.7-0.6,2.3,0l5.3,5.3
				c0.6,0.6,0.6,1.7,0,2.3C379.2,446.1,378.8,446.3,378.4,446.3z" style="fill:#142664;"/>
		</g>
		<g>
			<path d="M641.1,355.3h-33.7c-0.4,0-0.8-0.2-1.1-0.5l-19.5-19.5c-0.3-0.3-0.5-0.7-0.5-1.1v-24.8
				c0-0.9,0.7-1.6,1.6-1.6s1.6,0.7,1.6,1.6v24.2L608,352h33.1c0.9,0,1.6,0.7,1.6,1.6S642,355.3,641.1,355.3z" style="fill:#00E6B3;"/>
		</g>
		<g>
			<path d="M529.5,308.7c-0.8,0-1.7-0.3-2.3-0.9c-0.6-0.6-0.9-1.4-0.9-2.3c0-10.9,0-46.3,0-57.2c0-0.8,0.3-1.7,0.9-2.3
				c0.6-0.6,1.4-0.9,2.3-0.9c11.3,0,49.1,0,56.7,0c0.8,0,1.7,0.3,2.3,0.9c3.2,3.2,13.6,13.6,16.8,16.8c0.6,0.6,0.9,1.4,0.9,2.3
				c0,6.1,0,31.4,0,40.4c0,0.8-0.3,1.7-0.9,2.3c-0.6,0.6-1.4,0.9-2.3,0.9C590.2,308.7,542.4,308.7,529.5,308.7z" style="fill:#FFFFFF;"/>
			<path d="M537,301.9c-0.8,0-1.7-0.3-2.3-0.9c-0.6-0.6-0.9-1.4-0.9-2.3c0-9,0-34.7,0-43.7c0-0.9,0.3-1.7,0.9-2.3
				c0.6-0.6,1.4-0.9,2.3-0.9c9.7,0,38.7,0,45.3,0c0.8,0,1.7,0.3,2.3,0.9c2.7,2.7,10.6,10.6,13.3,13.3c0.6,0.6,0.9,1.4,0.9,2.3
				c0,5,0,23,0,30.4c0,0.9-0.3,1.7-0.9,2.3c-0.6,0.6-1.4,0.9-2.3,0.9C584.5,301.9,548.1,301.9,537,301.9L537,301.9z" style="fill:#FF2E93;"/>
			<path d="M567.4,257c0.9,0,1.8,0.6,2.1,1.4c0.4,0.9,0.2,1.8-0.5,2.5c-6,6-17.6,17.6-23.7,23.7
				c-0.7,0.7-1.6,0.8-2.5,0.5c-0.9-0.4-1.4-1.2-1.4-2.1c0-1.7,0-3.4,0-4.4c0-0.6,0.2-1.2,0.7-1.6c3.1-3.1,16.2-16.2,19.3-19.3
				c0.4-0.4,1-0.7,1.6-0.7C564,257,565.7,257,567.4,257z" style="fill:#FFFFFF;"/>
			<path d="M585.2,258.9c0.9,0.9,0.9,2.3,0,3.2c-6.4,6.4-29.9,29.9-34.1,34.1c-0.4,0.4-1,0.7-1.6,0.7c-0.3,0-0.6,0-1,0
				c-0.9,0-1.8-0.6-2.1-1.4c-0.4-0.9-0.2-1.8,0.5-2.5c8.6-8.5,28.9-28.6,34.8-34.4c0.9-0.9,2.3-0.9,3.2,0
				C585,258.7,585.1,258.8,585.2,258.9L585.2,258.9z" style="fill:#FFFFFF;"/>
		</g>
	</g>
	<g id="form">
		<path d="M275,392.8c0-3.5-2.8-6.3-6.3-6.3c-30.9,0-165.2,0-196.1,0c-3.5,0-6.3,2.8-6.3,6.3c0,34.9,0,203.2,0,238.1
			c0,3.5,2.8,6.3,6.3,6.3c30.9,0,165.2,0,196.1,0c3.5,0,6.3-2.8,6.3-6.3C275,596.1,275,427.7,275,392.8z" style="fill:#00E6B3;"/>
		<g>
			<path d="M244.5,438.2H130.6c-1.7,0-3.4-0.7-4.6-1.9c-1.2-1.2-1.9-2.9-1.9-4.6v-21.5c0-1.7,0.7-3.4,1.9-4.6
				c1.2-1.2,2.9-1.9,4.6-1.9h113.9c1.7,0,3.4,0.7,4.6,1.9c1.2,1.2,1.9,2.9,1.9,4.6v21.5c0,1.7-0.7,3.4-1.9,4.6
				C247.9,437.5,246.3,438.2,244.5,438.2z M130.6,407c-0.9,0-1.7,0.3-2.3,1c-0.6,0.6-1,1.4-1,2.3v21.5c0,0.9,0.3,1.7,1,2.3
				c0.6,0.6,1.4,1,2.3,1h113.9c0.9,0,1.7-0.3,2.3-1c0.6-0.6,1-1.4,1-2.3v-21.5c0-0.9-0.3-1.7-1-2.3c-0.6-0.6-1.4-1-2.3-1H130.6z" style="fill:#FFFFFF;"/>
		</g>
		<g>
			<path d="M244.5,483.9H130.6c-1.7,0-3.4-0.7-4.6-1.9c-1.2-1.2-1.9-2.9-1.9-4.6V456c0-1.7,0.7-3.4,1.9-4.6
				c1.2-1.2,2.9-1.9,4.6-1.9h113.9c1.7,0,3.4,0.7,4.6,1.9c1.2,1.2,1.9,2.9,1.9,4.6v21.5c0,1.7-0.7,3.4-1.9,4.6
				C247.9,483.2,246.3,483.9,244.5,483.9z M130.6,452.7c-0.9,0-1.7,0.3-2.3,1c-0.6,0.6-1,1.4-1,2.3v21.5c0,0.9,0.3,1.7,1,2.3
				c0.6,0.6,1.4,1,2.3,1h113.9c0.9,0,1.7-0.3,2.3-1c0.6-0.6,1-1.4,1-2.3V456c0-0.9-0.3-1.7-1-2.3c-0.6-0.6-1.4-1-2.3-1H130.6z" style="fill:#FFFFFF;"/>
		</g>
		<g>
			<path d="M244.5,529.7H130.6c-1.7,0-3.4-0.7-4.6-1.9c-1.2-1.2-1.9-2.9-1.9-4.6v-21.5c0-1.7,0.7-3.4,1.9-4.6
				c1.2-1.2,2.9-1.9,4.6-1.9h113.9c1.7,0,3.4,0.7,4.6,1.9c1.2,1.2,1.9,2.8,1.9,4.6v21.5c0,1.7-0.7,3.4-1.9,4.6
				C247.9,529,246.3,529.7,244.5,529.7z M130.6,498.5c-0.9,0-1.7,0.3-2.3,1c-0.6,0.6-1,1.4-1,2.3v21.5c0,0.9,0.3,1.7,1,2.3
				c0.6,0.6,1.4,1,2.3,1h113.9c0.9,0,1.7-0.3,2.3-1c0.6-0.6,1-1.4,1-2.3v-21.5c0-0.9-0.3-1.7-1-2.3c-0.6-0.6-1.4-1-2.3-1H130.6z" style="fill:#FFFFFF;"/>
		</g>
		<g>
			<path d="M145.9,545.5c0-1-0.4-2-1.2-2.8c-0.7-0.7-1.7-1.2-2.8-1.2h-12.3c-1,0-2,0.4-2.8,1.2
				c-0.7,0.7-1.2,1.7-1.2,2.8v12.3c0,1,0.4,2,1.2,2.8c0.7,0.7,1.7,1.2,2.8,1.2H142c1,0,2-0.4,2.8-1.2s1.2-1.7,1.2-2.8V545.5z" style="fill:#142664;"/>
			<path d="M142,563.4h-12.3c-1.5,0-2.9-0.6-3.9-1.6c-1-1-1.6-2.4-1.6-3.9v-12.3c0-1.5,0.6-2.9,1.6-3.9
				c1-1,2.4-1.6,3.9-1.6H142c1.5,0,2.9,0.6,3.9,1.6c1,1,1.6,2.4,1.6,3.9v12.3c0,1.5-0.6,2.9-1.6,3.9
				C144.9,562.8,143.5,563.4,142,563.4z M129.7,543.2c-0.6,0-1.2,0.2-1.6,0.7c-0.4,0.4-0.7,1-0.7,1.6v12.3c0,0.6,0.2,1.2,0.7,1.6
				c0.4,0.4,1,0.7,1.6,0.7H142c0.6,0,1.2-0.2,1.6-0.7c0.4-0.4,0.7-1,0.7-1.6v-12.3c0-0.6-0.2-1.2-0.7-1.6c-0.4-0.4-1-0.7-1.6-0.7
				H129.7z" style="fill:#142664;"/>
		</g>
		<g>
			<g>
				<path d="M110.4,430.7H93.7c0-5.4,1.2-9.8,8.3-9.8C109.1,420.9,110.4,425.3,110.4,430.7z" style="fill:#142664;"/>
				<path d="M110.4,432.4H93.7c-0.9,0-1.6-0.7-1.6-1.6c0-3.1,0-11.4,10-11.4s10,8.3,10,11.4
					C112,431.6,111.3,432.4,110.4,432.4z M95.3,429.1h13.4c-0.3-4.8-2.2-6.6-6.7-6.6C97.5,422.6,95.7,424.3,95.3,429.1z" style="fill:#142664;"/>
			</g>
			<g>
				<path d="M102,422.6c-3.6,0-6.5-2.9-6.5-6.5s2.9-6.5,6.5-6.5c3.6,0,6.5,2.9,6.5,6.5S105.6,422.6,102,422.6z
					 M102,412.8c-1.8,0-3.3,1.5-3.3,3.3c0,1.8,1.5,3.3,3.3,3.3c1.8,0,3.3-1.5,3.3-3.3C105.3,414.2,103.8,412.8,102,412.8z" style="fill:#142664;"/>
			</g>
		</g>
		<g>
			<g>
				<path d="M112.2,476.7H91.9c-0.9,0-1.6-0.7-1.6-1.6v-16.7c0-0.9,0.7-1.6,1.6-1.6h20.3c0.9,0,1.6,0.7,1.6,1.6v16.7
					C113.8,476,113.1,476.7,112.2,476.7z M93.5,473.4h17.1V460H93.5V473.4z" style="fill:#142664;"/>
			</g>
			<g>
				<path d="M102,468.3c-0.4,0-0.7-0.1-1-0.4l-10.2-8.4c-0.7-0.6-0.8-1.6-0.2-2.3c0.6-0.7,1.6-0.8,2.3-0.2l9.1,7.5
					l9.1-7.5c0.7-0.6,1.7-0.5,2.3,0.2c0.6,0.7,0.5,1.7-0.2,2.3L103,468C102.7,468.2,102.4,468.3,102,468.3z" style="fill:#142664;"/>
			</g>
		</g>
		<g>
			<g>
				<rect x="94.5" y="509.4" width="15.1" height="13.7" style="fill:#142664;"/>
				<path d="M109.6,524.8H94.5c-0.9,0-1.6-0.7-1.6-1.6v-13.7c0-0.9,0.7-1.6,1.6-1.6h15.1c0.9,0,1.6,0.7,1.6,1.6v13.7
					C111.2,524.1,110.5,524.8,109.6,524.8z M96.1,521.5H108V511H96.1V521.5z" style="fill:#142664;"/>
			</g>
			<path d="M100.1,517.3c-0.7-0.6-1.1-1.4-1.1-2.3c0-1.7,1.3-3,3-3c1.7,0,3,1.4,3,3c0,0.9-0.4,1.8-1.1,2.3
				c-0.2,1-0.4,1.8-0.4,1.8c0,0.8-0.7,1.5-1.5,1.5s-1.5-0.7-1.5-1.5C100.5,519.1,100.3,518.3,100.1,517.3z" style="fill:#00E6B3;"/>
			<g>
				<path d="M107.6,511c-0.9,0-1.6-0.7-1.6-1.6v-2.1c0-2.2-1.8-4-4-4c-2.2,0-4,1.8-4,4v2.1c0,0.9-0.7,1.6-1.6,1.6
					c-0.9,0-1.6-0.7-1.6-1.6v-2.1c0-4,3.2-7.2,7.2-7.2c4,0,7.2,3.2,7.2,7.2v2.1C109.2,510.3,108.5,511,107.6,511z" style="fill:#142664;"/>
			</g>
		</g>
		<path d="M163.8,418.6c0-1.1-0.9-2-2-2c-5.3,0-19.3,0-24.6,0c-1.1,0-2,0.9-2,2c0,1.4,0,3.3,0,4.7c0,1.1,0.9,2,2,2
			c5.3,0,19.3,0,24.6,0c1.1,0,2-0.9,2-2C163.8,421.9,163.8,420,163.8,418.6z" style="fill:#142664;"/>
		<path d="M210.2,554c0,1.1,0.9,2,2,2c5.3,0,19.3,0,24.6,0c1.1,0,2-0.9,2-2c0-1.4,0-3.3,0-4.7c0-1.1-0.9-2-2-2
			c-5.3,0-19.3,0-24.6,0c-1.1,0-2,0.9-2,2C210.2,550.7,210.2,552.6,210.2,554z" style="fill:#142664;"/>
		<path d="M224.5,464.4c0-1.1-0.9-2-2-2c-3.9,0-12.4,0-16.3,0c-1.1,0-2,0.9-2,2c0,1.4,0,3.3,0,4.7c0,1.1,0.9,2,2,2
			c3.9,0,12.4,0,16.3,0c1.1,0,2-0.9,2-2C224.5,467.6,224.5,465.8,224.5,464.4z" style="fill:#142664;"/>
		<path d="M184.3,464.4c0-1.1-0.9-2-2-2c-8,0-37.2,0-45.1,0c-1.1,0-2,0.9-2,2c0,1.4,0,3.3,0,4.7c0,1.1,0.9,2,2,2
			c8,0,37.2,0,45.1,0c1.1,0,2-0.9,2-2C184.3,467.6,184.3,465.8,184.3,464.4z" style="fill:#142664;"/>
		<path d="M219.6,418.6c0-1.1-0.9-2-2-2c-8.1,0-38.3,0-46.4,0c-1.1,0-2,0.9-2,2c0,1.4,0,3.3,0,4.7c0,1.1,0.9,2,2,2
			c8.1,0,38.3,0,46.4,0c1.1,0,2-0.9,2-2C219.6,421.9,219.6,420,219.6,418.6z" style="fill:#142664;"/>
		<path d="M154.3,554c0,1.1,0.9,2,2,2c8.1,0,38.3,0,46.4,0c1.1,0,2-0.9,2-2c0-1.4,0-3.3,0-4.7c0-1.1-0.9-2-2-2
			c-8.1,0-38.3,0-46.4,0c-1.1,0-2,0.9-2,2C154.3,550.7,154.3,552.6,154.3,554z" style="fill:#142664;"/>
		<g>
			<path d="M194.4,472.7c-3.3,0-6-2.7-6-6c0-3.3,2.7-6,6-6c3.3,0,6,2.7,6,6C200.4,470,197.7,472.7,194.4,472.7z
				 M194.4,464c-1.5,0-2.7,1.2-2.7,2.7c0,1.5,1.2,2.7,2.7,2.7c1.5,0,2.7-1.2,2.7-2.7C197.2,465.2,195.9,464,194.4,464z" style="fill:#142664;"/>
		</g>
		<circle cx="139.5" cy="512.5" r="4.4" style="fill:#142664;"/>
		<circle cx="165.4" cy="512.5" r="4.4" style="fill:#142664;"/>
		<circle cx="191.2" cy="512.5" r="4.4" style="fill:#142664;"/>
		<circle cx="152.4" cy="512.5" r="4.4" style="fill:#142664;"/>
		<circle cx="178.3" cy="512.5" r="4.4" style="fill:#142664;"/>
		<circle cx="204.1" cy="512.5" r="4.4" style="fill:#142664;"/>
		<circle cx="217.1" cy="512.5" r="4.4" style="fill:#142664;"/>
		<g>
			<g>
				<path d="M257.7,595.6c0-3.8-1.5-7.4-4.2-10.1c-2.7-2.7-6.3-4.2-10.1-4.2c-32.7,0-112.8,0-145.5,0
					c-3.8,0-7.4,1.5-10.1,4.2c-2.7,2.7-4.2,6.3-4.2,10.1c0,2.1,0,4.3,0,6.4c0,3.8,1.5,7.4,4.2,10.1c2.7,2.7,6.3,4.2,10.1,4.2
					c32.7,0,112.8,0,145.5,0c3.8,0,7.4-1.5,10.1-4.2c2.7-2.7,4.2-6.3,4.2-10.1C257.7,599.9,257.7,597.7,257.7,595.6z" style="fill:#FF2E93;"/>
				<path d="M243.4,617.9H97.9c-4.3,0-8.2-1.7-11.2-4.7c-3-3-4.7-7-4.7-11.2v-6.4c0-4.2,1.7-8.2,4.7-11.2
					c3-3,7-4.7,11.2-4.7c0,0,0,0,0,0h145.5c0,0,0,0,0,0c4.2,0,8.2,1.7,11.2,4.7c3,3,4.7,7,4.7,11.2v6.4c0,4.2-1.7,8.2-4.7,11.2
					C251.6,616.3,247.6,617.9,243.4,617.9z M97.9,582.9c-3.4,0-6.6,1.3-9,3.7c-2.4,2.4-3.7,5.6-3.7,9v6.4c0,3.4,1.3,6.6,3.7,9
					c2.4,2.4,5.6,3.7,9,3.7h145.5c3.4,0,6.6-1.3,9-3.7c2.4-2.4,3.7-5.6,3.7-9v-6.4c0-3.4-1.3-6.6-3.7-9c-2.4-2.4-5.6-3.7-9-3.7
					c0,0,0,0,0,0H97.9C97.9,582.9,97.9,582.9,97.9,582.9z" style="fill:#FFFFFF;"/>
			</g>
			<path d="M247.7,596.9c0.6,0.5,0.9,1.2,0.9,1.9s-0.3,1.4-0.9,1.9c-2.5,2.1-6.4,5.4-9.4,7.9c-0.7,0.6-1.8,0.7-2.6,0.3
				c-0.9-0.4-1.4-1.3-1.4-2.2c0-4.6,0-11.2,0-15.7c0-1,0.6-1.8,1.4-2.2c0.9-0.4,1.9-0.3,2.6,0.3
				C241.3,591.5,245.2,594.9,247.7,596.9L247.7,596.9z" style="fill:#FFFFFF;"/>
			<path d="M123.6,591.3c1,0,1.9,0.4,2.6,1.1c0.7,0.7,1.1,1.6,1.1,2.6c0,2.4,0,5.4,0,7.8c0,1-0.4,1.9-1.1,2.6
				c-0.7,0.7-1.6,1.1-2.6,1.1c-5.3,0-15.1,0-20.5,0c-1,0-1.9-0.4-2.6-1.1c-0.7-0.7-1.1-1.6-1.1-2.6c0-2.4,0-5.4,0-7.8
				c0-1,0.4-1.9,1.1-2.6c0.7-0.7,1.6-1.1,2.6-1.1C108.5,591.3,118.3,591.3,123.6,591.3z M135.7,594.9c0-1,0.4-1.9,1.1-2.6
				c0.7-0.7,1.6-1.1,2.6-1.1c14.1,0,64.9,0,79.1,0c1,0,1.9,0.4,2.6,1.1s1.1,1.6,1.1,2.6c0,2.4,0,5.4,0,7.8c0,1-0.4,1.9-1.1,2.6
				c-0.7,0.7-1.6,1.1-2.6,1.1c-14.1,0-64.9,0-79.1,0c-1,0-1.9-0.4-2.6-1.1c-0.7-0.7-1.1-1.6-1.1-2.6
				C135.7,600.3,135.7,597.3,135.7,594.9z" style="fill:#142664;"/>
		</g>
		<g>
			<path d="M134.3,557.4c-0.5,0-0.9-0.2-1.3-0.6l-3.6-4.4c-0.6-0.7-0.5-1.7,0.2-2.3c0.7-0.6,1.7-0.5,2.3,0.2l2.3,2.9
				l5.4-6.6c0.6-0.7,1.6-0.8,2.3-0.2c0.7,0.6,0.8,1.6,0.2,2.3l-6.6,8.2C135.2,557.2,134.8,557.4,134.3,557.4z" style="fill:#FF2E93;"/>
		</g>
		<g>
			<path d="M391.4,529c-1.3,0-2.4-1.1-2.4-2.4v-6.8c0-1.3,1.1-2.4,2.4-2.4c1.3,0,2.4,1.1,2.4,2.4v6.8
				C393.8,527.9,392.7,529,391.4,529z" style="fill:#00E6B3;"/>
		</g>
		<g>
			<path d="M436.7,529c-1.3,0-2.4-1.1-2.4-2.4v-6.8c0-1.3,1.1-2.4,2.4-2.4s2.4,1.1,2.4,2.4v6.8
				C439.2,527.9,438.1,529,436.7,529z" style="fill:#00E6B3;"/>
		</g>
		<path d="M420.7,522.9c0.3,0,0.7,0.2,0.9,0.4c0.2,0.3,0.3,0.6,0.2,1c-0.8,3.6-4,6.2-7.7,6.2c-3.8,0-7-2.7-7.7-6.2
			c-0.1-0.3,0-0.7,0.2-0.9c0.2-0.3,0.5-0.4,0.9-0.4C410.4,522.9,417.7,522.9,420.7,522.9L420.7,522.9z" style="fill:#00E6B3;"/>
		<path d="M479.6,593.1c0-1.4-1.2-2.6-2.6-2.6c-3,0-8,0-11,0c-1.4,0-2.6,1.2-2.6,2.6c0,8.2,0,33.6,0,41.8
			c0,1.4,1.2,2.6,2.6,2.6c3,0,8,0,11,0c1.4,0,2.6-1.2,2.6-2.6C479.6,626.6,479.6,601.3,479.6,593.1z" style="fill:#FFFFFF;"/>
		<g>
			<path d="M471.5,632.8c-0.9,0-1.6-0.7-1.6-1.6v-22.3c0-0.9,0.7-1.6,1.6-1.6c0.9,0,1.6,0.7,1.6,1.6v22.3
				C473.2,632,472.4,632.8,471.5,632.8z" style="fill:#142664;"/>
		</g>
		<path d="M472,602c-0.1,0.3-0.4,0.4-0.7,0.4c-0.3,0-0.6-0.2-0.7-0.4c-0.8-1.6-2.1-4-2.9-5.5c-0.1-0.3-0.1-0.6,0-0.8
			c0.2-0.3,0.4-0.4,0.7-0.4c1.6,0,4.2,0,5.9,0c0.3,0,0.6,0.2,0.7,0.4c0.2,0.3,0.2,0.6,0,0.8C474.2,597.9,472.9,600.4,472,602
			L472,602z" style="fill:#142664;"/>
		<path d="M299,269.4c0.2,0.7,0,1.5-0.5,2.1c-0.5,0.5-1.3,0.7-2.1,0.5c-2.9-0.9-7-2.2-9.8-3c-0.7-0.2-1.2-0.8-1.4-1.5
			c-0.2-0.7,0-1.4,0.5-2c2-2,4.8-4.8,6.8-6.8c0.5-0.5,1.3-0.7,2-0.5c0.7,0.2,1.3,0.7,1.5,1.4C296.9,262.3,298.1,266.4,299,269.4z" style="fill:#FFFFFF;"/>
		<path d="M679.9,564.5c0,0,0.6-0.3,1.3-0.8c0.4-0.3,0.8-0.6,1.2-0.9c0.2-0.2,0.4-0.4,0.6-0.7c0.7-0.9,1.1-1.8,1.1-1.8
			c0.6-0.6,0.6-1.5,0-2.1c-0.6-0.6-1.5-0.6-2.1,0c0,0-0.8,0.4-1.8,1.1c-0.2,0.2-0.5,0.3-0.7,0.6c-0.4,0.4-0.7,0.8-0.9,1.2
			c-0.5,0.7-0.8,1.3-0.8,1.3c-0.6,0.6-0.6,1.5,0,2.1C678.4,565.1,679.3,565.1,679.9,564.5L679.9,564.5z" style="fill:#FFFFFF;"/>
		<path d="M704.5,612.1c0,0,0.6-0.3,1.3-0.8c0.4-0.3,0.8-0.6,1.2-0.9c0.2-0.2,0.4-0.4,0.6-0.7c0.7-0.9,1.1-1.8,1.1-1.8
			c0.6-0.6,0.6-1.5,0-2.1c-0.6-0.6-1.5-0.6-2.1,0c0,0-0.8,0.4-1.8,1.1c-0.2,0.2-0.5,0.3-0.7,0.6c-0.4,0.4-0.7,0.8-0.9,1.2
			c-0.5,0.7-0.8,1.3-0.8,1.3c-0.6,0.6-0.6,1.5,0,2.1C703,612.7,703.9,612.7,704.5,612.1L704.5,612.1z" style="fill:#FFFFFF;"/>
		<path d="M686,619.6c0,0-0.3-0.6-0.8-1.3c-0.3-0.4-0.6-0.8-0.9-1.2c-0.2-0.2-0.4-0.4-0.7-0.6c-0.9-0.7-1.8-1.1-1.8-1.1
			c-0.6-0.6-1.5-0.6-2.1,0c-0.6,0.6-0.6,1.5,0,2.1c0,0,0.4,0.8,1.1,1.8c0.2,0.2,0.3,0.5,0.6,0.7c0.4,0.4,0.8,0.7,1.2,0.9
			c0.7,0.5,1.3,0.8,1.3,0.8c0.6,0.6,1.5,0.6,2.1,0S686.5,620.1,686,619.6L686,619.6z" style="fill:#FFFFFF;"/>
		<path d="M655.9,554.9c0,0-0.3-0.6-0.8-1.3c-0.3-0.4-0.6-0.8-0.9-1.2c-0.2-0.2-0.4-0.4-0.7-0.6
			c-0.9-0.7-1.8-1.1-1.8-1.1c-0.6-0.6-1.5-0.6-2.1,0c-0.6,0.6-0.6,1.5,0,2.1c0,0,0.4,0.8,1.1,1.8c0.2,0.2,0.3,0.5,0.6,0.7
			c0.4,0.4,0.8,0.7,1.2,0.9c0.7,0.5,1.3,0.8,1.3,0.8c0.6,0.6,1.5,0.6,2.1,0C656.5,556.4,656.5,555.4,655.9,554.9z" style="fill:#FFFFFF;"/>
		<path d="M675.5,577.7c0,0,0.3-0.1,0.8-0.3c0.2-0.1,0.5-0.2,0.7-0.5c0.1-0.1,0.2-0.3,0.3-0.4c0.4-0.6,0.5-1.1,0.5-1.1
			c0.6-0.6,0.6-1.5,0-2.1s-1.5-0.6-2.1,0c0,0-0.5,0.1-1.1,0.5c-0.1,0.1-0.3,0.2-0.4,0.3c-0.2,0.2-0.3,0.5-0.5,0.7
			c-0.3,0.5-0.3,0.8-0.3,0.8c-0.6,0.6-0.6,1.5,0,2.1C674,578.2,674.9,578.2,675.5,577.7L675.5,577.7z" style="fill:#FFFFFF;"/>
		<path d="M707.5,596.4c0,0,0.3-0.1,0.8-0.3c0.2-0.1,0.5-0.2,0.7-0.5c0.1-0.1,0.2-0.3,0.3-0.4c0.4-0.6,0.5-1.1,0.5-1.1
			c0.6-0.6,0.6-1.5,0-2.1c-0.6-0.6-1.5-0.6-2.1,0c0,0-0.5,0.1-1.1,0.5c-0.1,0.1-0.3,0.2-0.4,0.3c-0.2,0.2-0.3,0.5-0.5,0.7
			c-0.3,0.5-0.3,0.8-0.3,0.8c-0.6,0.6-0.6,1.5,0,2.1C705.9,597,706.9,597,707.5,596.4L707.5,596.4z" style="fill:#FFFFFF;"/>
		<path d="M690.4,631.3c0,0-0.1-0.3-0.3-0.8c-0.1-0.2-0.2-0.5-0.5-0.7c-0.1-0.1-0.3-0.2-0.4-0.3
			c-0.6-0.4-1.1-0.5-1.1-0.5c-0.6-0.6-1.5-0.6-2.1,0c-0.6,0.6-0.6,1.5,0,2.1c0,0,0.1,0.5,0.5,1.1c0.1,0.1,0.2,0.3,0.3,0.4
			c0.2,0.2,0.5,0.3,0.7,0.5c0.5,0.3,0.8,0.3,0.8,0.3c0.6,0.6,1.5,0.6,2.1,0C691,632.8,691,631.9,690.4,631.3z" style="fill:#FFFFFF;"/>
		<path d="M687.1,605.8c0,0-0.1-0.3-0.3-0.8c-0.1-0.2-0.2-0.5-0.5-0.7c-0.1-0.1-0.3-0.2-0.4-0.3
			c-0.6-0.4-1.1-0.5-1.1-0.5c-0.6-0.6-1.5-0.6-2.1,0c-0.6,0.6-0.6,1.5,0,2.1c0,0,0.1,0.5,0.5,1.1c0.1,0.1,0.2,0.3,0.3,0.4
			c0.2,0.2,0.5,0.3,0.7,0.5c0.5,0.3,0.8,0.3,0.8,0.3c0.6,0.6,1.5,0.6,2.1,0S687.7,606.4,687.1,605.8L687.1,605.8z" style="fill:#FFFFFF;"/>
		<path d="M691.3,565.2c0,0,0.3-0.1,0.8-0.3c0.2-0.1,0.5-0.2,0.7-0.5c0.1-0.1,0.2-0.3,0.3-0.4c0.4-0.6,0.5-1.1,0.5-1.1
			c0.6-0.6,0.6-1.5,0-2.1c-0.6-0.6-1.5-0.6-2.1,0c0,0-0.5,0.1-1.1,0.5c-0.1,0.1-0.3,0.2-0.4,0.3c-0.2,0.2-0.3,0.5-0.5,0.7
			c-0.3,0.5-0.3,0.8-0.3,0.8c-0.6,0.6-0.6,1.5,0,2.1S690.8,565.8,691.3,565.2L691.3,565.2z" style="fill:#FFFFFF;"/>
		<path d="M651.8,542c0,0-0.1-0.3-0.3-0.8c-0.1-0.2-0.2-0.5-0.5-0.7c-0.1-0.1-0.3-0.2-0.4-0.3c-0.6-0.4-1.1-0.5-1.1-0.5
			c-0.6-0.6-1.5-0.6-2.1,0c-0.6,0.6-0.6,1.5,0,2.1c0,0,0.1,0.5,0.5,1.1c0.1,0.1,0.2,0.3,0.3,0.4c0.2,0.2,0.5,0.3,0.7,0.5
			c0.5,0.3,0.8,0.3,0.8,0.3c0.6,0.6,1.5,0.6,2.1,0C652.4,543.5,652.4,542.6,651.8,542L651.8,542z" style="fill:#FFFFFF;"/>
		<path d="M654.2,592c0,0-0.1-0.3-0.3-0.8c-0.1-0.2-0.2-0.5-0.5-0.7c-0.1-0.1-0.3-0.2-0.4-0.3c-0.6-0.4-1.1-0.5-1.1-0.5
			c-0.6-0.6-1.5-0.6-2.1,0c-0.6,0.6-0.6,1.5,0,2.1c0,0,0.1,0.5,0.5,1.1c0.1,0.1,0.2,0.3,0.3,0.4c0.2,0.2,0.5,0.3,0.7,0.5
			c0.5,0.3,0.8,0.3,0.8,0.3c0.6,0.6,1.5,0.6,2.1,0C654.8,593.5,654.8,592.6,654.2,592L654.2,592z" style="fill:#FFFFFF;"/>
		<path d="M676.2,533.3c0,0,0.3-0.1,0.8-0.3c0.2-0.1,0.5-0.2,0.7-0.5c0.1-0.1,0.2-0.3,0.3-0.4c0.4-0.6,0.5-1.1,0.5-1.1
			c0.6-0.6,0.6-1.5,0-2.1c-0.6-0.6-1.5-0.6-2.1,0c0,0-0.5,0.1-1.1,0.5c-0.1,0.1-0.3,0.2-0.4,0.3c-0.2,0.2-0.3,0.5-0.5,0.7
			c-0.3,0.5-0.3,0.8-0.3,0.8c-0.6,0.6-0.6,1.5,0,2.1C674.7,533.9,675.6,533.9,676.2,533.3L676.2,533.3z" style="fill:#FFFFFF;"/>
		<path d="M295.2,243.5c2.1,0,3.9,1.7,3.9,3.9c0,0,0,0,0,0c0,2.1-1.7,3.9-3.9,3.9c-1.9,0-4.3,0-6.2,0
			c-2.1,0-3.9-1.7-3.9-3.9c0,0,0,0,0,0c0-2.1,1.7-3.9,3.9-3.9C291,243.5,293.3,243.5,295.2,243.5z M299.1,233.3c0,1-0.4,2-1.1,2.8
			c-0.7,0.7-1.7,1.1-2.8,1.1c-1.9,0-4.2,0-6.1,0c-1,0-2-0.4-2.8-1.1c-0.7-0.7-1.1-1.7-1.1-2.8c0-3.6,0-8.9,0-12.5c0-1,0.4-2,1.1-2.8
			c0.7-0.7,1.7-1.1,2.8-1.1c1.9,0,4.2,0,6.1,0c1,0,2,0.4,2.8,1.1c0.7,0.7,1.1,1.7,1.1,2.8C299.1,224.3,299.1,229.6,299.1,233.3z
			 M299.1,206.5c0,2.2-1.8,3.9-3.9,3.9c-1.9,0-4.2,0-6.1,0c-2.2,0-3.9-1.8-3.9-3.9c0-5.4,0-14.9,0-20.3c0-2.2,1.8-3.9,3.9-3.9
			c1.9,0,4.2,0,6.1,0c2.2,0,3.9,1.8,3.9,3.9C299.1,191.6,299.1,201.1,299.1,206.5z M299.1,172.6c0,1.8-1.5,3.3-3.3,3.3
			c-2.2,0-5.1,0-7.3,0c-1.8,0-3.3-1.5-3.3-3.3c0,0,0,0,0,0c0-1.8,1.5-3.3,3.3-3.3c2.2,0,5.1,0,7.3,0
			C297.6,169.3,299.1,170.8,299.1,172.6C299.1,172.6,299.1,172.6,299.1,172.6z M299.1,159c0,2.2-1.8,3.9-3.9,3.9c-1.9,0-4.2,0-6.1,0
			c-2.2,0-3.9-1.8-3.9-3.9c0-0.7,0-1.4,0-2c0-2.2,1.8-3.9,3.9-3.9c1.9,0,4.2,0,6.1,0c2.2,0,3.9,1.8,3.9,3.9
			C299.1,157.7,299.1,158.4,299.1,159z" style="fill:#FF2E93;"/>
	</g>
	<g id="perso">
		<g>
			<path d="M177.6,644.3c0,0-1.4,38-1.8,48.5c0,0.7,0.2,1.4,0.7,1.9c0.5,0.5,1.2,0.8,1.9,0.8c1.9,0,4.3,0,6.1,0
				c1.4,0,2.5-1.1,2.6-2.4c0.5-7.7,2.1-31.2,2.1-31.2c0-0.2,0-0.3,0-0.5l0-0.1c0.2-2.5,7.3-2.4,7.5,0l0,0.1c0,0.1,0,0.3,0,0.4l0,0
				c0,0,1.6,23.6,2.2,31.3c0.1,1.4,1.2,2.4,2.6,2.4c1.8,0,4.3,0,6.1,0c0.7,0,1.4-0.3,1.9-0.8c0.5-0.5,0.7-1.2,0.7-1.9
				c-0.4-10.5-2-48.5-2-48.5H177.6z" style="fill:#00E6B3;"/>
			<path d="M197.7,662.5c0,0,0.3,0.2,0.9,0.3c0.3,0.1,0.6,0.1,0.9,0.1c0.2,0,0.3-0.1,0.5-0.1c0.7-0.3,1.1-0.6,1.1-0.6
				c0.8-0.1,1.4-0.8,1.3-1.6c-0.1-0.8-0.8-1.4-1.6-1.3c0,0-0.5-0.2-1.2-0.3c-0.2,0-0.3-0.1-0.5,0c-0.3,0-0.6,0.2-0.8,0.3
				c-0.5,0.2-0.8,0.4-0.8,0.4c-0.8,0.1-1.4,0.8-1.3,1.6C196.2,662,196.9,662.6,197.7,662.5z" style="fill:#142664;"/>
			<path d="M201.4,579.4h-21c0,0-1.4-0.4-1.4,7.8c0,8.2,3.7,16.2,6.6,16.2h1.7v0.4c0,0.5,0.2,1,0.5,1.3
				c0.3,0.3,0.8,0.5,1.3,0.5c2.7,0,7.7,0,10.4,0c0.5,0,1-0.2,1.3-0.5c0.3-0.3,0.5-0.8,0.5-1.3C201.4,597.8,201.4,579.4,201.4,579.4
				L201.4,579.4z" style="fill:#FFFFFF;"/>
			<path d="M199.7,597.4c10.1,1.7,15.4-26.2,3.2-25c-16.1-17.9-36.6-1-22.3,9.1c0.2,0.2,0.5,0.2,0.8,0.2c0,0,0,0,0,0
				c3.2,0,2.8,5.3,3,7.6c0.2,2.1,2.9,1.7,2.9-0.3c-0.1-4.8,4.5-3.8,4-0.8C190.8,591.1,191.1,597.8,199.7,597.4z" style="fill:#142664;"/>
			<path d="M184.7,578.1c0,0-0.9,5.9-0.2,12.1c0.3,2.7,0.9,5.5,2,7.9c0.2,0.5,0.8,0.8,1.3,0.6c0.5-0.2,0.8-0.8,0.6-1.3
				c-0.8-2.2-1-4.8-1-7.3c0-5.8,1.3-11.1,1.3-11.1c0.2-1.1-0.5-2.2-1.6-2.4C186,576.3,184.9,577,184.7,578.1z" style="fill:#142664;"/>
			<path d="M179.3,604.7c3.5-1.9,7.3-3.2,15.3-3.2c7.8,0,10.6,1.3,14.1,3.1c3.1,1.3,5.3,4.3,5.3,7.9
				c0,3.9-2.7,7.2-6.3,8.2l0.3,27h-30.5l-0.8-29c-1.6-1.5-2.6-3.7-2.6-6.1C174.2,609.1,176.3,606.1,179.3,604.7L179.3,604.7z" style="fill:#142664;"/>
			<path d="M210.3,699.6c0,0.4-0.1,0.7-0.4,1c-0.3,0.3-0.6,0.4-1,0.4c-2.7,0-8.8,0-10.9,0c-0.5,0-0.9-0.3-1-0.8
				c0.1-0.8,0.5-2.3,2.2-4c0.5-0.4,1.1-0.7,1.7-0.7c1.7,0,5.4,0,7.6,0c0.5,0,0.9,0.2,1.3,0.5c0.3,0.3,0.5,0.8,0.5,1.3
				C210.3,698,210.3,698.9,210.3,699.6z" style="fill:#142664;"/>
			<path d="M187.4,699.6c0,0.4-0.1,0.7-0.4,1s-0.6,0.4-1,0.4c-2.7,0-8.8,0-10.9,0c-0.5,0-0.9-0.3-1-0.8
				c0.1-0.8,0.5-2.3,2.2-4c0.5-0.4,1.1-0.7,1.7-0.7c1.7,0,5.4,0,7.6,0c0.5,0,0.9,0.2,1.3,0.5c0.3,0.3,0.5,0.8,0.5,1.3
				C187.4,698,187.4,698.9,187.4,699.6z" style="fill:#142664;"/>
			<path d="M150.1,597.6c0.1,0.1,0.2,0.1,0.2,0.1c0.1,0,0.2-0.1,0.2-0.2c0,0,0,0,0,0c0.3-1,1.3-1.6,2.3-1.3
				c1,0.3,1.6,1.3,1.3,2.3c-0.4,1.3-0.6,2.5-0.7,3.6c0,0.1,0,0.3,0,0.4c0,0,0,0,0,0c0,0,0,0.1,0.1,0.1c0,0,0.1,0,0.1,0
				c0.7-0.9,2-0.3,2.4,0.6c0.4,0.8,0.3,4.3-1.3,5.9c0,0-6.2,9-8.5,1.8c-0.1-0.2-0.1-0.3-0.2-0.5c-0.5-1.1-1.7-3.9-2-8.1
				c-0.1-1,0.7-2,1.8-2c0.1,0,0.3,0,0.4,0c0.2,0,0.3,0,0.4-0.1c0.1-0.1,0.2-0.2,0.2-0.4c0-0.3,0-0.6,0.1-1c0.1-1,1-1.8,2-1.8
				C149.4,597.1,149.8,597.3,150.1,597.6L150.1,597.6z" style="fill:#FFFFFF;"/>
			<path d="M175.7,605.3c-7,4.2-17.8,13.1-20,3.6c-1.4-5.9-9.5-3.6-9.4,1.9c0.3,17.3,20.4,19.5,32.7,9.6
				C179,620.4,189.4,610.4,175.7,605.3z" style="fill:#142664;"/>
			<path d="M196.2,612.7c5.6,5.9,16.6,14.5,7.8,18.7c-5.5,2.6-1.5,10,3.9,8.8c16.9-4,15.4-29.1,0.4-35.8
				C208.2,604.4,198.3,598.3,196.2,612.7z" style="fill:#142664;"/>
			<path d="M178.4,624.7c0,0,0.7-0.2,1.9-0.7c0.5-0.2,1.1-0.6,1.6-1c0.3-0.2,0.5-0.5,0.8-0.9c0.5-0.7,1-1.5,1.4-2.4
				c0.5-0.7,0.3-1.6-0.4-2.1c-0.7-0.5-1.6-0.3-2.1,0.4c-0.3,0.3-0.6,0.5-0.9,0.8c-0.5,0.4-1,0.7-1.4,1.1c-0.4,0.4-0.7,0.8-1,1
				c-0.7,0.6-1,1-1,1c-0.7,0.3-1.1,1.2-0.7,2S177.7,625,178.4,624.7L178.4,624.7z" style="fill:#00E6B3;"/>
			<path d="M210.7,637.6c0.1-0.6,0.3-1.8,0.6-3.4c0.2-1,0.3-2.3,0.4-3.6c0-0.7,0-1.4,0-2.2c-0.1-1.6-0.3-3.3-0.6-5.1
				c0-0.8-0.7-1.5-1.6-1.4c-0.8,0-1.5,0.7-1.4,1.6c-0.1,1.8-0.2,3.4-0.3,4.9c-0.1,0.7-0.1,1.4-0.1,2.1c0,1.3,0,2.5,0,3.5
				c0,1.8,0,3,0.1,3.7c0,0.8,0.7,1.5,1.5,1.5C210,639.1,210.7,638.4,210.7,637.6L210.7,637.6z" style="fill:#00E6B3;"/>
		</g>
		<circle cx="208.2" cy="574.7" r="8.9" style="fill:#142664;"/>
		<path d="M215.7,563.1l-4.2,5.5c-0.4,0.4-0.4,1,0,1.4c0.4,0.4,1,0.4,1.4,0l5.6-4c0.8-0.8,0.8-2,0.1-2.8
			C217.8,562.3,216.5,562.3,215.7,563.1z" style="fill:#FFFFFF;"/>
		<path d="M221.1,571.2l-6.6,2c-0.5,0.1-0.9,0.6-0.8,1.1c0.1,0.5,0.6,0.9,1.1,0.8l6.9,0c1.1-0.2,1.9-1.2,1.7-2.3
			C223.3,571.7,222.2,571,221.1,571.2L221.1,571.2z" style="fill:#FFFFFF;"/>
	</g>
</g>
</svg>