<?xml version="1.0" encoding="UTF-8"?><svg version="1.1" id="Calque_1" xmlns:serif="http://www.serif.com/" xmlns="http://www.w3.org/2000/svg" xmlns:xlink="http://www.w3.org/1999/xlink" x="0px" y="0px" viewBox="0 0 800 800" style="enable-background:new 0 0 800 800;" xml:space="preserve" width="800px" height="800px">

<g id="Calque4">
	<path d="M189.6,501c0,0-5.8,12.7-1.9,27.3c2.6,9.6,34.8,7.3,30-24.6L189.6,501L189.6,501z" style="fill:#FF2E93;"/>
	<path d="M96.2,639.7c0,0,17.8-3.1,29.5,0c8.7,2.3,13.6,10,16.1,16.1c0.7,1.8,0.5,3.8-0.6,5.5c-1.1,1.6-2.9,2.6-4.8,2.6
		c-9.6,0-25.6,0-34.2,0c-3.2,0-5.9-2.6-5.9-5.9C96.2,650.8,96.2,639.7,96.2,639.7L96.2,639.7z" style="fill:#142664;"/>
	<path d="M154.6,639.7c0,0,17.8-3.1,29.5,0c8.7,2.3,13.6,10,16.1,16.1c0.7,1.8,0.5,3.8-0.6,5.5
		c-1.1,1.6-2.9,2.6-4.8,2.6c-9.6,0-25.6,0-34.2,0c-3.2,0-5.9-2.6-5.9-5.9C154.6,650.8,154.6,639.7,154.6,639.7L154.6,639.7z" style="fill:#142664;"/>
	<path d="M192,478.5c0,0-2.3,130.3-2.3,159.5c0,3-2.4,5.4-5.4,5.4c-8,0-18.2,0-26.2,0c-3,0-5.4-2.4-5.4-5.4l-2.3-104.7
		c0-7.3-16.7-7.3-16.7,0L131.6,638c0,3-2.4,5.4-5.4,5.4c-8,0-18.2,0-26.2,0c-3,0-5.4-2.4-5.4-5.4c0-29.2-2.3-159.5-2.3-159.5
		L192,478.5L192,478.5z" style="fill:#00E6B3;"/>
	<g>
		<defs>
			<path id="SVGID_1_" d="M192,478.5c0,0-2.3,130.3-2.3,159.5c0,3-2.4,5.4-5.4,5.4c-8,0-18.2,0-26.2,0c-3,0-5.4-2.4-5.4-5.4
				l-2.3-104.7c0-7.3-16.7-7.3-16.7,0L131.6,638c0,3-2.4,5.4-5.4,5.4c-8,0-18.2,0-26.2,0c-3,0-5.4-2.4-5.4-5.4
				c0-29.2-2.3-159.5-2.3-159.5L192,478.5L192,478.5z"/>
		</defs>
		<clipPath id="SVGID_2_">
			<use xlink:href="#SVGID_1_" style="overflow:visible;"/>
		</clipPath>
		<g style="clip-path:url(#SVGID_2_);">
			<path d="M140.6,533.8c0,0,2.1,0.3,4.9,0.6c1.5,0.1,3.2,0.3,4.9,0.3c1,0,2-0.1,2.9-0.1c3.8-0.3,6.9-0.7,6.9-0.7
				c1.4,0,2.5-1.1,2.5-2.5c0-1.4-1.1-2.5-2.5-2.5c0,0-3.1-0.4-6.9-0.7c-1-0.1-1.9-0.1-2.9-0.1c-1.7,0-3.4,0.2-4.9,0.3
				c-2.8,0.3-4.9,0.6-4.9,0.6c-1.4,0-2.5,1.1-2.5,2.5C138.1,532.7,139.2,533.8,140.6,533.8L140.6,533.8z" style="fill:#142664;"/>
		</g>
	</g>
	<path d="M116.8,497.6c0,0-0.3,4.2-2.3,9.1c-1.1,2.6-2.6,5.3-4.9,7.7c-1.2,1.2-2.5,2.4-4.1,3.4c-3.1,2-7.1,3.3-12.4,3.5
		c-0.9,0-1.7,0.7-1.7,1.7c0,0.9,0.7,1.7,1.7,1.7c6.1,0.2,10.8-1.1,14.6-3.1c2-1.1,3.8-2.5,5.2-4.1c2.7-2.9,4.4-6.2,5.4-9.3
		c1.9-5.6,1.8-10.5,1.8-10.5c0-0.9-0.7-1.7-1.6-1.7C117.6,495.9,116.9,496.7,116.8,497.6z" style="fill:#142664;"/>
	<path d="M176.9,497.6c0,0-0.3,5.5,0.8,11.5c0.3,1.5,0.7,3.1,1.2,4.6c0.3,1,0.7,2,1.2,3c2.3,4.8,6,8.2,11.1,8
		c0.9,0,1.7-0.7,1.7-1.7c0-0.9-0.7-1.7-1.7-1.7c-3.6-0.2-5.7-3.1-7.1-6.5c-0.3-0.8-0.7-1.7-0.9-2.6c-0.4-1.3-0.8-2.7-1.2-4
		c-1.4-5.5-1.8-10.6-1.8-10.6c0-0.9-0.8-1.7-1.7-1.6C177.7,496,176.9,496.7,176.9,497.6L176.9,497.6z" style="fill:#142664;"/>
	<path d="M100.6,296.6c2.9-14.8,15.7-8.6,21.3-0.7c5.9,8.2,16.3,24.6,6.7,42.8c-9.6,18.2-55.2,0.9-41.6-9.4
		c1.3-1,2.6-2.2,3.8-3.6c0.5-0.6,0.7-1.3,0.6-2c-0.1-0.7-0.4-1.4-1-1.9c-3.8-3.1-5.5-6.8-1.8-8.4C92.8,311.8,98.2,307.9,100.6,296.6
		L100.6,296.6L100.6,296.6z" style="fill:#142664;"/>
	<path d="M93.4,502.3c0,0,6,12.7,1.9,27.4c-2.7,9.6-36.2,7.1-31.2-24.8L93.4,502.3L93.4,502.3z" style="fill:#FF2E93;"/>
	<path d="M191.7,496.4H94.6c0,0.6,0.1,1.2,0.1,1.8c0.7,9.4-6.6,9.7-16.2,10.4c-9.6,0.7-18,1.4-18.7-8
		c-3.4-47.8,1-80.8,5.8-101.9c0.1-0.5,0.2-1,0.4-1.6c0.3-1.3,0.6-2.5,0.9-3.7c5.9-20.7,23.2-29.6,37.3-32.8
		c13.6-2.8,29.2-3.9,42.3-3.9c10.9,0,20.7,1.2,29.1,3.2c0.5,0.3,1.2,0.5,2.1,0.7c14.8,3.4,34.2,13,38.2,36.4
		c3.2,19.1,8.4,58.6,5.2,102.2c-0.7,9.4-9,8.6-18.7,8c-4-0.3-8.1-0.4-10.9-1.3L191.7,496.4z" style="fill:#142664;"/>
	<g>
		<defs>
			<path id="SVGID_3_" d="M191.7,496.4H94.6c0,0.6,0.1,1.2,0.1,1.8c0.7,9.4-6.6,9.7-16.2,10.4c-9.6,0.7-18,1.4-18.7-8
				c-3.4-47.8,1-80.8,5.8-101.9c0.1-0.5,0.2-1,0.4-1.6c0.3-1.3,0.6-2.5,0.9-3.7c5.9-20.7,23.2-29.6,37.3-32.8
				c13.6-2.8,29.2-3.9,42.3-3.9c10.9,0,20.7,1.2,29.1,3.2c0.5,0.3,1.2,0.5,2.1,0.7c14.8,3.4,34.2,13,38.2,36.4
				c3.2,19.1,8.4,58.6,5.2,102.2c-0.7,9.4-9,8.6-18.7,8c-4-0.3-8.1-0.4-10.9-1.3L191.7,496.4z"/>
		</defs>
		<clipPath id="SVGID_4_">
			<use xlink:href="#SVGID_3_" style="overflow:visible;"/>
		</clipPath>
	</g>
	<path d="M115.4,354.6c-1.6-0.5-5.7-7.2-6.6-12.1c-7.6-39.3,8.5-64,8.5-64s27.3-14.9,68.6,3.8c0,0,4.4,21.4-2.6,58.1
		c-2.4,12.3-10.9,15.9-13.1,16.5c0,0,0.1,2.9,0.1,5.2c0,1.6-1.1,3-2.7,3.3c-6.7,0.9-25,2.8-49.3-0.1c-1.7-0.2-2.9-1.6-2.9-3.3
		C115.4,359,115.4,354.6,115.4,354.6L115.4,354.6z" style="fill:#FF2E93;"/>
	<path d="M167.2,355.9c0,0-0.9-0.1-2.6-0.1c-1.1,0-2.4,0-3.9,0.1c-1.2,0.1-2.5,0.3-3.9,0.5c-0.9,0.1-1.7,0.3-2.7,0.5
		c-1.1-0.1-2.2,0.8-2.3,1.9c-0.1,1.1,0.8,2.2,1.9,2.3c1,0.3,1.9,0.6,2.9,0.8c1.6,0.3,3.1,0.4,4.4,0.3c1.7-0.1,3.2-0.5,4.4-0.8
		c1.9-0.6,2.8-1.2,2.8-1.2c1.1-0.3,1.8-1.4,1.5-2.6C169.4,356.3,168.3,355.6,167.2,355.9L167.2,355.9z" style="fill:#142664;"/>
	<path d="M176.2,312.1c0,0-0.5,1.3-0.5,2.7c-0.1,1.4,0.3,2.8,0.3,2.8c-0.1,1.6,1.2,3,2.8,3.1c1.6,0.1,3-1.2,3.1-2.8
		c0,0,0.5-1.3,0.5-2.7c0.1-1.4-0.3-2.8-0.3-2.8c0.1-1.6-1.2-3-2.8-3.1C177.7,309.2,176.3,310.5,176.2,312.1L176.2,312.1z" style="fill:#142664;"/>
	<path d="M145.5,311.5c0,0-0.5,1.3-0.5,2.7c-0.1,1.4,0.3,2.8,0.3,2.8c-0.1,1.6,1.2,3,2.8,3.1c1.6,0.1,3-1.2,3.1-2.8
		c0,0,0.5-1.3,0.5-2.7c0.1-1.4-0.3-2.8-0.3-2.8c0.1-1.6-1.2-3-2.8-3.1C147,308.6,145.6,309.9,145.5,311.5L145.5,311.5z" style="fill:#142664;"/>
	<path d="M156.8,338.8c0,0,1.3,0.3,3.1,0.6c0.9,0.1,2,0.3,3.1,0.3c0.6,0,1.3-0.1,1.9-0.1c2.4-0.3,4.3-0.7,4.3-0.7
		c1.4,0,2.5-1.1,2.5-2.5s-1.1-2.5-2.5-2.5c0,0-1.9-0.4-4.3-0.7c-0.6-0.1-1.2-0.1-1.9-0.1c-1.1,0-2.2,0.2-3.1,0.3
		c-1.8,0.3-3.1,0.6-3.1,0.6c-1.4,0-2.5,1.1-2.5,2.5S155.4,338.8,156.8,338.8z" style="fill:#142664;"/>
	<path d="M142.8,314c0,0,1.1,0.3,2.8,0.6c0.8,0.1,1.8,0.3,2.8,0.3c0.6,0,1.1-0.1,1.7-0.1c2.2-0.3,3.9-0.7,3.9-0.7
		c1.4,0,2.5-1.1,2.5-2.5c0-1.4-1.1-2.5-2.5-2.5c0,0-1.7-0.4-3.9-0.7c-0.5-0.1-1.1-0.1-1.7-0.1c-1,0-1.9,0.2-2.8,0.3
		c-1.6,0.3-2.8,0.6-2.8,0.6c-1.4,0-2.5,1.1-2.5,2.5C140.3,312.9,141.4,314,142.8,314L142.8,314z" style="fill:#142664;"/>
	<path d="M173.4,314c0,0,1.1,0.3,2.8,0.6c0.8,0.1,1.8,0.3,2.8,0.3c0.6,0,1.1-0.1,1.7-0.1c2.2-0.3,3.9-0.7,3.9-0.7
		c1.4,0,2.5-1.1,2.5-2.5c0-1.4-1.1-2.5-2.5-2.5c0,0-1.7-0.4-3.9-0.7c-0.5-0.1-1.1-0.1-1.7-0.1c-1,0-1.9,0.2-2.8,0.3
		c-1.6,0.3-2.8,0.6-2.8,0.6c-1.4,0-2.5,1.1-2.5,2.5C171,312.9,172.1,314,173.4,314L173.4,314z" style="fill:#142664;"/>
	<path d="M107.7,335.3c-12.7-19-11.9-61.9,19.5-73.8c45.2-17,77.1,12.8,60,42l-1.3-17c-26.8,10.9-27-5.7-41.4-3.8
		c-14.4,1.9-16.1,17.9-13,31.7c1.6,7.5-9.5,7.7-8.1,0.6c1-5.1-0.1-10.8-5-10c-6.6,1.1-2.1,10.9-2.4,19.3
		C115.7,331.2,107.7,335.3,107.7,335.3L107.7,335.3z" style="fill:#142664;"/>
	<path d="M382.6,492.2l-4.5-9.8c0,0-4.1-3,2.5-3c4.5,0,15.7,0,21,5.1c10.2,10.2,32.8,32.8,39.8,39.8
		c1.4,1.4,2.1,3.2,2.1,5.1c0,13.7,0,70.3,0,84c0,1.9-0.8,3.8-2.1,5.1c-7,7-29.6,29.6-39.8,39.8c-0.7,0.7-1.4,1.2-2.3,1.5
		c-5.9,3.6-13.2,3.6-18.7,3.6c-6.6,0-2.5-3-2.5-3l4.3-9.6c-11.2-11.3-26.4-26.8-31.9-32.3c-1.4-1.4-2.1-3.2-2.1-5.1
		c0-13.7,0-70.3,0-84c0-1.9,0.8-3.8,2.1-5.1L382.6,492.2L382.6,492.2z" style="fill:#142664;"/>
	<rect x="411" y="520.2" width="35.1" height="76.7" style="fill:#FF2E93;"/>
	<path d="M416.2,530.9c-1.7,1.7-4.4,2.3-6.6,1.3c-2.3-0.9-3.8-3.2-3.8-5.6c0-19.6,0-53.4,0-68.2c0-4,3.3-7.3,7.3-7.3
		c29,0,136.6,0,165.6,0c4,0,7.3,3.3,7.3,7.3c0,26.9,0,120.3,0,138.3c0,1.9,0.8,3.8,2.1,5.1c4,4,13,13,20.6,20.6
		c2.1,2.1,2.7,5.2,1.6,7.9c-1.1,2.7-3.8,4.5-6.7,4.5c-41.1,0-141.7,0-160.4,0c-1.9,0-3.8-0.8-5.1-2.1c-6.2-6.2-24-24-30.2-30.2
		c-1.4-1.4-2.1-3.2-2.1-5.1c0-1.5,0-3.4,0-4.9c0-1.9,0.8-3.8,2.1-5.1c5.1-5.1,17.8-17.8,17.8-17.8c2.6-2.6,2.6-6.9,0-9.5
		c-2.6-2.6-6.9-2.6-9.5,0c0,0-1.8,1.8-4,4c-1.1,1.1-2.7,1.4-4.1,0.8c-1.4-0.6-2.3-2-2.3-3.5v0c0-0.6,0.2-1.2,0.7-1.6
		c3.4-3.4,19.3-19.3,19.3-19.3c2.6-2.6,2.6-6.9,0-9.5C423.1,528.3,418.8,528.3,416.2,530.9C416.2,530.9,416.2,530.9,416.2,530.9
		L416.2,530.9z" style="fill:#00E6B3;"/>
	<path d="M578.1,262.6c0,1.9-0.8,3.8-2.1,5.1c-1.4,1.4-3.2,2.1-5.1,2.1c-28.1,0-129.6,0-157.8,0c-1.9,0-3.8-0.8-5.1-2.1
		c-1.4-1.4-2.1-3.2-2.1-5.1c0-10.4,0-29.5,0-39.9c0-1.9,0.8-3.8,2.1-5.1c1.4-1.4,3.2-2.1,5.1-2.1c28.1,0,129.6,0,157.8,0
		c1.9,0,3.8,0.8,5.1,2.1c1.4,1.4,2.1,3.2,2.1,5.1C578.1,233.1,578.1,252.2,578.1,262.6z" style="fill:#00E6B3;"/>
	<rect x="462.5" y="269.9" width="146.4" height="124.6" style="fill:#00E6B3;"/>
	<path d="M670.8,317c0,0,32.6,32.6,41.3,41.3c1.4,1.4,2.1,3.2,2.1,5.1c0,18.8,0,120.2,0,148.4c0,1.9-0.8,3.8-2.1,5.1
		c-1.4,1.4-3.2,2.1-5.1,2.1c-8,0-20.9,0-28.9,0c-1.9,0-3.8-0.8-5.1-2.1c-1.4-1.4-2.1-3.2-2.1-5.1C670.8,475.7,670.8,317,670.8,317
		L670.8,317z" style="fill:#FF2E93;"/>
	<path d="M555.6,222.7c0-1.9,0.8-3.8,2.1-5.1c1.4-1.4,3.2-2.1,5.1-2.1c17.1,0,59.5,0,71.1,0c1.9,0,3.8,0.8,5.1,2.1
		c6.1,6.1,23.5,23.5,29.6,29.6c1.4,1.4,2.1,3.2,2.1,5.1v191.6c0,1.9,0.8,3.8,2.1,5.1c1.4,1.4,3.2,2.1,5.1,2.1c9.3,0,25.4,0,34.8,0
		c1.9,0,3.8,0.8,5.1,2.1c1.4,1.4,2.1,3.2,2.1,5.1c0,4.9,0,11.3,0,16.2c0,1.9-0.8,3.8-2.1,5.1c-1.4,1.4-3.2,2.1-5.1,2.1
		c-9.3,0-25.4,0-34.8,0c-1.9,0-3.8,0.8-5.1,2.1c-1.4,1.4-2.1,3.2-2.1,5.1v11.6c0,1.9,0.8,3.8,2.1,5.1c1.4,1.4,3.2,2.1,5.1,2.1h34.8
		c4,0,7.3,3.3,7.3,7.3c0,18.8,0,68.6,0,81.4c0,1.9-0.8,3.8-2.1,5.1c-6.3,6.3-24.6,24.6-30.9,30.9c-1.4,1.4-3.2,2.1-5.1,2.1
		c-14.5,0-77.1,0-91.6,0c-1.9,0-3.8-0.8-5.1-2.1c-6.3-6.3-24.6-24.6-30.9-30.9c-1.4-1.4-2.1-3.2-2.1-5.1c0-19.1,0-123.4,0-142.6
		c0-1.9,0.8-3.8,2.1-5.1c9-9,43.5-43.5,52.5-52.5c1.4-1.4,2.1-3.2,2.1-5.1V277.1c0-1.9-0.8-3.8-2.1-5.1c-1.4-1.4-3.2-2.1-5.1-2.1
		c-10.2,0-28.6,0-38.8,0c-1.9,0-3.8-0.8-5.1-2.1c-1.4-1.4-2.1-3.2-2.1-5.1C555.6,252.2,555.6,233.1,555.6,222.7z" style="fill:#142664;"/>
	<path d="M598.9,284.2c0-2.8-2.3-5.1-5.1-5.1c-20.4,0-95.8,0-116.2,0c-2.8,0-5.1,2.3-5.1,5.1c0,17.9,0,78,0,95.9
		c0,2.8,2.3,5.1,5.1,5.1c20.4,0,95.8,0,116.2,0c2.8,0,5.1-2.3,5.1-5.1C598.9,362.2,598.9,302.1,598.9,284.2z" style="fill:#FFFFFF;"/>
	<path d="M405.8,451.2h146.4l56.7-56.7H462.5L405.8,451.2L405.8,451.2z" style="fill:#FFFFFF;"/>
	<path d="M483.8,404c0.2,0.2,0.5,0.4,0.7,0.7l0,0l0,0c0.6,0.8,1,1.8,1,2.8c0,2.5-2,4.5-4.5,4.5H471
		c-1.3,0-2.4-0.5-3.3-1.4l0,0l-4.3-4.3l5-1.8c0.8-0.7,1.8-1.1,3-1.1h0.1l8.5-3.1L483.8,404L483.8,404z" style="fill:#142664;"/>
	<path d="M466.6,407.6h9.9c2.5,0,4.5-2,4.5-4.5c0-2.5-2-4.5-4.5-4.5h-9.9c-2.5,0-4.5,2-4.5,4.5
		C462.1,405.6,464.2,407.6,466.6,407.6z" style="fill:#00E6B3;"/>
	<g>
		<path d="M590.5,504.1l8.5-8.5c1.3-1.3,1.3-3.5,0-4.9s-3.5-1.3-4.9,0l-8.5,8.5c-1.3,1.3-1.3,3.5,0,4.9
			S589.2,505.4,590.5,504.1z" style="fill:#00E6B3;"/>
		<path d="M607,504.1l8.5-8.5c1.3-1.3,1.3-3.5,0-4.9c-1.3-1.3-3.5-1.3-4.9,0l-8.5,8.5c-1.3,1.3-1.3,3.5,0,4.9
			C603.5,505.4,605.7,505.4,607,504.1z" style="fill:#00E6B3;"/>
		<path d="M623.5,504.1l8.5-8.5c1.3-1.3,1.3-3.5,0-4.9s-3.5-1.3-4.9,0l-8.5,8.5c-1.3,1.3-1.3,3.5,0,4.9
			S622.2,505.4,623.5,504.1z" style="fill:#00E6B3;"/>
	</g>
	<g>
		<path d="M593.1,521.5l8.5-8.5c1.3-1.3,1.3-3.5,0-4.9c-1.3-1.3-3.5-1.3-4.9,0l-8.5,8.5c-1.3,1.3-1.3,3.5,0,4.9
			C589.6,522.9,591.8,522.9,593.1,521.5L593.1,521.5z" style="fill:#00E6B3;"/>
		<path d="M609.6,521.5l8.5-8.5c1.3-1.3,1.3-3.5,0-4.9c-1.3-1.3-3.5-1.3-4.9,0l-8.5,8.5c-1.3,1.3-1.3,3.5,0,4.9
			C606.1,522.9,608.3,522.9,609.6,521.5L609.6,521.5z" style="fill:#00E6B3;"/>
	</g>
	<path d="M509.6,404c0.2,0.2,0.5,0.4,0.7,0.7l0,0l0,0c0.6,0.8,1,1.8,1,2.8c0,2.5-2,4.5-4.5,4.5h-9.9
		c-1.3,0-2.4-0.5-3.3-1.4l0,0l-4.3-4.3l5-1.8c0.8-0.7,1.8-1.1,3-1.1h0.1l8.5-3.1L509.6,404L509.6,404z" style="fill:#142664;"/>
	<path d="M492.4,407.6h9.9c2.5,0,4.5-2,4.5-4.5c0-2.5-2-4.5-4.5-4.5h-9.9c-2.5,0-4.5,2-4.5,4.5
		C487.9,405.6,489.9,407.6,492.4,407.6z" style="fill:#00E6B3;"/>
	<path d="M535.3,404c0.2,0.2,0.5,0.4,0.7,0.7l0,0l0,0c0.6,0.8,1,1.8,1,2.8c0,2.5-2,4.5-4.5,4.5h-9.9
		c-1.3,0-2.4-0.5-3.3-1.4l0,0l-4.3-4.3l5-1.8c0.8-0.7,1.8-1.1,3-1.1h0.1l8.5-3.1L535.3,404L535.3,404z" style="fill:#142664;"/>
	<path d="M518.1,407.6h9.9c2.5,0,4.5-2,4.5-4.5c0-2.5-2-4.5-4.5-4.5h-9.9c-2.5,0-4.5,2-4.5,4.5
		C513.6,405.6,515.7,407.6,518.1,407.6z" style="fill:#00E6B3;"/>
	<path d="M469.1,419.4c0.2,0.2,0.5,0.4,0.7,0.7l0,0l0,0c0.6,0.8,1,1.8,1,2.8c0,2.5-2,4.5-4.5,4.5h-9.9
		c-1.3,0-2.4-0.5-3.3-1.4h0l-4.3-4.3l5-1.8c0.8-0.7,1.8-1.1,3-1.1h0.1l8.5-3.1L469.1,419.4L469.1,419.4z" style="fill:#142664;"/>
	<path d="M451.9,422.9h9.9c2.5,0,4.5-2,4.5-4.5c0-2.5-2-4.5-4.5-4.5h-9.9c-2.5,0-4.5,2-4.5,4.5
		C447.4,420.9,449.5,422.9,451.9,422.9z" style="fill:#00E6B3;"/>
	<path d="M494.9,419.4c0.2,0.2,0.5,0.4,0.7,0.7l0,0l0,0c0.6,0.8,1,1.8,1,2.8c0,2.5-2,4.5-4.5,4.5h-9.9
		c-1.3,0-2.4-0.5-3.3-1.4h0l-4.3-4.3l5-1.8c0.8-0.7,1.8-1.1,3-1.1h0.1l8.5-3.1L494.9,419.4L494.9,419.4z" style="fill:#142664;"/>
	<path d="M477.7,422.9h9.9c2.5,0,4.5-2,4.5-4.5c0-2.5-2-4.5-4.5-4.5h-9.9c-2.5,0-4.5,2-4.5,4.5
		C473.2,420.9,475.2,422.9,477.7,422.9z" style="fill:#00E6B3;"/>
	<path d="M520.6,419.4c0.2,0.2,0.5,0.4,0.7,0.7l0,0l0,0c0.6,0.8,1,1.8,1,2.8c0,2.5-2,4.5-4.5,4.5h-9.9
		c-1.3,0-2.4-0.5-3.3-1.4h0l-4.3-4.3l5-1.8c0.8-0.7,1.8-1.1,3-1.1h0.1l8.5-3.1L520.6,419.4L520.6,419.4z" style="fill:#142664;"/>
	<path d="M503.4,422.9h9.9c2.5,0,4.5-2,4.5-4.5c0-2.5-2-4.5-4.5-4.5h-9.9c-2.5,0-4.5,2-4.5,4.5
		C498.9,420.9,501,422.9,503.4,422.9z" style="fill:#FFFFFF;"/>
	<path d="M453.2,434.7c0.2,0.2,0.5,0.4,0.7,0.7l0,0l0,0c0.6,0.8,1,1.8,1,2.8c0,2.5-2,4.5-4.5,4.5h-9.9
		c-1.3,0-2.4-0.5-3.3-1.4l0,0l-4.3-4.3l5-1.8c0.8-0.7,1.8-1.1,3-1.1h0.1l8.5-3.1L453.2,434.7L453.2,434.7z" style="fill:#142664;"/>
	<path d="M436,438.3h9.9c2.5,0,4.5-2,4.5-4.5c0-2.5-2-4.5-4.5-4.5H436c-2.5,0-4.5,2-4.5,4.5
		C431.5,436.3,433.5,438.3,436,438.3z" style="fill:#00E6B3;"/>
	<path d="M478.9,434.7c0.2,0.2,0.5,0.4,0.7,0.7v0l0,0c0.6,0.8,1,1.8,1,2.8c0,2.5-2,4.5-4.5,4.5h-9.9
		c-1.3,0-2.4-0.5-3.3-1.4l0,0l-4.3-4.3l5-1.8c0.8-0.7,1.8-1.1,3-1.1h0.1l8.5-3.1L478.9,434.7L478.9,434.7z" style="fill:#142664;"/>
	<path d="M461.7,438.3h9.9c2.5,0,4.5-2,4.5-4.5c0-2.5-2-4.5-4.5-4.5h-9.9c-2.5,0-4.5,2-4.5,4.5
		C457.2,436.3,459.3,438.3,461.7,438.3z" style="fill:#00E6B3;"/>
	<path d="M504.7,434.7c0.2,0.2,0.5,0.4,0.7,0.7v0l0,0c0.6,0.8,1,1.8,1,2.8c0,2.5-2,4.5-4.5,4.5h-9.9
		c-1.3,0-2.4-0.5-3.3-1.4l0,0l-4.3-4.3l5-1.8c0.8-0.7,1.8-1.1,3-1.1h0.1l8.5-3.1L504.7,434.7L504.7,434.7z" style="fill:#142664;"/>
	<path d="M487.5,438.3h9.9c2.5,0,4.5-2,4.5-4.5c0-2.5-2-4.5-4.5-4.5h-9.9c-2.5,0-4.5,2-4.5,4.5
		C483,436.3,485,438.3,487.5,438.3z" style="fill:#FF2E93;"/>
	<g>
		<path d="M553.1,438.7h-31.7c-1,0-1.8-0.8-1.8-1.8s0.8-1.8,1.8-1.8h31.7c1,0,1.8,0.8,1.8,1.8S554.1,438.7,553.1,438.7z
			" style="fill:#142664;"/>
	</g>
	<path d="M577.9,399.8c2.8,0,3.3,1.3,3.4,3.2c0,0.1,0,0.1,0,0.2v4.9c0,0.4-0.1,0.7-0.4,1l-5.6,5.6c-2,2-2.5,2.8-4.7,2.8
		c-2.2,0-29.8-4.7-29.8-6.8c0-2,0.9-3,2.4-4.5l0,0c2.1-2.1,5-5,6-6c0.3-0.3,0.6-0.4,1-0.4C553.6,399.8,570.6,399.8,577.9,399.8
		L577.9,399.8z" style="fill:#142664;"/>
	<path d="M574.3,393.2c0-1-0.4-1.9-1.1-2.6c-0.7-0.7-1.6-1.1-2.6-1.1c-4.9,0-13.6,0-18.5,0c-1,0-1.9,0.4-2.6,1.1
		c-0.7,0.7-1.1,1.6-1.1,2.6c0,4.4,0,11.1,0,11.1h25.9L574.3,393.2L574.3,393.2z" style="fill:#FF2E93;"/>
	<path d="M550.1,429.9c0.5,0,0.9-0.2,1.2-0.5c0.3-0.3,0.5-0.8,0.5-1.2l0-5c0-0.6-0.3-1.2-0.8-1.5
		c-0.5-0.3-1.2-0.3-1.7-0.1l-9.9,5c-0.7,0.4-1.1,1.2-0.9,2c0.2,0.8,0.9,1.3,1.7,1.3L550.1,429.9L550.1,429.9z" style="fill:#142664;"/>
	<g>
		<path d="M446,253.8h-36.8c-1,0-1.8-0.8-1.8-1.8c0-1,0.8-1.8,1.8-1.8h36.1l36.1-36.1c0.7-0.7,1.8-0.7,2.5,0
			c0.7,0.7,0.7,1.8,0,2.5l-36.6,36.6C446.9,253.6,446.4,253.8,446,253.8z" style="fill:#142664;"/>
	</g>
	<path d="M599.2,420.8c0-0.6,0.2-1.2,0.7-1.7c1-1,3.1-3.1,5-5c0.7-0.7,1.7-0.9,2.6-0.5c0.9,0.4,1.5,1.2,1.5,2.2
		c0,2.3,0,4.7,0,6c0,0.6-0.2,1.2-0.7,1.7c-1,1-3.1,3.1-5,5c-0.7,0.7-1.7,0.9-2.6,0.5c-0.9-0.4-1.5-1.2-1.5-2.2
		C599.2,424.5,599.2,422.1,599.2,420.8z" style="fill:#FF2E93;"/>
	<circle cx="421.2" cy="230.4" r="6" style="fill:#142664;"/>
	<circle cx="442.7" cy="230.4" r="6" style="fill:#FFFFFF;"/>
	<circle cx="658.6" cy="349.8" r="3.4" style="fill:#FF2E93;"/>
	<path d="M462.5,622.7c2.3,0,5.5,1.2,7,2.7c1.5,1.5,0.8,2.7-1.5,2.7c-2.3,0-5.5-1.2-7-2.7
		C459.5,623.9,460.2,622.7,462.5,622.7L462.5,622.7z" style="fill:#142664;"/>
	<circle cx="704.4" cy="521.3" r="3.4" style="fill:#FF2E93;"/>
	<circle cx="704.4" cy="534.9" r="3.4" style="fill:#FF2E93;"/>
	<path d="M435.5,501.9v-33.8c0-0.6,0.2-1.2,0.7-1.7c0.4-0.4,1-0.7,1.7-0.7c13.5,0,81.4,0,81.4,0v57.5h-83.7h-0.1
		c-9.8,0-18-6.6-20.5-15.6l0,0c0,0,0,0,0,0l0,0c0-0.2-0.1-0.3-0.1-0.5c-0.9-3.9,1.5-5.2,4.6-5.2H435.5L435.5,501.9z" style="fill:#FFFFFF;"/>
	<g>
		<path d="M519.3,503.7h-83.7c-1,0-1.8-0.8-1.8-1.8c0-1,0.8-1.8,1.8-1.8h83.7c1,0,1.8,0.8,1.8,1.8
			C521.1,502.9,520.3,503.7,519.3,503.7z" style="fill:#142664;"/>
	</g>
	<path d="M505.3,482.3c0-0.8-0.3-1.6-0.9-2.2c-0.6-0.6-1.4-0.9-2.2-0.9c-10.4,0-43.7,0-54.1,0c-0.8,0-1.6,0.3-2.2,0.9
		c-0.6,0.6-0.9,1.4-0.9,2.2c0,0.9,0,1.8,0,2.7c0,0.8,0.3,1.6,0.9,2.2c0.6,0.6,1.4,0.9,2.2,0.9c10.4,0,43.7,0,54.1,0
		c0.8,0,1.6-0.3,2.2-0.9c0.6-0.6,0.9-1.4,0.9-2.2C505.3,484.1,505.3,483.1,505.3,482.3z" style="fill:#142664;"/>
	<g>
		<path d="M567.1,616.5H535c-0.5,0-0.9-0.2-1.3-0.5l-14.5-14.5c-0.3-0.3-0.5-0.8-0.5-1.3v-22.6l-25.5-25.5
			c-0.3-0.3-0.5-0.8-0.5-1.3v-25.2c0-1,0.8-1.8,1.8-1.8s1.8,0.8,1.8,1.8V550l25.5,25.5c0.3,0.3,0.5,0.8,0.5,1.3v22.6l13.4,13.4h31.3
			c1,0,1.8,0.8,1.8,1.8S568.1,616.5,567.1,616.5z" style="fill:#142664;"/>
	</g>
	<path d="M493,635v-24.5h-17.3c-1.2,0-2.3,0.7-2.8,1.8c-0.5,1.1-0.2,2.4,0.6,3.2C480.8,622.7,493,635,493,635L493,635z" style="fill:#142664;"/>
	<path d="M493,635v-24.5h14.4c0.8,0,1.5,0.3,2.1,0.9c4.4,4.4,23.6,23.6,23.6,23.6H493z" style="fill:#FF2E93;"/>
	<g>
		<path d="M482.3,596.4h-70.2c-1,0-1.8-0.8-1.8-1.8c0-1,0.8-1.8,1.8-1.8h68.4v-67.2c0-1,0.8-1.8,1.8-1.8
			s1.8,0.8,1.8,1.8v69C484.1,595.6,483.3,596.4,482.3,596.4z" style="fill:#142664;"/>
	</g>
	<path d="M455,215.4c-1.9,0-3.8-0.8-5.1-2.1c-1.4-1.4-2.1-3.2-2.1-5.1c0-4.8,0-10.9,0-14.5c0-1.9,0.8-3.8,2.1-5.1
		c4.4-4.4,14.6-14.6,19-19c1.4-1.4,3.2-2.1,5.1-2.1c15,0,81.2,0,96.1,0c1.9,0,3.8,0.8,5.1,2.1c4.4,4.4,14.6,14.6,19,19
		c1.4,1.4,2.1,3.2,2.1,5.1c0,3.6,0,9.7,0,14.5c0,1.9-0.8,3.8-2.1,5.1c-1.4,1.4-3.2,2.1-5.1,2.1C563.8,215.4,480.2,215.4,455,215.4
		L455,215.4z" style="fill:#FFFFFF;"/>
	<path d="M574.9,217.7v-23.3c0-1.9-0.7-3.7-2-5.1c-2.1-2.2-5.7-5.9-9.3-9.6c-2-2.1-2.6-5.2-1.5-7.9
		c1.1-2.7,3.8-4.4,6.7-4.4c4.2,0,8.2,0,10.8,0c1.9,0,3.8,0.8,5.1,2.1c4.4,4.4,14.6,14.6,19,19c1.4,1.4,2.1,3.2,2.1,5.1v24
		L574.9,217.7L574.9,217.7z" style="fill:#142664;"/>
	<path d="M696.2,642.1c0-3.9-3.2-7.1-7.1-7.1c-37.8,0-215.2,0-253.1,0c-3.9,0-7.1,3.2-7.1,7.1c0,0,0,0,0,0
		c0,3.9,3.2,7.1,7.1,7.1c37.8,0,215.2,0,253.1,0C693,649.1,696.2,646,696.2,642.1C696.2,642.1,696.2,642.1,696.2,642.1z" style="fill:#142664;"/>
	<path d="M707.4,656.2c0-3.9-3.2-7.1-7.1-7.1c-39.9,0-235.7,0-275.6,0c-3.9,0-7.1,3.2-7.1,7.1c0,0,0,0,0,0
		c0,3.9,3.2,7.1,7.1,7.1c39.9,0,235.7,0,275.6,0C704.3,663.3,707.4,660.2,707.4,656.2C707.4,656.2,707.4,656.2,707.4,656.2z" style="fill:#142664;"/>
	<g>
		<path d="M689,310.3h-7.2v-22.9c0-6.1,2.4-11.8,6.7-16.2l18.7-18.7c6.1-6.1,6.1-16,0-22.1c-3-3-6.9-4.6-11.1-4.6
			c-4.2,0-8.1,1.6-11.1,4.6L668.5,247l-5.1-5.1l16.6-16.6c4.3-4.3,10.1-6.7,16.2-6.7c6.1,0,11.9,2.4,16.2,6.7
			c8.9,8.9,8.9,23.4,0,32.3l-18.7,18.7c-3,3-4.6,6.9-4.6,11.1V310.3z" style="fill:#00E6B3;"/>
	</g>
	<g>
		<path d="M707.8,329.1h-7.2v-67.7c0-4.2-1.6-8.1-4.6-11.1l-20.5-20.5c-3-3-6.9-4.6-11.1-4.6c-4.2,0-8.1,1.6-11.1,4.6
			l-1,1l-5.1-5.1l1-1c4.3-4.3,10.1-6.7,16.2-6.7c6.1,0,11.9,2.4,16.2,6.7l20.5,20.5c4.3,4.3,6.7,10.1,6.7,16.2V329.1z" style="fill:#FF2E93;"/>
	</g>
	<path d="M709.3,439.4c-3.2,3.4-7.8,5.5-12.8,5.5c-9.8,0-17.8-8-17.8-17.8c0-9.8,8-17.8,17.8-17.8c5,0,9.6,2.1,12.8,5.5
		v0l5,5v14.8L709.3,439.4L709.3,439.4z" style="fill:#142664;"/>
	<g>
		<g>
			<rect x="503.9" y="187.6" width="36.4" height="18.8" style="fill:#00E6B3;"/>
			<g>
				<path d="M503.9,195.5c-1,0-1.8-0.8-1.8-1.8v-6.1c0-1,0.8-1.8,1.8-1.8h6.1c1,0,1.8,0.8,1.8,1.8
					C511.8,192,508.2,195.5,503.9,195.5z M505.7,189.4v2.1c0.9-0.4,1.7-1.2,2.1-2.1H505.7z" style="fill:#142664;"/>
			</g>
			<path d="M540.3,187.6h-6.1v0c0,3.3,2.7,6,6.1,6V187.6z" style="fill:#142664;"/>
			<path d="M503.9,206.5v-6.1l0,0c3.3,0,6,2.7,6,6.1H503.9z" style="fill:#142664;"/>
			<path d="M540.3,206.5v-6.1l0,0c-3.3,0-6,2.7-6,6.1H540.3z" style="fill:#142664;"/>
			<ellipse transform="matrix(0.1602 -0.9871 0.9871 0.1602 243.9901 680.848)" cx="522.1" cy="197" rx="5" ry="5" style="fill:#142664;"/>
		</g>
		<g>
			<path d="M506,176.4l-31.5,18.2l9.4,16.3l31.5-18.2L506,176.4L506,176.4z" style="fill:#00E6B3;"/>
			<path d="M474.5,194.6l5.3-3l0,0c1.7,2.9,0.7,6.6-2.2,8.3L474.5,194.6L474.5,194.6z" style="fill:#142664;"/>
			<path d="M506,176.4l-5.3,3l0,0c1.7,2.9,5.4,3.9,8.3,2.2L506,176.4L506,176.4z" style="fill:#142664;"/>
			<path d="M483.9,210.9l-3-5.3l0,0c2.9-1.6,6.6-0.6,8.3,2.2L483.9,210.9L483.9,210.9z" style="fill:#142664;"/>
			<path d="M515.4,192.8l-3-5.3l0,0c-2.9,1.7-3.9,5.4-2.2,8.3L515.4,192.8L515.4,192.8z" style="fill:#142664;"/>
			<path d="M492.4,189.4c2.4-1.4,5.4-0.6,6.8,1.8c1.4,2.4,0.6,5.4-1.8,6.8c-2.4,1.4-5.4,0.6-6.8-1.8
				C489.3,193.8,490.1,190.8,492.4,189.4z" style="fill:#142664;"/>
		</g>
		<path d="M515.4,192.8l-5.3-9.1c-0.6-1.1-0.3-2.5,0.8-3.1c1.1-0.6,2.5-0.3,3.1,0.8l6.4,11c0.6,1.1,0.3,2.5-0.8,3.1
			l-20.5,11.8c-1.1,0.6-2.5,0.3-3.1-0.8c-0.6-1.1-0.3-2.5,0.8-3.1L515.4,192.8L515.4,192.8z" style="fill:#FFFFFF;"/>
	</g>
	<g>
		<path d="M579.5,249.6h-23.9c-1,0-1.8-0.8-1.8-1.8s0.8-1.8,1.8-1.8h23.2l28-28c0.7-0.7,1.8-0.7,2.5,0
			c0.7,0.7,0.7,1.8,0,2.5L580.8,249C580.4,249.4,580,249.6,579.5,249.6z" style="fill:#FF2E93;"/>
	</g>
	<g>
		<path d="M609.6,239.9c-0.5,0-0.9-0.2-1.3-0.5l-10.2-10.2c-0.7-0.7-0.7-1.8,0-2.5c0.7-0.7,1.8-0.7,2.5,0l9,9l17.6-17.6
			c0.7-0.7,1.8-0.7,2.5,0c0.7,0.7,0.7,1.8,0,2.5l-18.9,18.9C610.5,239.8,610,239.9,609.6,239.9z" style="fill:#FF2E93;"/>
	</g>
	<g>
		<path d="M636.2,316.9h-27.2c-1,0-1.8-0.8-1.8-1.8c0-1,0.8-1.8,1.8-1.8h26.5l17.9-17.9v-16.3c0-0.5,0.2-0.9,0.5-1.3
			l12.5-12.5c0.7-0.7,1.8-0.7,2.5,0c0.7,0.7,0.7,1.8,0,2.5l-11.9,11.9v16.3c0,0.5-0.2,0.9-0.5,1.3l-19,19
			C637.1,316.7,636.6,316.9,636.2,316.9z" style="fill:#FF2E93;"/>
	</g>
	<g>
		<path d="M670.8,361.3h-19.5c-0.5,0-0.9-0.2-1.3-0.5L619.3,330h-10.4c-1,0-1.8-0.8-1.8-1.8s0.8-1.8,1.8-1.8h11.2
			c0.5,0,0.9,0.2,1.3,0.5l30.7,30.7h18.7c1,0,1.8,0.8,1.8,1.8S671.8,361.3,670.8,361.3z" style="fill:#FF2E93;"/>
	</g>
	<g>
		<path d="M689.3,464.8h-43c-1,0-1.8-0.8-1.8-1.8V429c0-0.5,0.2-0.9,0.5-1.3l24.5-24.5c0.7-0.7,1.8-0.7,2.5,0
			s0.7,1.8,0,2.5l-24,24v31.5h39.4v-10c0-1,0.8-1.8,1.8-1.8c1,0,1.8,0.8,1.8,1.8V463C691.1,464,690.3,464.8,689.3,464.8z" style="fill:#FF2E93;"/>
	</g>
	<g>
		<path d="M555.6,503.9c-0.5,0-0.9-0.2-1.3-0.5c-0.7-0.7-0.7-1.8,0-2.5l27.2-27.2c0.3-0.3,0.8-0.5,1.3-0.5h33.4
			l28.8-28.8c0.7-0.7,1.8-0.7,2.5,0c0.7,0.7,0.7,1.8,0,2.5l-29.3,29.3c-0.3,0.3-0.8,0.5-1.3,0.5h-33.4l-26.7,26.7
			C556.5,503.7,556,503.9,555.6,503.9z" style="fill:#FF2E93;"/>
	</g>
	<g>
		<path d="M681.3,623.2h-84.5c-1,0-1.8-0.8-1.8-1.8v-48.6c0-0.5,0.2-0.9,0.5-1.3l24.3-24.3c0.3-0.3,0.8-0.5,1.3-0.5
			h84.5c1,0,1.8,0.8,1.8,1.8v48.6c0,0.5-0.2,0.9-0.5,1.3l-24.3,24.3C682.2,623,681.7,623.2,681.3,623.2z M598.6,619.6h81.9
			l23.2-23.2v-46.1h-81.9l-23.2,23.2V619.6z" style="fill:#00E6B3;"/>
	</g>
	<g>
		<path d="M666.4,621.4v-16.7h-30.5v16.7" style="fill:#00E6B3;"/>
		<path d="M668.2,621.4h-3.6v-14.9h-26.9v14.9h-3.6v-16.7c0-1,0.8-1.8,1.8-1.8h30.5c1,0,1.8,0.8,1.8,1.8V621.4z" style="fill:#00E6B3;"/>
	</g>
	<g>
		<path d="M680.7,567.9h-59c-1,0-1.8-0.8-1.8-1.8c0-1,0.8-1.8,1.8-1.8h59c1,0,1.8,0.8,1.8,1.8
			C682.5,567.1,681.7,567.9,680.7,567.9z" style="fill:#FF2E93;"/>
	</g>
	<g>
		<path d="M680.7,579.8h-59c-1,0-1.8-0.8-1.8-1.8c0-1,0.8-1.8,1.8-1.8h59c1,0,1.8,0.8,1.8,1.8
			C682.5,579,681.7,579.8,680.7,579.8z" style="fill:#FF2E93;"/>
	</g>
	<g>
		<path d="M680.7,591.7h-59c-1,0-1.8-0.8-1.8-1.8c0-1,0.8-1.8,1.8-1.8h59c1,0,1.8,0.8,1.8,1.8
			C682.5,590.9,681.7,591.7,680.7,591.7z" style="fill:#FF2E93;"/>
	</g>
	<g>
		<path d="M596.8,550.3c-0.5,0-0.9-0.2-1.3-0.5l-30.2-30.2c-0.3-0.3-0.5-0.8-0.5-1.3v-27.1c0-1,0.8-1.8,1.8-1.8
			s1.8,0.8,1.8,1.8v26.4l29.7,29.7c0.7,0.7,0.7,1.8,0,2.5C597.7,550.1,597.2,550.3,596.8,550.3z" style="fill:#FF2E93;"/>
	</g>
	<g>
		<path d="M575.6,553h-20c-1,0-1.8-0.8-1.8-1.8c0-1,0.8-1.8,1.8-1.8h19.2l11.4-11.4c0.7-0.7,1.8-0.7,2.5,0
			c0.7,0.7,0.7,1.8,0,2.5l-12,12C576.5,552.8,576,553,575.6,553z" style="fill:#FF2E93;"/>
	</g>
	<g>
		<g>
			<path d="M563.3,297.3h-55.1c-1,0-1.8-0.8-1.8-1.8v-8.3c0-1,0.8-1.8,1.8-1.8h55.1c1,0,1.8,0.8,1.8,1.8v8.3
				C565.1,296.5,564.2,297.3,563.3,297.3z M510,293.7h51.5V289H510V293.7z" style="fill:#FF2E93;"/>
		</g>
		<g>
			<path d="M563.3,378.9h-55.1c-1,0-1.8-0.8-1.8-1.8v-8.3c0-1,0.8-1.8,1.8-1.8h55.1c1,0,1.8,0.8,1.8,1.8v8.3
				C565.1,378.1,564.2,378.9,563.3,378.9z M510,375.3h51.5v-4.7H510V375.3z" style="fill:#FF2E93;"/>
		</g>
		<g>
			<path d="M559,370.6h-46.5c-1,0-1.8-0.8-1.8-1.8v-8.6c0-8.9,4.8-17.2,12.5-21.7c2.5-1.4,3.9-3.6,3.9-6
				c0.1-2.6-1.4-5.1-4-6.7c-7.7-4.5-12.5-12.8-12.5-21.7v-8.6c0-1,0.8-1.8,1.8-1.8H559c1,0,1.8,0.8,1.8,1.8v8.6
				c0,9-4.9,17.3-12.7,21.8c-2.4,1.6-3.8,4.1-3.8,6.5c0,2.3,1.3,4.4,3.6,5.9c8,4.4,12.9,12.8,12.9,21.9v8.6
				C560.8,369.8,560,370.6,559,370.6z M514.3,367h42.9v-6.8c0-7.8-4.3-15-11.1-18.8c0,0-0.1,0-0.1-0.1c-3.3-2.1-5.2-5.3-5.3-8.9
				c0-3.7,2-7.3,5.4-9.6c0,0,0.1,0,0.1-0.1c6.7-3.8,10.9-11,10.9-18.7v-6.8h-42.9v6.8c0,7.6,4.1,14.7,10.7,18.6c0,0,0,0,0.1,0
				c3.6,2.3,5.8,6,5.7,9.9c-0.1,3.7-2.2,7-5.7,9.1c-6.6,3.8-10.7,11-10.7,18.6V367z" style="fill:#FF2E93;"/>
		</g>
		<path d="M519.6,360.2c0-0.6,0.2-1.2,0.7-1.6c0.4-0.4,1-0.7,1.6-0.7c5.9,0,21.7,0,27.7,0c0.6,0,1.2,0.2,1.6,0.7
			c0.4,0.4,0.7,1,0.7,1.6v0c0,1.4-1.2,2.6-2.6,2.6c-6,0-21,0-27.1,0C520.8,362.8,519.6,361.7,519.6,360.2L519.6,360.2L519.6,360.2z" style="fill:#142664;"/>
		<g>
			<path d="M535.7,343.9c-1,0-1.8-0.8-1.8-1.8v-1.8c0-1,0.8-1.8,1.8-1.8c1,0,1.8,0.8,1.8,1.8v1.8
				C537.5,343.1,536.7,343.9,535.7,343.9z" style="fill:#142664;"/>
		</g>
		<path d="M525.1,316.3c-3.3-2.4-5.4-5.9-5.4-9.8c0,0,0-1.1,0-2.3c0-1.4,1.2-2.6,2.6-2.6c6,0,21,0,27.1,0
			c1.4,0,2.6,1.2,2.6,2.6c0,1.2,0,2.3,0,2.3c0,3.9-2.1,7.4-5.4,9.8c0,0-0.1,0.1-0.2,0.1l0,0c-0.1,0.1-0.2,0.1-0.3,0.2
			c-4.5,3.1-8,6.4-8,9.4c0,0,0,0,0,0v4c0,1.2-1,2.3-2.3,2.3s-2.3-1-2.3-2.3v-4c0-2.9-3.5-6.3-8-9.3c-0.1-0.1-0.2-0.1-0.3-0.2l0,0
			C525.2,316.4,525.1,316.4,525.1,316.3L525.1,316.3z" style="fill:#142664;"/>
	</g>
	<g>
		<path d="M411,447.8c-0.5,0-0.9-0.2-1.3-0.5c-0.7-0.7-0.7-1.8,0-2.5l46.3-46.3c0.7-0.7,1.8-0.7,2.5,0
			c0.7,0.7,0.7,1.8,0,2.5l-46.3,46.3C411.9,447.6,411.4,447.8,411,447.8z" style="fill:#142664;"/>
	</g>
	<g>
		<path d="M607.8,316.9h-7.3c-1,0-1.8-0.8-1.8-1.8c0-1,0.8-1.8,1.8-1.8h7.3c1,0,1.8,0.8,1.8,1.8
			C609.6,316.1,608.8,316.9,607.8,316.9z" style="fill:#142664;"/>
	</g>
	<g>
		<path d="M607.8,330h-7.3c-1,0-1.8-0.8-1.8-1.8s0.8-1.8,1.8-1.8h7.3c1,0,1.8,0.8,1.8,1.8S608.8,330,607.8,330z" style="fill:#142664;"/>
	</g>
	<path d="M572.5,410.1c0-0.4-0.1-0.7-0.4-1c-0.3-0.3-0.6-0.4-1-0.4c-5.3,0-23.6,0-28.9,0c-0.4,0-0.7,0.1-1,0.4
		c-0.3,0.3-0.4,0.6-0.4,1c0,1.7,0,4.4,0,6c0,0.4,0.1,0.7,0.4,1c0.3,0.3,0.6,0.4,1,0.4c5.3,0,23.6,0,28.9,0c0.4,0,0.7-0.1,1-0.4
		c0.3-0.3,0.4-0.6,0.4-1C572.5,414.5,572.5,411.7,572.5,410.1z" style="fill:#00E6B3;"/>
	<path d="M513.8,501.9c0.6,0,1.1-0.2,1.5-0.6c0.4-0.4,0.6-0.9,0.6-1.5c0-6.4,0-25.5,0-31.9c0-1.2,0.9-2.1,2.1-2.1
		c1.5,0,3.4,0,3.4,0c0.7,0,1.3,0.3,1.8,0.8c0.5,0.5,0.8,1.1,0.8,1.8c0,9.6,0,42.8,0,52.3c0,0.7-0.3,1.3-0.8,1.8
		c-0.5,0.5-1.1,0.8-1.8,0.8h-5.6c-9.7,0-17.9-6.5-20.5-15.4c0-0.1-0.1-0.2-0.1-0.3c-1.2-4.3,1.3-5.7,4.5-5.7L513.8,501.9
		L513.8,501.9z" style="fill:#142664;"/>
	<rect x="555.6" y="389.5" width="5.5" height="14.7" style="fill:#FFFFFF;"/>
	<g>
		<path d="M447.7,212.2c-1,0-1.8-0.8-1.8-1.8v-14.5c0-2.4,0.9-4.7,2.7-6.4l19-19c1.7-1.7,4-2.7,6.4-2.7h101.4
			c1,0,1.8,0.8,1.8,1.8c0,1-0.8,1.8-1.8,1.8H474c-1.5,0-2.8,0.6-3.9,1.6l-19,19c-1,1-1.6,2.4-1.6,3.9v14.5
			C449.5,211.4,448.7,212.2,447.7,212.2z" style="fill:#142664;"/>
	</g>
	<g>
		<path d="M619.3,271.7h-156c-1,0-1.8-0.8-1.8-1.8s0.8-1.8,1.8-1.8h156c1,0,1.8,0.8,1.8,1.8S620.3,271.7,619.3,271.7z" style="fill:#142664;"/>
	</g>
	<g>
		<path d="M504.8,271.7c-0.5,0-0.9-0.2-1.3-0.5c-0.7-0.7-0.7-1.8,0-2.5l22.1-22.1c0.3-0.3,0.8-0.5,1.3-0.5h28.6
			c1,0,1.8,0.8,1.8,1.8s-0.8,1.8-1.8,1.8h-27.9l-21.6,21.6C505.8,271.5,505.3,271.7,504.8,271.7z" style="fill:#142664;"/>
	</g>
	<path d="M691.2,337.4l-11.6-11.6v-17.6c0-1.4,1.1-2.5,2.5-2.5c1.9,0,4.6,0,6.6,0c1.4,0,2.5,1.1,2.5,2.5
		C691.2,315.7,691.2,337.4,691.2,337.4z" style="fill:#142664;"/>
	<path d="M710,356.1l-11.6-11.6V327c0-1.4,1.1-2.5,2.5-2.5c1.9,0,4.6,0,6.6,0c1.4,0,2.5,1.1,2.5,2.5
		C710,334.5,710,356.1,710,356.1L710,356.1z" style="fill:#142664;"/>
	<g>
		<rect x="679.6" y="312.8" width="11.6" height="3.6" style="fill:#FFFFFF;"/>
	</g>
	<g>
		<rect x="698.4" y="331.6" width="11.6" height="3.6" style="fill:#FFFFFF;"/>
	</g>
	<g>
		<path d="M533.2,636.8c-0.5,0-0.9-0.2-1.3-0.5l-23.6-23.6c-0.2-0.2-0.5-0.3-0.8-0.3h-31.7c-0.5,0-0.9,0.3-1.1,0.7
			c-0.2,0.4-0.1,0.9,0.3,1.3l19.1,19.1c0.3,0.2,0.6,0.5,0.7,1c0.3,1-0.2,2-1.2,2.3c-0.1,0-0.1,0-0.2,0c-0.6,0.1-1.2,0-1.6-0.5
			l-19.4-19.4c-1.4-1.4-1.8-3.4-1-5.2c0.7-1.8,2.5-3,4.4-3h31.7c1.3,0,2.5,0.5,3.4,1.4l23.6,23.6c0.7,0.7,0.7,1.8,0,2.5
			C534.1,636.6,533.6,636.8,533.2,636.8z" style="fill:#142664;"/>
	</g>
	<g>
		<path d="M606.6,548.5l-9.8,9.8v-9.8H606.6z" style="fill:#FFFFFF;"/>
		<path d="M596.8,560.1c-0.2,0-0.5,0-0.7-0.1c-0.7-0.3-1.1-0.9-1.1-1.7v-9.8c0-1,0.8-1.8,1.8-1.8h9.8
			c0.7,0,1.4,0.4,1.7,1.1c0.3,0.7,0.1,1.4-0.4,2l-9.8,9.8C597.7,559.9,597.2,560.1,596.8,560.1z M598.6,550.3v3.7l3.7-3.7H598.6z" style="fill:#FFFFFF;"/>
	</g>
	<path d="M590.7,428.3c0.7-0.7,1.7-0.9,2.6-0.5c0.9,0.4,1.5,1.2,1.5,2.2c0,2.3,0,4.7,0,6c0,0.6-0.2,1.2-0.7,1.7
		c-3.5,3.5-19.4,19.4-27,27c-0.7,0.7-1.7,0.9-2.6,0.5c-0.9-0.4-1.5-1.2-1.5-2.2c0-2.3,0-4.7,0-6c0-0.6,0.2-1.2,0.7-1.7
		C567.2,451.8,583.1,435.9,590.7,428.3z" style="fill:#FFFFFF;"/>
	<g>
		<path d="M715.2,393.9c-0.7,0-1.4-0.3-1.9-0.8l-23-23c-1.1-1.1-1.1-2.8,0-3.8c1.1-1.1,2.8-1.1,3.8,0l23,23
			c1.1,1.1,1.1,2.8,0,3.8C716.6,393.7,715.9,393.9,715.2,393.9z" style="fill:#142664;"/>
	</g>
	<g>
		<path d="M715.2,377.4c-0.7,0-1.4-0.3-1.9-0.8l-23-23c-1.1-1.1-1.1-2.8,0-3.8c1.1-1.1,2.8-1.1,3.8,0l23,23
			c1.1,1.1,1.1,2.8,0,3.8C716.6,377.2,715.9,377.4,715.2,377.4z" style="fill:#142664;"/>
	</g>
	<g>
		<path d="M715.2,410.4c-0.7,0-1.4-0.3-1.9-0.8l-23-23c-1.1-1.1-1.1-2.8,0-3.8c1.1-1.1,2.8-1.1,3.8,0l23,23
			c1.1,1.1,1.1,2.8,0,3.8C716.6,410.1,715.9,410.4,715.2,410.4z" style="fill:#142664;"/>
	</g>
	<g>
		<path d="M692.2,651H434.9c-1,0-1.8-0.8-1.8-1.8c0-1,0.8-1.8,1.8-1.8h257.2c1,0,1.8,0.8,1.8,1.8
			C694,650.1,693.2,651,692.2,651z" style="fill:#FF2E93;"/>
	</g>
	<path d="M379.5,663.3h-47c-1.9,0-3.8-0.8-5.1-2.1c-7.8-7.8-35-35-42.8-42.8c-1.4-1.4-2.1-3.2-2.1-5.1
		c0-13.2,0-65.9,0-82.2c0-3.1,1.2-6,3.4-8.2c9.1-9.1,34.1-34.1,41.5-41.5c1.4-1.4,3.2-2.1,5.1-2.1h46.5c0.2,0,0.5,0,0.7,0
		c7.4,0,10.2,0.1,15.3,1.4l-43.5,43.5c-1.4,1.4-2.1,3.2-2.1,5.1c0,13.7,0,70.3,0,84c0,1.9,0.8,3.8,2.1,5.1c0,0,21.4,21.4,34.7,34.7
		c0.1,0.1,0.2,0.2,0.3,0.4l8.5,8.5c-4.5,1.2-7.2,1.3-12.8,1.4c-0.1,0-0.2,0-0.2,0h-2.5L379.5,663.3L379.5,663.3L379.5,663.3z" style="fill:#FF2E93;"/>
	<path d="M365.7,495.9c1.2-1.2,1.6-3,0.9-4.6c-0.6-1.6-2.2-2.6-3.9-2.6c-9,0-21.4,0-25.9,0c-1.1,0-2.2,0.4-3,1.2
		c-3.3,3.3-12.6,12.6-19.3,19.3c-1.2,1.2-1.6,3-0.9,4.6c0.7,1.6,2.2,2.6,3.9,2.6c9,0,21.4,0,25.9,0c1.1,0,2.2-0.4,3-1.2
		C349.7,511.9,359,502.5,365.7,495.9z" style="fill:#142664;"/>
	<g>
		<path d="M749.9,665.1H262.6c-1,0-1.8-0.8-1.8-1.8c0-1,0.8-1.8,1.8-1.8h487.2c1,0,1.8,0.8,1.8,1.8
			C751.7,664.3,750.9,665.1,749.9,665.1z" style="fill:#142664;"/>
	</g>
	<g>
		<path d="M226,665.1H71.5c-1,0-1.8-0.8-1.8-1.8c0-1,0.8-1.8,1.8-1.8H226c1,0,1.8,0.8,1.8,1.8
			C227.8,664.3,227,665.1,226,665.1z" style="fill:#142664;"/>
	</g>
	<circle cx="706.4" cy="427.1" r="10.8" style="fill:#00E6B3;"/>
	<circle cx="706.4" cy="427.1" r="4.6" style="fill:#142664;"/>
	<g>
		<path d="M353.1,529.3h-45c-1,0-1.8-0.8-1.8-1.8c0-1,0.8-1.8,1.8-1.8h45c1,0,1.8,0.8,1.8,1.8
			C354.9,528.5,354.1,529.3,353.1,529.3z" style="fill:#142664;"/>
	</g>
	<g>
		<path d="M299.3,529.3h-3.9c-1,0-1.8-0.8-1.8-1.8c0-1,0.8-1.8,1.8-1.8h3.9c1,0,1.8,0.8,1.8,1.8
			C301.1,528.5,300.3,529.3,299.3,529.3z" style="fill:#142664;"/>
	</g>
	<g>
		<path d="M353.1,617.7h-55.4c-1,0-1.8-0.8-1.8-1.8c0-1,0.8-1.8,1.8-1.8h55.4c1,0,1.8,0.8,1.8,1.8
			C354.9,616.8,354.1,617.7,353.1,617.7z" style="fill:#142664;"/>
	</g>
	<path d="M335.5,545c0-0.8-0.3-1.5-0.9-2.1c-0.6-0.6-1.3-0.9-2.1-0.9c-7.1,0-25.2,0-32.3,0c-0.8,0-1.5,0.3-2.1,0.9
		s-0.9,1.3-0.9,2.1c0,5.6,0,17.6,0,23.1c0,0.8,0.3,1.5,0.9,2.1c0.6,0.6,1.3,0.9,2.1,0.9c7.1,0,25.2,0,32.3,0c0.8,0,1.5-0.3,2.1-0.9
		c0.6-0.6,0.9-1.3,0.9-2.1C335.5,562.5,335.5,550.5,335.5,545L335.5,545z" style="fill:#FFFFFF;"/>
	<g>
		<path d="M323,563.5c0-0.8-0.7-1.5-1.5-1.5c-3.8,0-13.9,0-17.8,0c-0.8,0-1.5,0.7-1.5,1.5c0,0.5,0,1,0,1.4
			c0,0.8,0.7,1.5,1.5,1.5c3.8,0,13.9,0,17.8,0c0.8,0,1.5-0.7,1.5-1.5C323,564.4,323,563.9,323,563.5z" style="fill:#142664;"/>
		<path d="M314.9,546.7c0.8,0,1.5,0.7,1.5,1.5c0,0.5,0,1,0,1.4c0,0.8-0.7,1.5-1.5,1.5c-2.7,0-8.5,0-11.2,0
			c-0.8,0-1.5-0.7-1.5-1.5c0-0.5,0-1,0-1.4c0-0.8,0.7-1.5,1.5-1.5C306.4,546.7,312.2,546.7,314.9,546.7z M320.9,548.2
			c0-0.8,0.7-1.5,1.5-1.5c1.8,0,4.9,0,6.8,0c0.8,0,1.5,0.7,1.5,1.5c0,0.5,0,1,0,1.4c0,0.8-0.7,1.5-1.5,1.5c-1.8,0-4.9,0-6.8,0
			c-0.8,0-1.5-0.7-1.5-1.5C320.9,549.1,320.9,548.6,320.9,548.2z" style="fill:#142664;"/>
		<path d="M306.6,554.3c0.8,0,1.5,0.7,1.5,1.5v1.4c0,0.8-0.7,1.5-1.5,1.5h-2.9c-0.8,0-1.5-0.7-1.5-1.5v-1.4
			c0-0.8,0.7-1.5,1.5-1.5H306.6z M312.6,555.8c0-0.8,0.7-1.5,1.5-1.5h15.1c0.8,0,1.5,0.7,1.5,1.5v1.4c0,0.8-0.7,1.5-1.5,1.5h-15.1
			c-0.8,0-1.5-0.7-1.5-1.5V555.8z" style="fill:#142664;"/>
	</g>
	<g>
		<path d="M103.5,637.1L103.5,637.1c-1,0-1.8-0.8-1.8-1.8l0-3.6c0-1,0.8-1.8,1.8-1.8h0c1,0,1.8,0.8,1.8,1.8l0,3.6
			C105.3,636.2,104.5,637,103.5,637.1L103.5,637.1z M103.4,626.2L103.4,626.2L103.4,626.2c-1,0-1.8-0.8-1.8-1.8l0-3.6
			c0-0.5,0.2-0.9,0.5-1.3c0.3-0.3,0.8-0.5,1.3-0.5h0c1,0,1.8,0.8,1.8,1.8l0,3.6C105.2,625.4,104.4,626.2,103.4,626.2z M103.3,615.4
			L103.3,615.4L103.3,615.4c-1,0-1.8-0.8-1.8-1.8l0-3.6c0-1,0.8-1.8,1.8-1.8h0c1,0,1.8,0.8,1.8,1.8l0,3.6
			C105.1,614.6,104.3,615.4,103.3,615.4z M103.1,604.6L103.1,604.6L103.1,604.6c-1,0-1.8-0.8-1.8-1.8l0-3.6c0-0.5,0.2-0.9,0.5-1.3
			c0.3-0.3,0.8-0.5,1.3-0.5h0c1,0,1.8,0.8,1.8,1.8l0,3.6c0,0.5-0.2,0.9-0.5,1.3C104.1,604.4,103.6,604.6,103.1,604.6z M103,593.8
			L103,593.8c-1,0-1.8-0.8-1.8-1.8l0-3.6c0-0.5,0.2-0.9,0.5-1.3c0.3-0.3,0.8-0.5,1.3-0.5h0c1,0,1.8,0.8,1.8,1.8l0,3.6
			c0,0.5-0.2,0.9-0.5,1.3C103.9,593.6,103.5,593.8,103,593.8L103,593.8z M102.9,583L102.9,583L102.9,583c-1,0-1.8-0.8-1.8-1.8l0-3.6
			c0-1,0.8-1.8,1.8-1.8h0c1,0,1.8,0.8,1.8,1.8l0,3.6c0,0.5-0.2,0.9-0.5,1.3C103.8,582.8,103.4,583,102.9,583z M102.8,572.2
			L102.8,572.2L102.8,572.2c-1,0-1.8-0.8-1.8-1.8l0-3.6c0-1,0.8-1.8,1.8-1.8h0c1,0,1.8,0.8,1.8,1.8l0,3.6c0,0.5-0.2,0.9-0.5,1.3
			C103.7,572,103.2,572.2,102.8,572.2z M102.6,561.4L102.6,561.4L102.6,561.4c-1,0-1.8-0.8-1.8-1.8l0-3.6c0-1,0.8-1.8,1.8-1.8h0
			c1,0,1.8,0.8,1.8,1.8l0,3.6C104.4,560.6,103.6,561.4,102.6,561.4z M102.5,550.6L102.5,550.6c-1,0-1.8-0.8-1.8-1.8l0-3.6
			c0-1,0.8-1.8,1.8-1.8h0c1,0,1.8,0.8,1.8,1.8l0,3.6c0,0.5-0.2,0.9-0.5,1.3C103.4,550.4,103,550.6,102.5,550.6L102.5,550.6z
			 M102.4,539.8L102.4,539.8L102.4,539.8c-1,0-1.8-0.8-1.8-1.8l0-3.6c0-1,0.8-1.8,1.8-1.8h0c1,0,1.8,0.8,1.8,1.8l0,3.6
			C104.2,539,103.4,539.8,102.4,539.8z" style="fill:#142664;"/>
	</g>
	<g>
		<path d="M160.6,634.5c-1,0-1.8-0.8-1.8-1.8l-0.1-3.6c0-1,0.8-1.8,1.8-1.8h0c1,0,1.8,0.8,1.8,1.8l0,3.6
			c0,0.5-0.2,0.9-0.5,1.3C161.6,634.3,161.1,634.5,160.6,634.5C160.6,634.5,160.6,634.5,160.6,634.5z M160.5,623.7L160.5,623.7
			L160.5,623.7c-1,0-1.8-0.8-1.8-1.8l-0.1-3.6c0-1,0.8-1.8,1.8-1.8h0c1,0,1.8,0.8,1.8,1.8l0.1,3.6c0,0,0,0,0,0
			C162.3,622.8,161.5,623.6,160.5,623.7z M160.3,612.9L160.3,612.9L160.3,612.9c-1,0-1.8-0.8-1.8-1.8l0-3.6c0-0.5,0.2-0.9,0.5-1.3
			s0.8-0.5,1.3-0.5h0c1,0,1.8,0.8,1.8,1.8l0.1,3.6C162.1,612,161.3,612.8,160.3,612.9z M160.2,602.1L160.2,602.1L160.2,602.1
			c-1,0-1.8-0.8-1.8-1.8l0-3.6c0-0.5,0.2-0.9,0.5-1.3c0.3-0.3,0.8-0.5,1.3-0.5h0c1,0,1.8,0.8,1.8,1.8l0,3.6
			C162,601.2,161.2,602,160.2,602.1z M160.1,591.2L160.1,591.2L160.1,591.2c-1,0-1.8-0.8-1.8-1.8l0-3.6c0-0.5,0.2-0.9,0.5-1.3
			c0.3-0.3,0.8-0.5,1.3-0.5h0c1,0,1.8,0.8,1.8,1.8l0,3.6C161.8,590.4,161,591.2,160.1,591.2z M159.9,580.5L159.9,580.5L159.9,580.5
			c-1,0-1.8-0.8-1.8-1.8l0-3.6c0-0.5,0.2-0.9,0.5-1.3c0.3-0.3,0.8-0.5,1.3-0.5h0c1,0,1.8,0.8,1.8,1.8l0,3.6
			C161.7,579.6,160.9,580.4,159.9,580.5z M159.8,569.7L159.8,569.7L159.8,569.7c-1,0-1.8-0.8-1.8-1.8l-0.1-3.6c0-1,0.8-1.8,1.8-1.8
			h0c1,0,1.8,0.8,1.8,1.8l0.1,3.6c0,0,0,0,0,0C161.5,568.9,160.7,569.6,159.8,569.7z M159.6,558.8L159.6,558.8L159.6,558.8
			c-1,0-1.8-0.8-1.8-1.8l-0.1-3.6c0-1,0.8-1.8,1.8-1.8h0c1,0,1.8,0.8,1.8,1.8l0.1,3.6c0,0,0,0,0,0
			C161.4,558,160.6,558.8,159.6,558.8z M159.5,548L159.5,548L159.5,548c-1,0-1.8-0.8-1.8-1.8l0-3.6c0-0.5,0.2-0.9,0.5-1.3
			c0.3-0.4,0.8-0.5,1.3-0.5h0c1,0,1.8,0.8,1.8,1.8l0,3.6C161.3,547.2,160.5,548,159.5,548z" style="fill:#142664;"/>
	</g>
	<path d="M204.4,433.6c-4.6,0-8.9-1.2-11.5-3.1c-4.2-3.1-10.4-4.9-16.9-4.9c-6.6,0-12.7,1.8-16.9,4.9
		c-2.6,2-6.9,3.1-11.5,3.1c-4.6,0-8.9-1.2-11.5-3.1c-4.2-3.1-10.4-4.9-16.9-4.9c-6.6,0-12.7,1.8-16.9,4.9c-2.6,2-6.9,3.1-11.5,3.1
		c-4.6,0-8.9-1.2-11.5-3.1c-4.2-3.1-10.4-4.9-16.9-4.9c-0.3,0-0.7,0-1,0c-0.4,2.9-0.7,5.9-1,9c0.7,0,1.3-0.1,2-0.1
		c4.6,0,8.9,1.2,11.5,3.1c4.2,3.1,10.4,4.9,16.9,4.9c6.6,0,12.7-1.8,16.9-4.9c2.6-2,6.9-3.1,11.5-3.1c4.6,0,8.9,1.2,11.5,3.1
		c4.2,3.1,10.4,4.9,16.9,4.9c6.6,0,12.7-1.8,16.9-4.9c2.6-2,6.9-3.1,11.5-3.1c4.6,0,8.9,1.2,11.5,3.1c4.2,3.1,10.4,4.9,16.9,4.9
		c6.3,0,12.2-1.7,16.4-4.6c-0.3-3.4-0.5-6.7-0.8-9.9c-1.5,0.7-2.8,1.4-4,2.3C213.3,432.4,209,433.6,204.4,433.6z" style="fill:#00E6B3;"/>
	<path d="M220.2,457.5c0.5-0.4,1-0.7,1.6-1c-0.1-2-0.2-3.9-0.2-5.8c-1.7,0.7-3.2,1.5-4.6,2.5c-2.9,2.2-7.6,3.5-12.6,3.5
		c-5,0-9.7-1.3-12.6-3.5c-3.9-2.9-9.7-4.6-15.8-4.6c-6.2,0-12,1.7-15.8,4.6c-2.9,2.2-7.6,3.5-12.6,3.5c-5,0-9.7-1.3-12.6-3.5
		c-3.9-2.9-9.7-4.6-15.8-4.6c-6.2,0-12,1.7-15.8,4.6c-2.9,2.2-7.6,3.5-12.6,3.5c-5,0-9.7-1.3-12.6-3.5c-3.9-2.9-9.7-4.6-15.8-4.6
		c-1,0-2,0.1-3,0.1c-0.1,1.8-0.2,3.6-0.2,5.4c1-0.1,2.1-0.2,3.2-0.2c5,0,9.7,1.3,12.6,3.5c3.9,2.9,9.7,4.6,15.8,4.6
		c6.2,0,12-1.7,15.8-4.6c2.9-2.2,7.6-3.5,12.6-3.5c5,0,9.7,1.3,12.6,3.5c3.9,2.9,9.7,4.6,15.8,4.6c6.2,0,12-1.7,15.8-4.6
		c2.9-2.2,7.6-3.5,12.6-3.5c5,0,9.7,1.3,12.6,3.5c3.9,2.9,9.7,4.6,15.8,4.6C210.6,462.1,216.3,460.4,220.2,457.5z" style="fill:#00E6B3;"/>
	<path d="M98.5,407.9c-1.6,5.4-3.3,12.4-4.6,21c-1,6.3-1.8,13.4-2.2,21.3c-0.2,4.1-0.3,8.4-0.3,12.9
		c0,9.1,0.5,19.1,1.4,29.9c0.1,0.9,0.9,1.6,1.8,1.5c0.9-0.1,1.6-0.9,1.5-1.8c-0.6-11.1-0.6-21.3-0.4-30.5c0.1-4.3,0.3-8.3,0.5-12.2
		c0.2-2.8,0.3-5.5,0.5-8.1c1.1-14.3,2.9-25.4,5-33.3c0.2-0.9-0.3-1.8-1.1-2.1C99.7,406.5,98.7,407,98.5,407.9L98.5,407.9z" style="fill:#FFFFFF;"/>
	<path d="M193.7,490.3c0,0,0.3-8.7,0.7-20.5c0.2-6.3,0.4-13.4,0.5-20.5c0.1-4.2,0.1-8.3,0.1-12.3
		c0-15.7-0.1-28.7-0.1-28.7c0-0.9-0.7-1.7-1.6-1.7c-0.9,0-1.7,0.7-1.7,1.6c0,0-0.5,13-0.9,28.7c-0.1,4-0.2,8.1-0.3,12.3
		c-0.1,7.1-0.1,14.2-0.1,20.5c0,11.8,0.1,20.5,0.1,20.5c0,0.9,0.7,1.7,1.6,1.7C192.9,492,193.7,491.3,193.7,490.3L193.7,490.3z" style="fill:#FFFFFF;"/>
</g>
</svg>