<?xml version="1.0" standalone="no"?>
<!DOCTYPE svg PUBLIC "-//W3C//DTD SVG 20010904//EN"
 "http://www.w3.org/TR/2001/REC-SVG-20010904/DTD/svg10.dtd">
<svg version="1.0" xmlns="http://www.w3.org/2000/svg"
 width="700.000000pt" height="700.000000pt" viewBox="0 0 700.000000 700.000000"
 preserveAspectRatio="xMidYMid meet">
<metadata>
Created by potrace 1.11, written by Peter Selinger 2001-2013
</metadata>
<g transform="translate(0.000000,700.000000) scale(0.100000,-0.100000)"
fill="#000000" stroke="none">
<path d="M5109 6257 c-2 -3 -26 -7 -54 -10 -99 -10 -260 -60 -370 -115 -91
-45 -220 -140 -304 -224 -83 -83 -192 -235 -227 -315 -16 -38 -22 -43 -51 -43
-54 0 -112 -28 -119 -59 -9 -37 -27 -55 -129 -131 -180 -133 -342 -229 -640
-376 -197 -98 -356 -172 -525 -245 l-65 -28 -9 32 c-17 57 -72 133 -121 165
-148 98 -341 44 -426 -120 -22 -42 -27 -96 -29 -279 0 -35 -1 -36 -72 -64 -40
-15 -82 -31 -93 -36 -52 -22 -413 -155 -544 -200 -159 -55 -180 -88 -148 -229
33 -144 34 -133 -11 -153 -71 -31 -187 -114 -269 -191 -211 -199 -315 -474
-316 -836 0 -269 55 -407 337 -844 211 -326 312 -511 332 -613 l6 -30 -60 -6
c-260 -23 -409 -317 -276 -543 27 -45 93 -110 139 -135 84 -47 59 -46 1275
-45 1083 1 1148 2 1201 19 254 84 332 409 144 600 -50 50 -130 93 -193 103
-24 4 -229 7 -455 8 l-412 1 0 1188 0 1187 50 14 c291 83 897 222 1090 250 22
3 51 7 65 10 155 26 361 43 512 42 117 -1 129 -3 149 -23 21 -20 24 -21 73 -6
28 8 58 22 67 32 13 16 18 17 40 5 99 -55 297 -116 419 -129 224 -23 435 13
650 111 154 71 341 228 449 376 87 120 177 320 195 433 4 20 8 41 11 45 7 11
19 157 19 230 0 285 -119 586 -313 794 -228 243 -509 371 -842 382 -80 2 -147
3 -150 1z m-3758 -2777 c38 -81 46 -92 86 -111 l44 -21 182 57 c303 94 371
114 375 110 3 -3 5 -2096 3 -2187 -1 -15 -23 -16 -235 -16 l-234 1 -12 41
c-45 147 -65 197 -131 329 -49 100 -150 265 -289 477 -125 189 -199 329 -235
443 -62 194 -17 523 95 701 50 79 146 171 237 225 37 22 69 41 70 41 1 0 21
-40 44 -90z"/>
</g>
</svg>
